<mxfile host="Electron" agent="Mozilla/5.0 (Windows NT 10.0; Win64; x64) AppleWebKit/537.36 (KHTML, like Gecko) draw.io/27.0.2 Chrome/134.0.6998.205 Electron/35.3.0 Safari/537.36" version="27.0.2">
  <diagram name="Page-1" id="7qW2OD8ze8apev65GPV9">
    <mxGraphModel dx="1384" dy="1190" grid="1" gridSize="10" guides="1" tooltips="1" connect="1" arrows="1" fold="1" page="1" pageScale="1" pageWidth="1920" pageHeight="1200" math="0" shadow="0">
      <root>
        <mxCell id="0" />
        <mxCell id="1" parent="0" />
        <mxCell id="UumZl4tDRyMTFsn0wA4o-2" value="" style="rounded=0;whiteSpace=wrap;html=1;fillColor=none;dashed=1;dashPattern=1 4;strokeColor=#696969;strokeWidth=4;" vertex="1" parent="1">
          <mxGeometry x="150" y="200" width="230" height="840" as="geometry" />
        </mxCell>
        <mxCell id="UumZl4tDRyMTFsn0wA4o-3" value="&lt;font&gt;Sources&lt;/font&gt;" style="rounded=0;whiteSpace=wrap;html=1;strokeColor=none;fontSize=28;fontStyle=1" vertex="1" parent="1">
          <mxGeometry x="205" y="170" width="120" height="60" as="geometry" />
        </mxCell>
        <mxCell id="UumZl4tDRyMTFsn0wA4o-4" value="" style="rounded=0;whiteSpace=wrap;html=1;fillColor=none;dashed=1;dashPattern=1 4;strokeColor=#696969;strokeWidth=4;" vertex="1" parent="1">
          <mxGeometry x="430" y="200" width="1050" height="840" as="geometry" />
        </mxCell>
        <mxCell id="UumZl4tDRyMTFsn0wA4o-5" value="&lt;font&gt;Data Warehouse&lt;/font&gt;" style="rounded=0;whiteSpace=wrap;html=1;strokeColor=none;fontSize=28;fontStyle=1" vertex="1" parent="1">
          <mxGeometry x="826.25" y="170" width="257.5" height="60" as="geometry" />
        </mxCell>
        <mxCell id="UumZl4tDRyMTFsn0wA4o-6" value="" style="rounded=0;whiteSpace=wrap;html=1;fillColor=none;dashed=1;dashPattern=1 4;strokeColor=#696969;strokeWidth=4;" vertex="1" parent="1">
          <mxGeometry x="1520" y="200" width="270" height="840" as="geometry" />
        </mxCell>
        <mxCell id="UumZl4tDRyMTFsn0wA4o-7" value="&lt;font&gt;Consume&lt;/font&gt;" style="rounded=0;whiteSpace=wrap;html=1;strokeColor=none;fontSize=28;fontStyle=1" vertex="1" parent="1">
          <mxGeometry x="1577.5" y="170" width="155" height="60" as="geometry" />
        </mxCell>
        <mxCell id="UumZl4tDRyMTFsn0wA4o-9" value="Bronze layer" style="rounded=0;whiteSpace=wrap;html=1;fontSize=28;labelBackgroundColor=none;fillColor=#ffe6cc;strokeColor=#d79b00;strokeWidth=3;fontStyle=1" vertex="1" parent="1">
          <mxGeometry x="480" y="240" width="280" height="65" as="geometry" />
        </mxCell>
        <mxCell id="UumZl4tDRyMTFsn0wA4o-10" value="" style="rounded=0;whiteSpace=wrap;html=1;fontSize=25;labelBackgroundColor=none;fillColor=none;strokeColor=#d79b00;strokeWidth=3;" vertex="1" parent="1">
          <mxGeometry x="480" y="320" width="280" height="700" as="geometry" />
        </mxCell>
        <mxCell id="UumZl4tDRyMTFsn0wA4o-13" value="Silver layer" style="rounded=0;whiteSpace=wrap;html=1;fontSize=28;labelBackgroundColor=none;fillColor=#f5f5f5;strokeColor=#666666;strokeWidth=3;fontColor=#333333;fontStyle=1" vertex="1" parent="1">
          <mxGeometry x="830" y="240" width="280" height="65" as="geometry" />
        </mxCell>
        <mxCell id="UumZl4tDRyMTFsn0wA4o-14" value="" style="rounded=0;whiteSpace=wrap;html=1;fontSize=25;labelBackgroundColor=none;fillColor=none;strokeColor=#696969;strokeWidth=3;" vertex="1" parent="1">
          <mxGeometry x="830" y="320" width="280" height="700" as="geometry" />
        </mxCell>
        <mxCell id="UumZl4tDRyMTFsn0wA4o-15" value="Gold layer" style="rounded=0;whiteSpace=wrap;html=1;fontSize=28;labelBackgroundColor=none;fillColor=#fff2cc;strokeColor=#d6b656;strokeWidth=3;fontStyle=1" vertex="1" parent="1">
          <mxGeometry x="1170" y="240" width="280" height="65" as="geometry" />
        </mxCell>
        <mxCell id="UumZl4tDRyMTFsn0wA4o-16" value="" style="rounded=0;whiteSpace=wrap;html=1;fontSize=25;labelBackgroundColor=none;fillColor=none;strokeColor=#D6B656;strokeWidth=3;" vertex="1" parent="1">
          <mxGeometry x="1170" y="320" width="280" height="700" as="geometry" />
        </mxCell>
        <mxCell id="UumZl4tDRyMTFsn0wA4o-17" value="&lt;font style=&quot;font-size: 28px;&quot;&gt;CRM&lt;/font&gt;" style="image;aspect=fixed;html=1;points=[];align=center;fontSize=12;image=img/lib/azure2/general/Folder_Blank.svg;" vertex="1" parent="1">
          <mxGeometry x="203.39" y="410" width="123.22" height="100" as="geometry" />
        </mxCell>
        <mxCell id="UumZl4tDRyMTFsn0wA4o-18" value="" style="image;aspect=fixed;html=1;points=[];align=center;fontSize=12;image=img/lib/azure2/general/File.svg;" vertex="1" parent="1">
          <mxGeometry x="290" y="451" width="56.00000000000001" height="69" as="geometry" />
        </mxCell>
        <mxCell id="UumZl4tDRyMTFsn0wA4o-19" value="&lt;font style=&quot;font-size: 28px;&quot;&gt;ERP&lt;/font&gt;" style="image;aspect=fixed;html=1;points=[];align=center;fontSize=12;image=img/lib/azure2/general/Folder_Blank.svg;" vertex="1" parent="1">
          <mxGeometry x="203.39" y="640" width="123.22" height="100" as="geometry" />
        </mxCell>
        <mxCell id="UumZl4tDRyMTFsn0wA4o-20" value="" style="image;aspect=fixed;html=1;points=[];align=center;fontSize=12;image=img/lib/azure2/general/File.svg;" vertex="1" parent="1">
          <mxGeometry x="290" y="680" width="56.00000000000001" height="69" as="geometry" />
        </mxCell>
        <mxCell id="UumZl4tDRyMTFsn0wA4o-22" value="" style="endArrow=none;html=1;rounded=0;entryX=0.986;entryY=0.681;entryDx=0;entryDy=0;entryPerimeter=0;" edge="1" parent="1">
          <mxGeometry width="50" height="50" relative="1" as="geometry">
            <mxPoint x="153.22" y="800.58" as="sourcePoint" />
            <mxPoint x="380.0000000000002" y="800.0000000000001" as="targetPoint" />
          </mxGeometry>
        </mxCell>
        <mxCell id="UumZl4tDRyMTFsn0wA4o-23" value="&lt;b&gt;Object Type&lt;/b&gt;: CSV Files&lt;div&gt;&lt;b&gt;Interface&lt;/b&gt;: Files in folders&lt;/div&gt;" style="text;html=1;align=center;verticalAlign=middle;rounded=0;fontSize=24;whiteSpace=wrap;" vertex="1" parent="1">
          <mxGeometry x="150" y="850" width="230" height="70" as="geometry" />
        </mxCell>
        <mxCell id="UumZl4tDRyMTFsn0wA4o-24" value="" style="html=1;verticalLabelPosition=bottom;align=center;labelBackgroundColor=#ffffff;verticalAlign=top;strokeWidth=2;strokeColor=#d79b00;shadow=0;dashed=0;shape=mxgraph.ios7.icons.data;fillColor=#ffe6cc;" vertex="1" parent="1">
          <mxGeometry x="569" y="350" width="102" height="128" as="geometry" />
        </mxCell>
        <mxCell id="UumZl4tDRyMTFsn0wA4o-25" value="" style="html=1;verticalLabelPosition=bottom;align=center;labelBackgroundColor=#ffffff;verticalAlign=top;strokeWidth=2;strokeColor=#666666;shadow=0;dashed=0;shape=mxgraph.ios7.icons.data;fillColor=#f5f5f5;fontColor=#333333;" vertex="1" parent="1">
          <mxGeometry x="919" y="350" width="102" height="128" as="geometry" />
        </mxCell>
        <mxCell id="UumZl4tDRyMTFsn0wA4o-26" value="" style="html=1;verticalLabelPosition=bottom;align=center;labelBackgroundColor=#ffffff;verticalAlign=top;strokeWidth=2;strokeColor=#d6b656;shadow=0;dashed=0;shape=mxgraph.ios7.icons.data;fillColor=#fff2cc;" vertex="1" parent="1">
          <mxGeometry x="1259" y="350" width="102" height="128" as="geometry" />
        </mxCell>
        <mxCell id="UumZl4tDRyMTFsn0wA4o-28" value="" style="shape=singleArrow;whiteSpace=wrap;html=1;fillColor=#b1ddf0;strokeColor=#10739e;" vertex="1" parent="1">
          <mxGeometry x="360" y="460" width="150" height="60" as="geometry" />
        </mxCell>
        <mxCell id="UumZl4tDRyMTFsn0wA4o-29" value="" style="shape=singleArrow;whiteSpace=wrap;html=1;fillColor=#b1ddf0;strokeColor=#10739e;" vertex="1" parent="1">
          <mxGeometry x="730" y="460" width="150" height="60" as="geometry" />
        </mxCell>
        <mxCell id="UumZl4tDRyMTFsn0wA4o-30" value="" style="shape=singleArrow;whiteSpace=wrap;html=1;fillColor=#b1ddf0;strokeColor=#10739e;" vertex="1" parent="1">
          <mxGeometry x="1080" y="460" width="150" height="60" as="geometry" />
        </mxCell>
        <mxCell id="UumZl4tDRyMTFsn0wA4o-31" value="&lt;font style=&quot;font-size: 25px;&quot;&gt;Raw Data&lt;/font&gt;" style="text;html=1;align=center;verticalAlign=middle;whiteSpace=wrap;rounded=0;fontSize=20;" vertex="1" parent="1">
          <mxGeometry x="510" y="510" width="230" height="70" as="geometry" />
        </mxCell>
        <mxCell id="UumZl4tDRyMTFsn0wA4o-32" value="&lt;font style=&quot;font-size: 25px;&quot;&gt;Cleaned, Standardized Data&lt;/font&gt;" style="text;html=1;align=center;verticalAlign=middle;whiteSpace=wrap;rounded=0;fontSize=20;" vertex="1" parent="1">
          <mxGeometry x="855" y="510" width="230" height="70" as="geometry" />
        </mxCell>
        <mxCell id="UumZl4tDRyMTFsn0wA4o-33" value="&lt;font style=&quot;font-size: 25px;&quot;&gt;Business Ready Data&lt;/font&gt;" style="text;html=1;align=center;verticalAlign=middle;whiteSpace=wrap;rounded=0;fontSize=20;" vertex="1" parent="1">
          <mxGeometry x="1172.5" y="520" width="275" height="70" as="geometry" />
        </mxCell>
        <mxCell id="UumZl4tDRyMTFsn0wA4o-34" value="" style="shape=singleArrow;whiteSpace=wrap;html=1;fillColor=#b1ddf0;strokeColor=#10739e;" vertex="1" parent="1">
          <mxGeometry x="1410" y="460" width="150" height="60" as="geometry" />
        </mxCell>
        <mxCell id="UumZl4tDRyMTFsn0wA4o-35" value="" style="endArrow=none;html=1;rounded=0;entryX=0.986;entryY=0.681;entryDx=0;entryDy=0;entryPerimeter=0;" edge="1" parent="1">
          <mxGeometry width="50" height="50" relative="1" as="geometry">
            <mxPoint x="510" y="559.08" as="sourcePoint" />
            <mxPoint x="736.7800000000002" y="558.5000000000001" as="targetPoint" />
          </mxGeometry>
        </mxCell>
        <mxCell id="UumZl4tDRyMTFsn0wA4o-36" value="" style="endArrow=none;html=1;rounded=0;entryX=0.986;entryY=0.681;entryDx=0;entryDy=0;entryPerimeter=0;" edge="1" parent="1">
          <mxGeometry width="50" height="50" relative="1" as="geometry">
            <mxPoint x="855" y="578.58" as="sourcePoint" />
            <mxPoint x="1081.7800000000002" y="578.0000000000001" as="targetPoint" />
          </mxGeometry>
        </mxCell>
        <mxCell id="UumZl4tDRyMTFsn0wA4o-37" value="" style="endArrow=none;html=1;rounded=0;entryX=0.986;entryY=0.681;entryDx=0;entryDy=0;entryPerimeter=0;" edge="1" parent="1">
          <mxGeometry width="50" height="50" relative="1" as="geometry">
            <mxPoint x="1196.6100000000001" y="578.58" as="sourcePoint" />
            <mxPoint x="1423.3900000000003" y="578.0000000000001" as="targetPoint" />
          </mxGeometry>
        </mxCell>
        <mxCell id="UumZl4tDRyMTFsn0wA4o-38" value="&lt;div style=&quot;text-align: left;&quot;&gt;&lt;b style=&quot;background-color: transparent; color: light-dark(rgb(0, 0, 0), rgb(255, 255, 255));&quot;&gt;Object Type : &lt;/b&gt;&lt;span style=&quot;background-color: transparent; color: light-dark(rgb(0, 0, 0), rgb(255, 255, 255));&quot;&gt;Tables&lt;/span&gt;&lt;/div&gt;&lt;div&gt;&lt;font&gt;&lt;br&gt;&lt;/font&gt;&lt;/div&gt;&lt;div style=&quot;text-align: left;&quot;&gt;&lt;font&gt;&lt;b&gt;Load:&lt;/b&gt;&lt;/font&gt;&lt;/div&gt;&lt;div&gt;&lt;ul&gt;&lt;li&gt;&lt;font&gt;Batch Processing&lt;/font&gt;&lt;/li&gt;&lt;li&gt;&lt;font&gt;Full load&lt;/font&gt;&lt;/li&gt;&lt;li&gt;&lt;font&gt;Truncate &amp;amp; Insert&lt;/font&gt;&lt;/li&gt;&lt;/ul&gt;&lt;div style=&quot;text-align: left;&quot;&gt;&lt;span&gt;&lt;b&gt;No Transformations&lt;/b&gt;&lt;/span&gt;&lt;/div&gt;&lt;div style=&quot;text-align: left;&quot;&gt;&lt;span&gt;&lt;b&gt;&lt;br&gt;&lt;/b&gt;&lt;/span&gt;&lt;/div&gt;&lt;div&gt;&lt;span&gt;&lt;b&gt;Data Model: &lt;/b&gt;None (as is)&lt;/span&gt;&lt;/div&gt;&lt;/div&gt;" style="text;html=1;align=center;verticalAlign=middle;whiteSpace=wrap;rounded=0;fontSize=23;" vertex="1" parent="1">
          <mxGeometry x="480" y="560" width="290" height="340" as="geometry" />
        </mxCell>
        <mxCell id="UumZl4tDRyMTFsn0wA4o-39" value="&lt;div style=&quot;text-align: left;&quot;&gt;&lt;b style=&quot;background-color: transparent; color: light-dark(rgb(0, 0, 0), rgb(255, 255, 255));&quot;&gt;Object Type : &lt;/b&gt;&lt;span style=&quot;background-color: transparent; color: light-dark(rgb(0, 0, 0), rgb(255, 255, 255));&quot;&gt;Tables&lt;/span&gt;&lt;/div&gt;&lt;div&gt;&lt;font&gt;&lt;br&gt;&lt;/font&gt;&lt;/div&gt;&lt;div style=&quot;text-align: left;&quot;&gt;&lt;font&gt;&lt;b&gt;Load:&lt;/b&gt;&lt;/font&gt;&lt;/div&gt;&lt;div&gt;&lt;ul&gt;&lt;li&gt;&lt;font&gt;Batch Processing&lt;/font&gt;&lt;/li&gt;&lt;li&gt;&lt;font&gt;Full load&lt;/font&gt;&lt;/li&gt;&lt;li&gt;&lt;font&gt;Truncate &amp;amp; Insert&lt;/font&gt;&lt;/li&gt;&lt;/ul&gt;&lt;div style=&quot;text-align: left;&quot;&gt;&lt;span&gt;&lt;b&gt;Transformations:&lt;/b&gt;&lt;/span&gt;&lt;/div&gt;&lt;div style=&quot;text-align: left;&quot;&gt;&lt;ul&gt;&lt;li&gt;&lt;span&gt;Data Cleansing&lt;/span&gt;&lt;/li&gt;&lt;li&gt;&lt;span&gt;Data Standardization&lt;/span&gt;&lt;/li&gt;&lt;li&gt;&lt;span&gt;Data Normalization&lt;/span&gt;&lt;/li&gt;&lt;li&gt;&lt;span&gt;Derived Columns&lt;/span&gt;&lt;/li&gt;&lt;li&gt;&lt;span&gt;Data Enrichment&lt;/span&gt;&lt;/li&gt;&lt;/ul&gt;&lt;/div&gt;&lt;div style=&quot;text-align: left;&quot;&gt;&lt;b style=&quot;background-color: transparent; color: light-dark(rgb(0, 0, 0), rgb(255, 255, 255)); text-align: center;&quot;&gt;Data Model: &lt;/b&gt;&lt;span style=&quot;background-color: transparent; color: light-dark(rgb(0, 0, 0), rgb(255, 255, 255)); text-align: center;&quot;&gt;None (as is)&lt;/span&gt;&lt;/div&gt;&lt;/div&gt;" style="text;html=1;align=center;verticalAlign=middle;whiteSpace=wrap;rounded=0;fontSize=22;" vertex="1" parent="1">
          <mxGeometry x="830" y="580" width="290" height="440" as="geometry" />
        </mxCell>
        <mxCell id="UumZl4tDRyMTFsn0wA4o-40" value="&lt;div style=&quot;text-align: left;&quot;&gt;&lt;b style=&quot;background-color: transparent; color: light-dark(rgb(0, 0, 0), rgb(255, 255, 255));&quot;&gt;Object Type : &lt;/b&gt;&lt;span style=&quot;background-color: transparent; color: light-dark(rgb(0, 0, 0), rgb(255, 255, 255));&quot;&gt;Views&lt;/span&gt;&lt;/div&gt;&lt;div&gt;&lt;font&gt;&lt;br&gt;&lt;/font&gt;&lt;/div&gt;&lt;div style=&quot;text-align: left;&quot;&gt;&lt;font&gt;&lt;b&gt;No Load&lt;/b&gt;&lt;/font&gt;&lt;/div&gt;&lt;div style=&quot;text-align: left;&quot;&gt;&lt;font&gt;&lt;b&gt;&lt;br&gt;&lt;/b&gt;&lt;/font&gt;&lt;/div&gt;&lt;div&gt;&lt;div style=&quot;text-align: left;&quot;&gt;&lt;span&gt;&lt;b&gt;Transformations:&lt;/b&gt;&lt;/span&gt;&lt;/div&gt;&lt;div style=&quot;text-align: left;&quot;&gt;&lt;ul&gt;&lt;li&gt;&lt;span&gt;Data Integrations&lt;/span&gt;&lt;/li&gt;&lt;li&gt;&lt;span&gt;Aggregations&lt;/span&gt;&lt;/li&gt;&lt;li&gt;&lt;span&gt;Business Logics&lt;/span&gt;&lt;/li&gt;&lt;/ul&gt;&lt;/div&gt;&lt;div style=&quot;text-align: left;&quot;&gt;&lt;b style=&quot;background-color: transparent; color: light-dark(rgb(0, 0, 0), rgb(255, 255, 255)); text-align: center;&quot;&gt;Data Model:&amp;nbsp;&lt;/b&gt;&lt;/div&gt;&lt;/div&gt;&lt;div style=&quot;text-align: left;&quot;&gt;&lt;ul&gt;&lt;li&gt;&lt;span style=&quot;background-color: transparent; color: light-dark(rgb(0, 0, 0), rgb(255, 255, 255)); text-align: center;&quot;&gt;Star Schema&lt;/span&gt;&lt;/li&gt;&lt;li&gt;&lt;span style=&quot;background-color: transparent; color: light-dark(rgb(0, 0, 0), rgb(255, 255, 255)); text-align: center;&quot;&gt;Flat Table&lt;/span&gt;&lt;/li&gt;&lt;li&gt;&lt;span style=&quot;background-color: transparent; color: light-dark(rgb(0, 0, 0), rgb(255, 255, 255)); text-align: center;&quot;&gt;Aggregated Table&lt;/span&gt;&lt;/li&gt;&lt;/ul&gt;&lt;/div&gt;" style="text;html=1;align=center;verticalAlign=middle;whiteSpace=wrap;rounded=0;fontSize=22;" vertex="1" parent="1">
          <mxGeometry x="1180" y="580" width="290" height="440" as="geometry" />
        </mxCell>
        <mxCell id="UumZl4tDRyMTFsn0wA4o-41" value="" style="image;aspect=fixed;html=1;points=[];align=center;fontSize=12;image=img/lib/azure2/analytics/Power_BI_Embedded.svg;" vertex="1" parent="1">
          <mxGeometry x="1600" y="363.33" width="110" height="146.67" as="geometry" />
        </mxCell>
        <mxCell id="UumZl4tDRyMTFsn0wA4o-42" value="" style="shape=image;verticalLabelPosition=bottom;labelBackgroundColor=default;verticalAlign=top;aspect=fixed;imageAspect=0;image=data:image/png,iVBORw0KGgoAAAANSUhEUgAAAgAAAAIACAYAAAD0eNT6AAAACXBIWXMAAA7DAAAOwwHHb6hkAAAAGXRFWHRTb2Z0d2FyZQB3d3cuaW5rc2NhcGUub3Jnm+48GgAAIABJREFUeJzs3XecXVW5//HPtEx6T0ggQEggBELvBAgYEQSki4ICikpXULFd9YcICKhXDRYErkEBsSIiCFxAEQg1EFpCDSmkAOl1Jm3K74+VuQzDlHPO8+y19znn+3691kuEOWs/p+21zirPAhERERERERERERERERERERERERERERERERERERERERERERERERERERERERERERERERERERERERERERERERERERERERERERERERERERERERERERERERERERERERERERGR7KpIOwARKVlDgF2AnYFxwE5Af6Av0A/os/nv6oAVm/93EfAG8BrwOvA8sCRq1CIiIpKXHsARwE+AGUCzQ2kCXgQmAcduvoaIiIhkwMHALUA9Po1+Z2UVMBk4FI1gioiIRNcTuAh4meQb/Y7KLOA8oDbh5yoiIlL2ugEXAG+TXsPftiwEvoqmB0RERBJxKjCb9Bv8jspswjoBERERcTAMuJP0G/hcy53ANom8EiIiImXiVGAp6Tfq+ZblwAkJvB4iIiIlrQq4hvQbcmu5gbBuQURERLowAHiQ9BtvrzJl83MSERGRDowiZOJLu9H2LtOBrRxfJxERkZKxLTCX9BvrpMpcYIzTayUiIlISRgBvkn4jnXSZj3YIiIiIADCIcPBO2o1zrDIdrQkQERHhDtJvlGOXKWh3gIiIlLFDSL8xTqv8zOH1EylaOk1LpLzdDJyZ5AUG96nlkJ2Hsus2/RizZV+2GdKT/r260bu2GoD6jY0sW7OB+UvrmfnOGp6fs4InXl/C0tUbkgwLQifgJELmQJGyow6ASHmbRdj656pvzxpO2n9rThm/Dbts04/KivxuNc3N8MLcFdzx1HzunLqAlXUbvUNssQLYnbA4UKSsqAMgUt7qCEf7uhjcp5YvHj2GTx0ykh7dqlzqrN/QyG1T5nLDAzNZtHK9S51t3AmcmETFIlmmDoBIeVsN9LFWUl1ZwXlH7sAXjx5Dr81D+97qNjTws7tfY/K/Z9PQ2ORd/ceAe7wrFckydQBEytuzwN6WCrYf1odJn9uL3UfG2Vk3fd5KLrjxGeYurvOsdjawC7DOs1KRLPMZoxORYjUCOLTQB0/cdQt+/+XxbDO4l2NInduiX3c+MX5bZr6zhlnvrvWqdgCwBHjaq0KRrNMIgEh52xZ4FeiR7wNPnzCSKz+1O1WV6dxGGpua+a/fv8AfH3vLq8qFwGgg8e0HIlmgEQCR8rYKaAQOz+dBnzxoW354xp5UptT4A1RWVHD4bsN5d+U6Zsxb5VFlX8JugGkelYlknToAIvI4sCU5rgU4fcJIrjljj7y39iWhogIm7jqMVxas9poO2An4pUdFIllXmXYAIpK6ZuCcsyaOurdPj5oO/6hPjxquPG03rj49G41/i6rKCq793N6MHOqyDmF74GCPikSyLjvfYhFJzcyfH9W3e/fauWvXNwy446n5PPn6Ut5aWkdlRQXbDO7J+LFDOHafrejXs+MOQtqmz1vJcVc/6rFF8DfA2Q4hiWSaOgAiwrwbj/9aBRU/TjsOqyv+OoMbH3zTWs0qYDjaEiglTlMAIkJFc8Vn0o7Bw1eOHcuQvt2t1fQDJjqEI5Jp6gCIlLl5N560LxXsknYcHnp3r+bcI7b3qOpDHpWIZJk6ACJlr/m0tCPwdPqhI+nfq5u1mg97xCKSZeoAiJS5Cjgi7Rg89aqt5rh9t7JWsxsw2CEckcxSB0CkvOwCTAJmAGsrKqj78GX/GnfZn6fz+sLVKYfm5+QDtrZWUQns6RCKSGYpEZBIeegG/ByYDBwIDN3872qWrdnI83NWcNuUuSxbs5FDdhqSWnpfL8P69+CWR+awbmOjpZqpm4tISVIHQKT0dQPuAz5BJ1t/m5vhhbkrmDZrOcfvO6KoOwEVFfDSWyt54+01lmpmEV43kZKkKQCR0vcz8tjW9thrS7ji9hkJhhPHnqMGWqvY0SMOkaxSB0CktO0CnJvvg255eI7113PqRm/R21rFMI84RLJKHQCR0vYFCpjqa2xq5k+PzfWPJqLttjCfDdDHIw6RrFIHQKS0faTQBz766hLPOKLr19OcC0AdAClp6gCIlLZtCn3gwmX1nnFE17t7tbUKdQCkpKkDIFLaCv4ZvHZ9A5sazCfrFbPi3QYhkgN1AERK21rLg+s2NHjFEd3a9ebYi3sVpEgX1AEQKW2mDsDKuk1ecUS3qn6jtQp1AKSkqQMgUtpMHYC5S0wPT9WcRXXWKor3yYvkQB0AkdK20PLgWe8Wbxs4a5E59gUecYhklToAIqVtpuXBz81e4RVHdM/NWm6twvTaiWSdOgAipc3UiD3x2hKam71Ciae5GZ58Y6m1GnUApKSpAyBS2l63PHjpmg28OLf4RgGem7OcZWs2WKt5wyMWkaxSB0CktD0NmDbz/+2p+U6hxPO3J80xNxFeO5GSpQ6ASGlbDpiO9rtz6gLqNzQ6hZO8ug0N3P2sae0jwIvASodwRDJLHQCR0veI5cEr6zZy25S5TqEk79aH57CyzpwD4FGPWESyTB0AkdL3b2sFNzwwsyiyAq5d38CND87yqOpfHpWIZJk6ACKl736Mw9mLVq5n0j9N6wmj+Oldr7Jk9XprNSuABxzCEck0dQBESt964A5rJb/51yymz8vutPj0t1by24dme1R1B2CeQxDJOnUARMrDH60VNDQ2ccGNz3gcsuNuzbpNnH/jMzQ0uSQt+JNHJSJZpw6ASHn4Dw6JbeYuruPim6bR6NPQumhoaubiydN4a4k59z/AqzismRApBlVpByAiUTQThrU/Zq1o1rtrWbxqA4fvNoyKCntgFs3N8K3fv8Bdz5i3/bX4NvCcV2UiWaYOgEj5mAF8HuhjrWj6vJUsWFbPh3cfRmVKvYDGpma+/YcX+eOUt7yqXAx8DsjeHIdIAtQBECkfjYRpv494VPbKglW8umA1H951GN2q484mrlm3iQtufIY7p7oe2Pdd4DHPCkWyLOUBPBGJrBZ4GRjtVeHIob247px92XWb/l5Vdmr6Wys5/8ZnvOb8W7wB7AJs8qxUJMs0AiBSXhqBucBpXhWurNvEnx97ixVrN7Hv9oMSGw2o39DIL+57g6/+7jmWr3XfpfdZ4DXvSkWyTCMAIuXpXuAo70qH9O3OeUduz6cnjKRXbbVLnXUbGvj9I3O5/oGZLF1tPuGvPf8Ejk2iYpEsUwdApDxtRTjwZlASlffv1Y3j9xvBSfuPYM/tBua9W6C5ORzpe8dT8/nH1AWsqk9sZH4JsBvwblIXEMkqdQBEytcJwN+TvsigPrWM33Ewe44ayPbDerPN4F4M7NON3ptHCNZuaGD5mo3MW1rHm++s4bnZK3jyjaUsW5PIr/22TgTujHEhkaxRB6D4DQUmAOOAscAYYADQH+i9+W/WEnLBrwBeJ8x1vgxMIWx9kvL1a+C8tINIya+AL6YdhIhIPvYBfgpMB5oISV4KKU3AS8BPNtcp5acbIfNdoZ+hYi0PAj6LFEREEtYH+BrwCsndFF8GLsEhUYwUlf6E9z7tRjlWeY0wSiYikmkDge8Dy4l3g1wGXIZukuXkANJvmGOVB9D0p4hkWAVwJrCI9G6Uy4CL0aFRpa6CsBUu7YY5ZrnE5ZUTEXG2PSElado3yZYyBcfMcZI5F5D+Zyx22QDs7fHiiYh4OZGwWj/tG2Tbsgr4ZILPW9IxFqgj/c9XGmUmWu8iIhlQSViNn/ZNsavyYzR/WipqgGdI/zOVZrnJ/CqKiBhUE25Ead8Mcy2/JzQeUtyuJP3PUhaK27kIIiL5qKE4F2DdjToBxWw84dz7tD9HWSgrgJGmV1NEJE8VwO9I/wZYaLkN7RAoRr0Ix9+m/fnJUnkadWhFJKJimPPvqvzQ/VWRpE0m/c9NFsvllhdVRCRXnyD9G55HaQJOcn5tJDknkv5nxqu8QjjIx6u+BsK5GiIiiRlNOJwn7RuoV1kBjHJ9hSQJQwnH3qb9ebGUdcBfgMMJU2jVwOOO9c8noSOSRUQqyFaSH6/yCNoemGUVwL2k/znJtzQBLxK2n34E6NHOcxuJb4f69txfVhGR3H2O9G+qSZUzHV8n8ZWlbH+NwJrN/7weWALMAqYR8vT/Ajgf+BAwOMfn90nnGM/O8boiRUu/2OIaCLxO7je1nNX27sOYCUcwav8JDBu7C/233JruffsBsH71Kla+PZ93X5vO7Kcf5Y1HHmBD3VrvECCcW7AjIWugZMeOwHNAT6f6mrHdOx4DDnGKpbWbgLOc6qonHJH9qlN9IpmjDkBc3wcu9axw0MjRHPL5L7Pr0SdR07290dEP2rR+HdPv+RtTJl/LsrdmeYYD4fld4V2pFKwGeILQmHl4FDgQ25a5y4Hv+YTzPr0JowhjnOp7EdifcG6ASMlRByCevsBcnI7YrenenYlf+g4HnnEulVXVBdXR2LCJJ2+5nod+eRUNG9zuccsIc7KJDDFI3q4AvutU1xLgG8BvjfUcRlgzkoS9CR2ebk71XQt82akukUypSjuAMvIl4DiPigZtO5rPTr6TnT58NBWVhefhqaysYps992fUAYfxxiP3s7G+ziO8noROwJMelYnJeMKwuFeypk8TRhLGG+qoJ3wXGl0i+qB3COsKjnCqb3/CeQkzneoTyQyNAMTzCrCTtZLhO+3GmTfeTq+BvssIVi96m1vP+wSL3njFo7oZwK4eFUnB+gAv4Lc9czLwBcIQ+16Geh7Er3HuSCVwn+N1FgO7E7ZQipQMpXGNYx8cGv9B245OpPEH6LvFlpz+6z/Te/BQj+p2Afb0qEgKNgm/xn8WYRh8ILCHsa6H7OF0qQn4DKHh9jAUuBn9YJISow5AHJ+yVlDTvTunXXtLIo1/i37DtuK0a2+lulutR3U6YS09JxK2m3poAM4grOk4DPs9I0YHAMKv9bMIOxY8HAFc4lSXSCaoAxDHR6wVTPzSdxi6g3kQoUtb77EvE875ikdV5ucsBRkG3OhY39W8t55jorGulYQphFjuBX7uWN8PCIsMRUqChrSS15J+teDXetDI0XzpricLXu2fr431dUw6am/WLjWNoDYBWwBLfaKSHFQA9wBHOdX3DHAQsGnz/7euY/kHcII1qDzVEk76292pvjcInQDtcpGipxGA5E3A2NE65PNfjtb4A3Tr2YvDzv+GtZpKdLBKbOfj1/jXE4b+Wxr/LbGvY4k1/N/aBsJ0VL1TfWPwHVUQSY06AMnbxfLg2t592PXo+Ift7XH8qdT26m2tZpxHLJKTsYR8+V4uIWStbGEd/od0OgAQsvm5zGttdhYO63pE0qYOQPJMWcnGTDgi5wx/nrr16MkOE8zT+Dt6xCJdqgFuxS/V773ADW3+3YeMdS4CXjbWYXEj8DfH+q4jJLwSKVrqACTP1AEYtX96o+gO1/ZKySqduxS/VL9LgM/zwdXzHzbW+5926oztbMJxvx76AbcRjiMWKUrqACTPtG9v2FjTDILJFmPMI/jJ7VmUFuOB/3Ks7wI+mPBmNLCtsd5/Gx/vYQUhm6FXFsLxwP9zqkskOnUAkmeaSB+w1TZeceRt4NbWez59POKQDvUBbsEvpfdk4PZ2/r3H/P9/HOrwMAW4yrG+76DFrlKk1AFInqkRrO2dXhta27uvtQp1AJJ1LeHXuYfZdLxQztoBmEfIJpgVlwOPO9VVRZgKGORUn0g06gAkr5xfYx02lZzjCavRPTQApwNr2vlvFYQMgBb/Mj7eWwNha+AKp/pG4Jt8SSSKcm6cYllnefCGte3dk+PYsHa1tYqNKNlUEoYBv3Gsr3W2v7bGbb6eRVrb/zozn5A3wctJwDmO9YkkTh2A5Jla8OUL3vKKI/9rzzdfuyfwFmGoegIaEfBQQTji12uB5TPAFZ3891Ka/2/rz8BvHev7GQ6HfonEog5A8t62PHjR6zO84sjbuz7X3hq4CHgEWAhcTzhYpcaj8jKUZLa/9lg7AK9i/A4k7CJCel8PPYE/EtIPi2SeOgDJM+07nv30o15x5H/tpx7xrnIL4FzgfsJWs98BxwLdvS9UonbEN9vf13h/tr+2qoBDjdfI4vB/a2sJWf02OtW3O/BDp7pEEqUOQPJM2c9ef/h+NtbXecWSs43r6pk5JdG1WwMJZ7bfBSwD7gbORDsHOlJN2PLnle3vfsJoTGf2Bvobr5OF/f9dmUbYzuflIkLHViTT1AFI3kuWB2+sr2PGfX/3iiVnL/3zrzE7Hj2BjwE3E1LG/p2wKt3a+JSS7wH7OdW1BPgsXWfms6b/bSJM/RSDnwAPONVVQVikaV08KZIodQCS94S1gimTr6WxobNpWl+NmzYy5TfXRrteGz0IR8beSugM3Ad8ARiSVkAZ4J3t7xw+mO2vPdb5/+eB5cY6YmkmjEiZzsBuZSihQ6t7rGSWPpzJW0jn86xdWvbWLJ68pavRWj+P/+5XrFgwN9r1OtEN+CjwP8A7hPnkC4Gt0gwqsiSy/d2Zw9/VAgcbr5X1+f+23iXkVvA6s+AI4KtOdYm4UwcgjnusFTz0y6uY/+KzHrF0at4LU3n4uh8lfp0CVBGGpH8JLCCsrbiM0j9wKFa2v7YOwL7eoNg6ABBOQvy5Y31XAfs71ifiRkla4jiAjhOt5Kz34KGc++d/029YMj+A1yx+l+s/OZE1i3MZHc6UV4C/An/Z/M+l4nhy+7WeiyZCByrXbSXfJ5wyWKiNhPS4aw11pKUWeArYw6m+N4G9MOYEEfGmEYA4ngZmWitZu3Qxvz//k6xe5L+tetW7C7n5nJOLsfEH2JmwSO7lzeVy/G7eafHO9ncVuTf+YJ//n0pxNv4AGwhbA+ud6tueMJIjkinKzBZPDXCktZK6ZUt44a4/M2K3fei/5dYOYcH8F57hd58/gRUpZh10NISwd/08wnzudoSGyOsc+BgqgD/h14mZRthi2ZTj3/ciDINb7g+/BR42PD5tSzcXr+18exJ+BEx3qk/ETFMA8QwA5gD9PCqr7lbLhHO+wvjPfpFuPQqbqm3ctJHHf/crHr7uRzRs3OARVpYtAO7YXB7D70z4JFwA/MqprnrC8HM+C1E/Sth9YXEYxbMFsDO3Ayc71bWK0Kmb61SfiIk6AHFdAXzXs8Leg4dy2PnfYI/jT825I7BxXT0v/fOvTPnNpFL51Z+vxYS59b8R8tTH22PZtR2B5/BL+HMB8Os8H/Mj4OuGa9YTEj2VQq9yAPAiIaW1hycII1QNTvWJFEwdgLgGEPKOex3k8n+69ezFmEOPYLv9DmH42F0ZMGIbuvcJgw3r16xixYJ5vPPqS8yZOoU3Hn0wleyCGbWCkI3wDkIimPUpxlJDaCD2carvXkKCpXy3tT1LyAJYqAdwmO7KkAmEHQ1eU6ZXYFtgKSJF6lzCDVkle6We91IS9+3oDUzQlXnG21lZQmGZ6PoTfp1arv3NAq6bdZfj9940Ys+yKCJFqBKYQvqNnXeZQti2djMh+1va8VhLPSEl8RnESUk8HnvD27qcUGAcJzpce98Cr51l1cDj+L0/8wjTJCJSZkYTVqan3ch5ldXAqFbPr2XHw42E+fa047OWDYRFcWeTTEriPoS94l7xWrYP/sJ47RWU7u6ikYTn5/U+3R41ehHJjFNJv2HzKp/s5HlWElLKXkvYipd2rNbSSNhFcDF+KYlvcoxvFrYTFV8xXj/+yVVxfRzfz9PZccMXkaz4Mek3aNaSz3a1CkJWxB8TGqq0Y7eWJsKiva8R8g0U4gTHeBoIUwmFGk54TpYYLjJcv1h4dtjqgJ3ihi8iWVBBOJM97YbMUqYRDu0pxDhCPv9nM/A8PErL+QQ75/j8hxIOoPG6/uU5Xrcjn3aIYZwxhmLQC3gNv/dtOuEUTBEpM5WEo2/Tbrws5QqH12EUYVj9Mey/QrNQZhGmPQ6m/e22FcA/Ha83jbD2wmKyMYZFHTzXUrQXYW2I1/s3KW74IpIV1YTUr2k3WoUW69BzW6MIw+pPUjqdgR8Rpj9aGsgLHOuvIyQQsppjjOMPDjEUk0vwew+bgKPjhi8iWVEB/D/CIrO0G6xCGznL4rOObAV8iZCxz3ObXFplPnAdodH2qvOCgl/d94xyiOMLDnEUkwrgfvzex0UUlrtBRErER4FlpN9QFVImJ/B6tDaIkKTnbnyHX4u5/C8+w+5nO8RS6ELIYjYUeAe/9/MBdEqrSFkbTZgLT7txKaScmMDr0Z4BhM7AnYSkPWk/7zRKodn+2vMHYyxznOIoRkfjO1X1tbjhi0jWVBKOtF1C+g1NWo1SrnoDnwD+DKwxxF5spdBsf21VYP8Vm/ToT9ZNwu993YDtLAYRKRH9gP8h/cYmn3Iv6a0G705ppSSO0eCOc4jn047xFKNa4Hn83t/XCR1bESlzF5N+g5Nv8ViYZtWSkvgGwgKrtF8Tr7KW96detvqSMZ4mQhKhcrcTvos7b4obvohk0W0k15i8Qtiith9woWO9XlvTvFQBhwE/pzRSEjcQjqj9IvaUxH83xvKy8fqlxGMxZetyatzwRSRrrAfF1AFvAU8T5skvA04GtmhznQrC8L3XzesZ7MlpktCSkvhHlEZK4kZCSuJLyH8lfhX2A25+kec1S93t+L23KwmHEIlIGRqEfYXxR/O4nnd6Wo8sgUkr55TE+zpcL9bOj2LRH5iL3/v5NNnsSItIwo7GdvNoInQi8nG88ZqtSyNwaL5POkXllpL4m8b6G9C59u05BN/EVdZzHkSkCF2G7cYxs8Drep54NhvoW2AcadqW9zoDxZqhsXWZwwc7A9ZMds8U9tKWhcvxe+8agQ/FDV9E0nYPthtHofnZ++A7P17s+8S3Iiy4+w+lkZJ4HmHvunXV+o8sL2qJq8Y3odc8NNoiUjYqsCcCuthw/fH4NnanGGLJkoEoJXFLOdL4Wpa6rfFN7f23uOGLSFpGY79hHGCM4UqHGFrKEkpvv3h/QsfmFsorC2EzofPTy/4SlryP4/u6nx03fBFJw6nYbhQbgR7GGGrwXR2fZpbApA0jbNtKu2GOVR71ednKgueamjpC0iERKWE/w3aj8FqgtT2+v26zkCUwCZNJv1GOWS5zedXKQy/gNfxe++nYO/cikmHWBUTXOcZSylkCPZxA+g1y7PJjYIjHi1cm9sZ3zcikuOGLSCw12I+5/YxjPBXAP43xtC7TgG6O8aXJO3lSMZVGQkf1YmCE9YUsA1/D77VvAo6NG76IxLA39huE9zxhOWYJ7Ip3x6jYS0sWwjGG17SUeX9eFlN6C2tFyt552G4Mq4DKBOI60RhX69JA2GpYzM7H7/WoA35IaETTbsg9ynPAd9CCtbaG4Xs65f0k810XkZRYVw3/O8OxtS6zCEmHitGO+B7/en6ruscSGs9pjvWnWV4kbF9TTvvgaHxTTX8tbvgikqQZ2G4IVycYm7IEhoZsKn6vwT10vD1yO8IN/gmKPyXxVHS6XQvrLp/WZQNh2lBEilwf7Df6ExKO8SB8swQW24lyV+D33BcThoVz0ZKS+CGKNyXxnM3Po9zVAs/j97q+DvSO+gxExN1E7DeDLSPEWa5ZAr1TJH+8wDiKOSXx/xb4nEvNDvjm2Lgpbvgi4s16ROv8SHGWY5bAPsCb+D3n3zjF1R84A7gT+/bRWOVwp+de7M7G93U9NW74IuLpb9huADEPDBmL70K4rGcJ/A1+z/VNkhmy7Q18AvgT2T6f4NYEnnuxuh2/13UlWmchUrQWYLsBfCNyvJ5ZAtcB4+KGn7Pj8Xuem4ADI8TcnZAs5gZ8t555lJkJPu9i0x+Yi99r+zTacSFSdLbE/uX/UOSYKwjD9143r2fI3s1rGPajmVuXy+OGD4TkPGk3+q1LXYHPYzDwMeASQgbCYwjrIYrdIfiuLUnjMyYiBtac8o2ks69+OL4NZJayBHp3cKaSTgfnCwXGm1RZkWf8WxGmDda3U1cDIffFhcRZAJuU7+P3+jYAE+KGLyIWV2P70s+IH/L/KdUsgRfg97zSPAjpDznGGKtMySP2jxCyW+ZSbyPwOGGEYLs8rpEF1dgPAWtd5lEaoyMiZeHf2L7waW8DKrUsgUlm+4upguwdWPSdHGM/gPZ/9edapgHfJixYLQYjCaMjXq/z7VGjF5GCVJL7r5yOynnRo36/UsoSWENYj+D1XDrL9pe0XXKMMVZZQ25HCdfiu+1yBmFufI/cXrbUfBLf1/ucuOGLSL52xv5F3zN61B9UKlkC08r2l4SLOogr19JEmJJpSUlszWOfa4N0hvE6nZU3CYcv7U828094jqbV0f6hTEOBkwif9T8SOrxzgeXAxs1lOTCbMJLyB+BS4OTNjxURJ5/F9iWvJzur572zBMZuPL2z/SWdmrkrd2KL/+U29VlSEl+ZR9yxjlqeB1wLHApU5RFfknoT0vt6PccXCCMq+wD/DbxmrK8JeAn4yeY6RcTgOmxfyMfih9yhYs4S6D2N4ZXtr1BV2OeUf9FJ/UMI2ezuo/OUxAvJP+1xGrkLFhHyJhxB+h3qvfBN87zcsa625WXCwsu01+2IFCVrg/nT+CF3qlizBE52jDmpbH/52Bf788h1GqY/8Cngl8ADhJz/vyAMM3crIPa00xovB34HHEdIqpSGSzqJL4tlGXAZMCCB10KkJHUnzLdZvnhZzAHumSUwxha6UtzKaD1booH0buaLc4wxRllNSK98CnE7dRWEjlTazz/fshg4i2yurxDJlAOxf+FGRY+6a8WUJdA7219Wkhndj+15PBs/5P/zQCdxpVnqgb8TFin2T+zZv2cY2UvlnGuZAoz2f0lESsdXsH3JFscPOWdD8d2DnkTDWoHvgrNppD9/DGHYfS225/LD6FG/J2vZC9srDYT1NxeT7GLVj2LffZFWWUXY2igi7bBmabsnfsh5yfrQeqlk+2trAvbn89HoUb+nJ2ELWtoNWD6fzYcIOyS2SuD1+FkGnqOl/BhNCYh172ThAAAgAElEQVR8gDXZyffih5w3z8V1nlkCi3WxYi6sueU3AL2iR/1+h+G7Ej5WaSLkTPgafimJa4HnM/DcLOVWsjE6JpIJg7AP7R0VPer8ZTFLYCll+2vPFGzP59H4IbfrROxTGWmX5wjpj9tLyJMP7w5rGuVu1AkQAULjbfkyNRE6EcUga1kCiz1hUWd6Yf/lfFnsoDuxA2HhXSPpN2DW8jJhLUuhmTvPzsBzsJZbyFZnWSQV38P2RZoZP2STrDS63p2RtLP9tfVR7M8pi8fJjgS+DjxJ8S6Ka11mAT8iHHqUT4P4XAZit5Y0F5iKZIJ1m9zv44dsUg08jd9N5H7y/yXRC3jDMYa0s/2150fYnlMdYc45y4YAZxKGlK15NLJQFhN+GR9L50PkR1ManZ9mQpIokbJUgX3v+cXRo7bbnnAinNdNJN+Fd6V2bHF7pmF7Xv8bP2STQbzXGSjGRYNty1Le6wy0zqK4Fb75KtIuK8hmDhORxI3C/gU6MHrUPtLKEpj1LYkeBmKfK/9m9Kj9DCB0Bu4E1pF+I2cty4GbgeOBhzMQj3d5BK0HkDJ0GrYvzkagR/SofSSRfKerfPND8c2odrnlBUjQSdifW6mc8NaD8Cv6FkJCmrQbO5X2yxkdvYGSDPW40vdTQhbAQk2juG/UwwlHig52qu9K4P918N8qCNv0vLZMPkv49b/JqT5PvySMsBRqJeE9afQJJzO6A0cSOkjHogNrAKiu7cHQMbsxaNRY+g7bmh79B1PTvScAm9bXs27lUla/O59ls19l8Rsv0bBhfRJhLCKM4q1KonL5IHUA0vcYYTV6oX5NthLPFOJE4A6nuhoJK9efaOe/XUhoGD3UE45qfd2pPm+vYNtv/g+yt6vBWw0wkdAZOIEwOlRWeg3agtGHHM3wXfejqia3wxobN23k7elPM3vKfdQtW+Qd0qVk5wyNkqcOQLpqCL1dyxD+WYTjSovdZOBzTnXNBvYgLDJsMZYwWtLT6RoXAtc51eVtOLAQ2/f7IsIxvuWiCjgYOJnQIR2RbjjJqqrpxpiJJzDywI9QUVlZUB3NjY3MefJB3njoTpoa3AbBlhG2ea71qlA6pg5AuvYiNEoW4wi/9opdH+AF/FYD3wR8fvM/1xD2jO/tVPd9wDGEecss+jT2raG7EJLVlKMKYH/CyMDJlNgK9V6DtmCv0y6kz1CfowpWzp/NtD/+kg1r3UbuLyFMjUrC1AFI13mEIfxCrSbMYTb5hJO6gwirgauc6juJkDnuSkIKVg9LgV0JpxtmlXU05V1gS7LbwYltD0JH4CRg55RjMek7fBv2O/OrdOvlu2t1/eoVPHPrJNYsWuBR3QzCd0wSVtjYj3jZz/j4Zymdxh/gceAax/puJNy4v+VY5zlku/GHMK9t8R/U+Lf2AmFh6TjCuorvErLwFZVeg7ZIpPEH6N53APuefjG1vft5VLcLhadIljyoA5AuawfgaZcosuX7hI6Nh8HA7fiNKNxEGFHIslGEOVSLhxziKFWvAT8gTCeN4v0piTOrqqYbe512YSKNf4vu/Qay12kXUlld7VHdaR6VSOfUAUhPH+yngk31CCRjNhH2A9enHUgbs4Evpx1EDqy//kEdgFzNAf6bsBV0G+BLhNGTzG2dHDPxBLc5/84M2Ho0oycc41HVRzwqkc6pA5CefbC//qXYAYDwK+sbaQfRSiOhU7Kmqz/MAGsHYC6hsyP5WUjYYjqRsAvjbEIq5Y1pBgVh6H/kgfHa01Hjj/SYCtgNv9wg0gF1ANJjHf5fALztEUhGXUdYbZ8F19B+XoGsqcDeAdCvf7slhMOhjgK24P0piaMbfcjRBW/1K0RVt1p2OOxYazWVZPMkypKiDkB69jc+vhTn/1trBj5LyA6WpufIbrrftsYRGhyLf3sEIv9nJXArIbfAIOC4zf9/dYyLV9f2YPiu1t8a+dtqj/FU13a3VjPOIxbpmDoA6dnX+PhnXKLItsXA+Slev56wpz71YdwcWX/9NxPmsCUZ6wgnFZ5J6KgdRzjgZ3lSFxw6ZrecM/x5qupWy5AddrNWk+vhXlIgdQDSsSX2TGOlOv/f1t8Jq+/T8HXCeoRiYe0AvAq84xGIdGk9oTPwWWAY4XyCG3Ae8Ro0aqxndbGvPcYjDumYOgDpOMD4+CbsGQSLyUXAzMjXfABbkqbYqrDPmWr+Px2bCJ+38wg/Dg4Bfgi8aa2477CtrVUUfu0tzNfWIsCEqQOQDuvw/6tEmkPMiDrCmQextlctBT5DcSXD2Qv7yXbqAKSviXBA2LcIv4BN22F7DBjiEVNBeg40t9/JJS0QQB2AtFgXAD7lEkVx8c4S2JkLyH62v7Y+bHx8IyENs2RHM1BrqcBhIZ7h2uZzt9QBSJg6APFVYj+UphwWALbnMpJf+zAZ+GvC10iCdf7/eRJcjCYFy3SGwYSpfUqYXuD4xgJ9jXWUywLAthoIQ/NJZQmcDXwlobqTVEs4SMlCq/+zqc7y4IYN673iKODa5q9pKnkTyok6APFZN+WuI5yWVa5eI6zO99ZI2J5VDNn+2joAsI63av4/m0wdgPrlS7ziKODaS61VFON3saioAxCftQPwHGHVcDn7Nf5ZAq8hrDMoRtbh/43AFI9AxN1Cy4PXLJrvFUfeVr9rvrbpuUvX1AGIz9oBKNfhf+mYtQMwFeMvTUnMXMuDl81+1SmMQq79irWK9HovZUIdgLh6EA65sFAHIGQHPMq5zm9hn0dPQ2/snUql/82mMYDpCL/Fb7xE46b4iSwbN25g8czp1mpe9ohFOqYOQFx7ADXGOsq9AzAW+HEC9VYBt1B8W48OBqy5XjX/ny0TgH8Q8n2YOqUNG9bz9vT4x4YsfOkpGjdusFbzokcs0jF1AOKy/lJbQnkf1VpDOEjFvMG4A6OAaxOqOynW4f96Sv9gqWJQDXySsMX3EcI5AS7359lT7qO5MVYOLWhqbGD2FPMSnWaK4wTOoqYOQFzWBEDluv+/xfeAfRK+xlmEk9uKhbUD8Bhg/qkmBetL2Hr6JvAnEvh81y1bxJwnH/SutkNzHr+f+hXm3QevU3zJuIqOOgBx6Qjgwo0nzNPHcCMwPNK1LAYCexrr0PB/OoYRElvNBX4KbJvkxd546E5Wzk9+8HDFvDeZ+fBdHlW5VCKdUwcgnkHAdsY6ynX+vw9h6L8q0vUGEzICVkS6XqEOw/4dVgcgrr2A3wPzCCNa1vMbctLUsIlpf/wl61evSOwa61Yt57k//YqmhgaP6u7wqEQ6pw5APPtha1CaKd8pgEmE+fmYjiKcCZBl1uH/lYS8EpKsCuAYwm6LacCnsS8GztuGtat45tZJiXQC1q9azrO3TmLDWpczyl6lfH/sRKUOQDzWBYCzgGUegRSZE4HPpXTtHxF2HWSVtQPwCPFOWCxH3YGzCdvZ/on9/TJbs2gBj19/BSvmz3Krc8W8N3n8hitYs9gtb8+NFNdJnEUr60OcpeQe4GjD4/9A+OVQToYB00n3XPBpwIFkL/vicEKmNMt3+GLg5z7hSCuDCaNHFwJDU46lXZXV1YyecAyjxh9JVbfCDhxsamxgzuP3M/Phu7yG/SHsdBqN0gBHUZ12AGVEGQDzUwHcRLqNP4STG78HfDflONqaiL0Dr/l/X2OArxLOlOiRciydampoYOZD/2De1IfZ4bBj2WqP8Tl3BBo3bmDhS08xe8q91K8w5/tv62rU+EejEYA4RhGG8C3GA086xFIsLgB+lXYQmzUCh5KtswImY5saWUQYRdBQq90E4BLgYxTptGpVt1qGjtmdQduNpe/wrek5YDDV3UO6jYb19dSvWMrqd+axbM5rIbugPclPe+YTOlHpHWEokoBTCTfaQstGwnxiuRhLyE1vec28yyyylSVwDrbn84f4IZeUasL3+hnS/2yWSvl8Xu+ASJH4KbYvxrPxQ05NDdm9qd6U4PPOxyjsz+UL0aMuDS2Je+aS/uexlMr9aERaStTj2L4cv4wfcmp+gN9NZQlwMtDgWOcpyT31nJ2N/XnE3lZZ7FoS9ywn/cay1MpiiiPxlkjeagj51i1fkM9Ejzod4/FtrD++ud4rHetcQvo3qz9iew5zo0dcvPYgHBK1kfQbylIsTYRzD0RK0l7YvyQ7R486vj6EeXavG8vkVnXXEKZRvOq+l/SGKysIOdK9Xhv5oJbEPQ+RfgPZtjQS0uQeSlgxn3Y81nJVju+JSFE6H9sXZCVFurI4Tzfhd1OZzQcX7G1P2F7kdY0LXZ997nbJI8aOSrnlk8hVLWEL3wzSbxjblvWEkYjWPwZatsqmHVuh5SY07y8lzvoF/Vf8kKM7Eb+bSgNhKqE9Fzpep450sgReVGC8LaWJ9KcwsmYIcClha2TajWLbsoiQh2JIB7HXEEYE0o4z33Ib5fHDRsqc9ddEqQ+RDSPMq3vdWK7o5FoVhOF7r2s9S/yc7ncaY34lcrxZtiNwPfY1OkmUVwmLPXPZ/lsD/C4DMedabiOFsxBEYutDmLOzfFlOiB51PN4N8jN0fWMZjm+H40rLC5CnKmCFMd5y2lHSkUOBf2D/biZRHiIkFMp3aLwCuCYD8XdWGoFvFvDcRIrSROxfmi2jRx2P95D8jjle93jH67ZkCYxhP4d4T4wUa9ZUAscCT5B+Q9jeZ+hu4ACH53kC4dCwtJ9T27Ka8L0TKRvfxPalmR8/5Gi8s/3le3TvZMdrx8oSaP08NQIDI8SZJX0J+fnnkn4j2LasBH4MbO38nLcBHs3A82sp96G8E1KG7sD2xbk9fshRVANP43eDKSSLWC/gDccYYmQJfMAYYzlllMxy4p63N8c2IKHnDuH7cArwVsrP88wEn6NIps3H9gX6ZvyQo/BOzDOswDgOwjfxUJLD67XYR0x+lGB8WbEXYZFZFhP3PEM4PyDmKay9gcuJ3xFaRhh9ESlLW2L/Eh0WO+gIksr2V6hiyRJ4qEN8H00otrRVAIcT5tGbSL+hb10agQcJ6w/S1J34OQ5Kef2SSKdOwn7jKLUetPew+28cYsrCdEQuvm+MawPh12ApKbbEPVkxjjAF4Zkds72ShXMzRFJhTdM5I37IicvqwjvvBYlJZAmcYoxpSgIxpaWYE/dkzTDgKODbwF+Bx4DX8NlJMCni8xDJFGsecY9ft1lyAn432UZggnN8FzjGt46QstdLL8IveEtMlznGk5bRwLX4dta8ykzgYqBnYs8+vluwvSbltOhU5P9UAquwfXnOjR51cobi+2vt8gRirAD+6RjjNKCbU2xHOcTj3WGK6WDgL/iuHfEqjxGGuqsSe/bpORfba7OJONtjRTJlHPYbyx7Ro05GEg1rUmlEh2I/aa918coS+GNjHHWE+fJi0pK450nSb+TblpbEPfsn9uyzweM+dnj0qEVSdhb2G3bMrUJJSivbX6GymCVwmjGO+x1iiKUPYSh9Luk39G3LasIUxDZJPfmMqcC+FuCy2EGLpO3X2L40pbJgy3tx3fmR4vZcrDgb226Ogdhz1hdDPolyT9yTVXdje+0ejB+ySLqsv9h+Ej9kd8Wyva49WcoSaN1O2gzsa7h+0vYgLDbLYuKe5wjbDMv55LpvYXsN11A6o5kiXeqO/Wb2yehR+/sBfjfiJBPsdMQ7YVGhe6J/abzuCrK3QE2Je4rHwdhf072jRy2SkvHYvzDbRY/aV9ay/RUqC1kCXzFe9+8FXDMpStxTfGoJ21otr+3F0aMWScnF2L4si+OH7KoPIUmP1415ctzw36eGkL/d67ncywenMYYRzhD4AfAnYCowjzAXvsnhmhd5vRgGQwjJcbKauOdSiidxTxoew/Ya/zl+yCLp+AO2L8s/44fsKqvZ/gqVRJbA/QgH83iuM+ioeCYkyteOwPVAfTtxpV1eAc4mTNlJ567B9lovjB+ySDqsv34vjR+ym6xn+yuUZ5bAmGUR8RZOtqbEPaXlWOyv+6joUYtENgj7oqYjo0ftoxiy/RXKO5lRrPKHJF6MDihxT+kagH0r6pnRoxaJ7GhsX5ImQiei2BRTtr9CeWcJjFGWE9akVCbwerRQ4p7y8DK29+KG+CGLxPU9bF+SmfFDdlFs2f4KdSLpN2qFlIeB7Z1fi60JKYpXZuD5tS1zga9Sesdpp+kGbO9JKZ5uKvI+92D7ktwWP2Qz70VyF8QNP2+eixxjllXAyQ7Pfy/C5zSLiXueAU5FiWeScCa296YJ6BE9apGIlmD7khTbftkY2+SyxnubY8zSRPjVnu+UQAXwMexHXCdRGoF/4HPmgnRsFPb3KqsjeyJmo7F/QQ6IHrVNsWf7K5R3oqPY5TZyW2OhxD3S2kJs75n3NJRIZpyK7cuxgeLak3wQvo3giXHDN7uC9BtBS7kL6NbBc1PiHmnPXyj8fdsE9I4fskgcP8V2Y3s2fsgFK6Vsf4Xynv5Io/ye90+5KHGPdOZ0Cn//Hk0hXpFoHsd2g/tV/JALVmrZ/gr1K9JvGK3lGsL8+V3Y93onUR4CjiH7a0PKQR9CqvJC3sdTU4hXJIoa7L+aPhM96sJ4boVrIMynF6NPkn7jWKplI2F0Yq+c3w2J5Szyfz8fRZkXpYTthf2mt1P0qPM3DPtOh9blirjhuxkDrCX9hrLUykrCLoWtc38rJAU/I/f39A2KZ3GvSEHOw37jSzJbm4cKwjY9r5v9M2Qv218uKoFHSL+xLKUyF/gKStxTTL5E1/k/7kaLNaUM3ITtBviv+CHnrVyy/XXlfNJvMEulKHFPcdsCuAx4ClhG2Mk0E/gtcFhqUUnOtLDGxwxgnOHxVwPfdoolCWMJ+fl7OtV3IXCdU10x9SUsWhzsXXHv6mo+PGwYBw0Zws59+zKiZ0/61YQBklWbNrGgvp6XV63i8aVLeejdd1nb0OAdQixNhHMjfoJWhoukSh0Auz7Yh/BPBO70CcddDfAEsI9TffcRVnU3O9UX0xXAdz0rHNW7NxfssAPHjRhBj6rc1kmta2zkHwsWcN3MmcxZu9YznCStIyTu+SlhXlhEUqYOgN2HCFuVLLYC3naIJQlXAt9xqmspsCvhVL1i0w+Yj9OWxe5VVXx9p5343OjRVFcU9jVsaGriN7Nm8d+vvcaGxkaPsJKwmLBd8jrC+y8iGaG5N7v9jI9fQHYb/4OAbznWdw7F2fgDfBanxn+73r35n/32Y8e+tjVv1ZWVnLfDDuw3aBBfmDqVJevXe4Tn5VXCavFbCWl7RSRjsr7yvBhYOwBTXaLw14cwZOu1f/cm4O9OdcVWQVi3YLZLv378/ZBDzI1/a3sNHMg9hx7KWMc6DR4iHBw0Dvgf1PiLZJY6AHal2gGYRDgBzMNs4MtOdaVhX2AHayXb9e7N78ePZ1BtrUNI7ze8Rw9uPvBAhnRPJVPuJsIBQ3sDH+a9Y7FFJMPUAbDZEhhhrONpj0CcnQB8zqmuJkL2sDVO9aXh49YKaququH7ffRNp/Fts2aMH/7PffnSrjPa1XgP8nHDK2+nAc7EuLCJ26gDY7G98fCNhe12WDCMM3Xq5iuLf7nW8tYJv7LQTO/fr5xFLp/YeOJAvjRmT9GXeAr5K6PxeDMxL+oIi4k8dABvr8P+rZOuXcQVhrt5rn/uzwOVOdaVlC0Lq34KN6t2bz40e7RRO187efvukpgKeJSTu2Z6wwG91EheRonc4cDPwJuFch5WEkc7vE75PkhHqANiU2vz/BcBRTnXVE4aFNznVlxbzYUUX7LBDwVv9CtGrupqv7OiWaLGJcFLgoYS1EH8mHOIk0tZQQrrwB4EzgdGEPCL9CPfKSwnrgS5KK0B5P3UACleJPTlOljoAY4EfOdb3deB1x/rSsrflwb2rqzluhHWZSP5O3mYbelWbd/k+Tjik6niKfxpHkjUCeJKuf0D0BK4lLDKWlKkDULix2A8vyUoHoIawX9sr1e99wK+d6krb9pYHf3jYsJwz/HnqWVXFxC3Mo60LUNY+6VoV8Cfy2zV0MWFxsKRIHYDCWYf/64HpHoE4+B5+qX6XEnYQlMo2MNPk/UFD0jsMzeHaIx3CkNJ3KiFpWL6uAXo7xyJ5UAegcNYOwPNkYy5V2f46N8zy4J1TTM7jsOtgS484pORdUODjhuKww0YKpw5A4UphAaCy/XWtl+XBW/cyPdxk657mGR39OpOu9MG2HVodgBSpA1CYHsBuxjqykADoWvyy/c2huLP9dcTUCPaxL8QrWN/NxwkbpNd7kWKxFbYfEId4BSL5UwegMHsQFs5ZpD0CcCJ+i3AaCVv+spTTQOxKZR2HJMe6v3UYfj9CJE/qABTGmgFwCeEXc1qGATc61nc18IRjfVmyzvLgNQ3pLfNYvcmcgkEdOunKW9g7igd7BCL5UwegMMU8/69sf/lZa3nwvLo6rzjSuLYy/UlX6oFXjHUUsoNAHKgDUJhi7gAo219+Flge/MqqVV5x5H/t1eb2e5lHHFLyHjc+XiMAKVEHIH+DsM9ZpdUBULa//M23PPjxpUu94sj/2kuWWKtQEiDJhbUDsBMw0CMQyY86APnbH9vCl2bgGadY8lFNOKDDK9vfA5ROtr/OvGp58L/ffZe6FNYB1Dc28p9Fi6zVvOYRi5S8x4yPr0DTAKlQByB/+xofP4t0hlYvwz510WIp8BnKY5X485YH1zU0cPfChV6x5Ozv8+d7dDxMnR8pG7OBt411qAOQAnUA8leM8//K9lc4c76G62bOpKGpySOWnGxqauK6mTOt1TQDUxzCkfKgdQBFSB2A/BVbB0DZ/mwWYlzlPGftWn4za5ZTOF274c03PXYAvAQsdghHyoO1A7APUOsRiOROHYD8jMK+fS52B2ASfok2ZlOa2f460wOHhvC/X3uN55Yvdwinc88uX87PXnOZuv+XRyVSNqzrAGqxT69KntQByM8BxsdvAl7wCCRHJxBO5vPQRMgcWE7JYSYS1gAcZq1oQ2MjX5g6lbfXmfIKdWrR+vWcN3UqG32mG/7oUYmUjRew3xs0DRCZOgD5sfZQX8SYWS4Pw4D/cazvKuBRx/qybEvgL8C/gR29Kl2yfj2fefJJ3kmgE/D2unV8+oknWLR+vUd1M4BpHhVJ2WjEvl5mvEcgkjt1APJTLPP/yvZXmCrgIsLq91OSuMBrq1dzzCOPMM1xOuDZ5cs55uGHed2e+KfFXV4VSVmxrgM4CPvZApIHr4Vh5aCGcHqe5RCgXxFGAZJ2IXCxU131wJGU/oKwvYF/EKZMEl2MVN/QwB3z59Pc3MxuAwZQU1lYP3xTUxO/njmTS557zvvMgf2B5aSTr0KKVzVwpuHxPYC/Es5KkQjU28rdXtiHRXcm+b3VYwlxeiX8uRC4zqmuLOoLXElIkRy9Qzyke3e+suOOnLzNNvSsyu3y9Y2N/H3+fH71xhvMr69PMrxbgfMInUCRrvQGVhA6AoU6F9+DyqQT6gDk7jxsme9WEdJdJrkhvIZwKt8+TvXdBxxD6Sb8OYWwS2LLtAPpVV3NxC22YPyQIYzr14+te/akX00YbFq1aRPz6+uZsXIlTy5dykOLFsXMLvgScDLwZqwLSlF7ljCaVqhbCEnGRDLlt4SGsNDyYIQYf2CMsXVZAgyPEHMaRgH34vdalXpZTegEiHRlErbPWryEGSJ5eBnbB/sHCcc3Hmgwxti6fDzheNNQQ1gbsYb0G9ViK02ENTCW4V0pfadg/6yNiB61SCf6ELa5WD7UxycYXy/CyW1eN/vfJBhrWg4hbG9LuyEt9vIwYYupSHuGYf+MJbIDR6RQE7F/qJOcZ77JIb6WMpvQ4SkVAwi/XK0dOJX3ygLgwHzeBCkrs7B9vibFD1mkY/+F7QM9L8HYTjDG1ro0AhMSjDWmCsKWpMWk32CWYtkEfDPnd0PKyc3YPlvPxg9ZpGN3YPtA/zWhuIYCi4yxtS6lkuxnDCGXfdqNZDmU3xOmoERanIPtM9VAaY1CSpFbgO0D/Y0EYqoA/mmMq3WZhi3JURb0AC4D1pN+w1hO5RVgp67fHikTO2P/TB0ePWqRdmyF/cN8WAJxXegQV0upwzHnfUqOwj73WEhZCJwG3JbCtbNUVgDHdfkuSTmoAJZh+zxdFjtokfachO2D3Ij/cNZYQqPtdfM+3zm+mIYTkofEbvAagRsImQQh3PQuSyGOLBVtFZQWd2H7LMXImyLSpauxfZCnO8dTQ8jR7nXTvpfizAjZcnDPKuI3dM/ScbbFTxB+DafdGLctqwi5KGLE9i9gSAevj5SHb2L7DK1BHUnJgH9j+yBPdo7nSmM8rcsSinNP9z6ERjiNRvQiuj4zYFvC0cmx4+uoTAG22xzb9oQDqZK+5jzCoUJSng7C/hmypBQWMavE/gvzHMd4yj3bXy/gGnxfg1zL3cDWecTasg3xnRRibSnLCJkP2x432J2Q7Cnp62urYPmqBdZh+/x4nWgqUhCP1ax7OsXSB99Fbt4jE0k7hbDgLnYjOhs42hB3X+D72BdF5dvwXwr06yK2C4ANEeK5Bb/TKaV4TMH2uflL/JBF3vNZbB/gOvzmsSYbY2ldZlE8+2zTOrhnI3AVfg1Xb+ArhC1zScU8gzBFkc97uz9huD7p1/NFwvSDlA/r+qm344cs8p7rsH2AH3OK40RjHK1LA2EqIeu6Ad8mnEUfu/F/FBiX4HPbE/gx4ajdJmOs0wk32gMM8QwhrLpO+nXVVsHy8jHsn5lR0aMW2cy60OynDjEMIyzW87oJX+EQU9ImYD99sZCyFPgccXdFDCZ08C4l5BKYShihWU4Ynt+0+Z/nA08BfyS8h8cCWzjGUUUY8bB2SLoqTZuv09VCSil+A7F/ns6MHrUIIavcRmwf3k8aYyi3bH9pHdzTRJin1tY1OIbQ4Uj6NX+Y4tyBIvmxnsB5Q/yQRXy2sYw0xlAu2f7SPLjnDZR2tK1YWwV1qmDpux7bZ+Tl+CGLhAVblg/uYuP1yyXbX1oH99QTMvfVJv4Mi4t3gokAACAASURBVJO2CoqHM7B9PpqAQdGjlrL3B2wf3LsN164GnjZev3W5n+xl+0vz4J6HyO5oSNacQ5ytgjpVsDSNwv7ZODZ61FL2rHvu/5/h2j8wXrt1WULIl58lE4HXiN/wv40WFRVib2AOyb8/OlWwNM3H9rm4Jn7IUs4GYV+9emSB1y7lbH9ZObhH8jeYMJKU9Hu1Cjg50nOSOP6M7TPhtZ1aJCdHY/vAFjpv1YuwKM3rZvqbAmJIQiVhKDmNg3ueRznpvVQRpm2S3qWhUwVLy0XYPg/rCWtSRKK4DNsH9o0Cr3uT8bqty2yyke1vT3zXM+Ra1hIWl2m/uT9tFZR87I39s3Bw9KilbFlTz95awDVPMF6zdWkkJNNJUzEd3CP52xbfY6k7KtoqWPyqgNXYPgfaKSJRVGDPvHdRntccCiwyXrN1uTzfJ+3sWOLkl29brAf3SH60VVBy9QC2z8Bd8UOWcjQa+w0rn7zspZTtL82De64lHLgj8Z1JnDMbtFWweH0P23u/nA8eay3i7lPYG6MeeVyvFLL91RDO7l6TZ7weZQrJHtwjudFWQenM4djfe33PJXE/w/YhnZrHtUoh298h2PN9F1KWEzod+lWQHYPQVkFpXy/CVI7lfT8netRSdp7A9iH9ZY7XKfZsfzq4R9pTQZiv11ZBact6uurN8UOWclKDfS4z10xzxZrtTwf3SC60VVDamoTtvZ4VP2QpJx77VcfmcJ1izfang3skH9uirYLynlOwv9cjokctZeN8bB/OlXQ9J12M2f50cI8USlsFpcUw7O/zKdGjlrLxW2wfzgdzuEaxZfubCLzuGHOuRQf3lBZtFRSwH7I2KX7IUi5exvbhvLKL+osp258O7hFve6GtguXuZmzv7bPxQ5Zy0Af7yuXjO6m/WLL96eAeSZK2Cpa3c7C9rw1k44wTKTETsd90tuyg7mLJ9qeDeyQGbRUsXztjf1+1E0jc/Re2D+VbndSd9Wx/OrhH0qCtguXH46yVy2IHLaXvDmwfyr92UG/Ws/3p4B5J07Zoq2C5uQvbe5nLYmuRvCzA9qH8ejt1Zjnbnw7ukazQVsHy8k1s7+NaNK0jjkZgv7kc2k69Wcz2p4N7JKu0VbA8HIT9Pdw7etRSsk7C9mFs5IMrU7OY7U8H90jWaatg6asF1mF7/y6OHrWUrKuxfRhfalNf1rL96eAeKSbaKlj6pmB77/4SP2QpVQ/h20BnJdufDu6RYqWtgqXN+qPrnfghSymqxJ70pvU51VnJ9qeDe6QUaKtgafoY9vdsVPSopeSMw/5B3GNzXVnI9qeDe6TUbAtMJfnPr7YKxjMA++iOzgoRs7OwfQjrCMOHWcj2l9bBPe+gL6MkS1sFS491QfIN8UOWUvNrbB/CRzfXk2a2Px3cI+VCWwVLx/XY3qOX44csxWQIcATwJeBXhAxSLxGOpFwObMB+o/gJ/tn+Lsjx+VUBF5HOwT3PAvvkGKeIp/2Jk73yRWD7SM+pHJ2B7f1pAgZGj1oyqyfhRL5JhIa+ieRvEqfjm8r0XnLL9rcPoRGO3fCvInQ6dHCPpGkIoUOf9Od9BXBcpOdUbkZhf3+OjR61ZEolcDBhKDqNX8K3OdaVS7Y/HdwjEmirYPGbj+29uSZ+yJIF3QkH48wifkPYung2xCd28Zw/ASxM4Tnq4B7JsuMIv9ST/h48iJJaefsztvdkSvyQJU09gUuAt0m34fcukzt5zqOA+1KIaSNw1ebXXCTLtgdeIPnvxDzCGgTxcRG292M9yjlSNo4lTp7w2KWjbH8tB/esTSEmHdwjxUZbBYvP3tjfj4OjRy1RbYv9DOmslgbCwUFtTSBsc4kdz1Lgc/gdOywS2/nESYR1Cxods6oGVmN7H9QZK2HHEycVaFqlbbY/HdwjYqdTBYvHA9jeg7vihyxJqyU0hDG28qVVWmf708E9Ir50qmBx+B621385Omq8pAwEniD9BjrJ0jrb3zhCRsHYMdQD3wa65fCeiBSjKuAHJP9DomnzdZQfI3+HY3/9tV6pRAwnZOBKu4FOupyPDu4RiSXmqYJbxHlKJaMXYWGl5XU/5wO1StHZEXiL9BvnpMu9hBvS7BSuvZCQT0Ck3GirYHZZs6neHD9k8TSC8mj8m4HHU7hmA/ALdHCPlLeehMYi6e/besIon+RmErbXe1b8kMVLf8pj2D+t8jz6RSLSmk4VzJZTsL/WI6JHLWa1pPOLuByKDu4R6dh+6FTBrBiO/XU+JXrUYvYL0m8oS7Ho4B6RrmmrYHa8ie01nhQ/5OKWdra3k4Hbk75I78F9GTl+J0bsOZrBo4czYOvB9BzUh249QwrpjfUbqF+2hhXzl7L0zbdZ8MJs5j7xKmuXrk46tCTMAb5IWGgoIl2rIiTk+i+SvSc2A1cDlxISfcn73UyYminUNMIx6ZKjNDsA2xJW5PZPovIe/Xux6/EHsPvJB7HV7tvl/fjm5mYWvjCHl/7+BNP/8RTrVtYlEKWrTcB/A1cS5jZFJD/HERqhRO5JrfwL+BTh+G95zzmEY90L1UDIpLrWJ5zSl2YH4C7C4T6u+g4bwPhzPspepx36f7/wrTbWb2DaHx7hiRvvY82ilS51OptCWHH8ctqBiBS50cDfgN0Tvs58wpz10wlfp5jsjP0e9hFCB0tykNbisOMJ6R/dVFZXst9nDueTN36RkfvvSFVNtVvdVTXVbL3XaPY9fSJV1VXMnzaL5qYmt/oNVhCGLS8gpBAWEZsVwO8Ii9L2SvA6/YDPEo7cfjzB6xSTpYR7mWXXxBxCMibJQRodgJ6EBWpuw2yDRg3jjFsvYc9PHEJ1N7+Gv62qmipGHjiWMRN3Z84Tr6Q5LdBMGKo8DvjP5v8vIj4aCCOUiwi/KJO6qVQS0uCOJixE3JTQdYrJIdgylDYAtzrFUvLSOEDhfGCkV2U7Hbk35/zzewwft61XlV0avsu2nHvPZYw9Ys9o12zlVeBDwFmEHrOIJON6wrHc8xO+zhnAk2irINhHQw4guQ5byYk9AlAL/Ano41HZHqcczEk/O4ea7jVd/7Gz6m417HzMvtQtXc3b0+fGuOQ64CrgdJT1SiSWhYRjsncn2QZ6C8KUwExCJ7+cfc7w2G6E0Zt3nGIpabE7AOcAp3pUtPenDuP4H51FRWV66xgrKivYYeLurF20kndmvJXkpf5DWDD5N7R9SCS2dcBtm/93Isktnq4lLAwcSFjIlomFRpEtBr6G7Vf8K2hxZU5idgAqCb/+B1gr2unIvTnhp19ItfFvUVFRwQ4f2o1Fr85n6ax3vat/G/gC8A1gmXflIpKXxwlptY8Cuid0jQpC2u7xwP9Sflt6G4GPAtsY6lgD/NUnnNIWcw3AocAoayUDRw7lhJ9+nsqqNJYvtK+yqpKTJp3L4FHDvKpsAm4EdgL+4lWpiJjdTZgOeCbh6xwOPAccmPB1sugx4+MPcYmiDMRsRc+wVlBVXcUp111Abe8eHvG46tarlpN/cR5V1S6DKncC5wJFmYpQpMTNAw4jrA1I0gjC9F+5nSpoXQg4DIcfm+UgVgegB3CStZIDzz4y6mr/fA3fZVv2P+sjHlV9hOSGGEXErh74zOayLsHr1ALXUV6nCj6Off3DwR6BlLpYHYAjCIkvCtZ32AAmXHScUzjJOfQrx9N7iOmpQtglcbhDOCKSrFsIowFJbxX8NPAE5bFVcAX2nRAHeQRS6mJ1AD5krWD8OR91S+2bpNpe3Rl/7kc9qjraoxIRSdxUQtbApFPQ7kZYe5D9X0J21nUA6gDkIFYHYKLlwT0H9Gav0w71iiVx+3zqQ/Tobx6tm+ARi4hEsZSwev0qks3M2Z+wRugHpJfKPQbrOoCdCdsppRMxOgBDgF0sFexy3P5F8eu/Rbdetexy3P7WanYmnFUuIsWhEfgO4ayTJE8NqwC+TdgmOCTB66TJOgJQgUYBuhSjA7AXxsQZu59cfO/j7ieNt1ZRAezrEIqIxHU34Vz6FxO+zuHANELegFIzh5AHxaL4Go7IYnQALAc70GtQX7bcbaRTKPFstccoeg/ua61mrEcsIhLdLEJe+skJX2drwq/lbyZ8nTRoHUDCMt8BGHXwTlRUpJ/xL18VFRVse4C5/Ta9diKSqvWETJ5JbxWsBq6h9LYKWtcB7Iu2U3cqRgdgjOXBW+0x2iuO6EbsaY59B484RCRVMbcKPk7pbBW0jgDUEqZipAMxOgCm/LiDRw/3iiO6waPNqYEHe8QhIqmbCuwJ3J/wdXYnrAs4OeHrxPAiIa+/haYBOhGjA9Db8uCBI4d6xRHdwJFbWKtQB0CkdCwDjiFs4Utyq2BfwmE4xb5VsBF4yliHOgCdiNEB6GN5cPe+Pb3iiK5HP/N03BDgdMJOiuwdgCAi+WoEvou2CubKug7gIJI7vrnoZb4DUNu7eNdwdLPH3g24lTCkV0/YFvMgcC1wDiHfdSkt+hEpFzpVMDfWdQADCTlVpB3VaQcgeRm+ubQ9J+Ad4GXglVb/+zxQFzU6EcnHPELGz18QdgskZQTwKGHk4YcJXicJTwEN2Nqqgwj3RWkjRgdgLYaUjBvrNtCjf3H2UzauXR/rUuoYiBSn9cDZwBTgepKb6mvZKrgr4ajxYrkH1AEvYFvNfxBwo084pSVGy7oaQwdg3co6j7z6qVi3KvXvWHsdg0ZClq3WHYMXUA9ZJE23AK8BtxOS+yTl04TU7B8H3kzwOp4ew9YB0NHAHYixBmCt5cHL5y7yiiO6jMZeRdgnfDzwX4TkITOAhYQhQtOaDREpWMupgg8mfJ2WtQfFcqrgE8bHjwK29Aik1MToALxrefDS2aaHp2rprKKKfUvgCsKCoV1TjkWkXC0FjiL5rYLFdKqgdSEgaDtgu2J0AN6wPHjB87O84ohuwXPFMsL2PtsDD6EshCJpadkqeCywIsHrtGwV/DdgTlqSoHcIZytYqAPQjhgdgNctD57z+Ks0NyfZEU5Gc3Mzc596Le0wCjWYMCdZ6P7ZCmAccPTmMs5Ql0i5ugfYg+S3Ch4KPEu2twpa8wFoHUA7YnQATK1g3bLVvP3iHK9Yolnw/CzqllmzWKbqAPKfI+wDfB9YQFhXcM/mMoOQB/17GDNDipSZeYQG+paErzMC+A9wfsLXKZS1A7A7uvd8QIwOwPMY57Je/Jt1DUh8L91RfDG349N5/O2uhNzdl9L+gputgMsIOw/2NEcmUj7WEU4UPB/YkOB1aoHrCJ2NrKVgta4DqCb8qJFWYnQAlgDTLRVMv+spNtYn+bn3tbFuAzPunpp2GB5y3XqzHWHdwHY5/O3WwL8onRPLRGK5npA4KOlTBc8grLzP0nf0VcJZChaaBmgjRgcAQuNQsHUr65j2h0e8Ykncs7f9h3UrU88B4CGXoxgrCQeP5HNw0UDgNgpfF1BJSO95LHAkYZ60eHNGi+SuXLcKNmPfDqiFgG3E6gD8x1rBEzfex8a67I8CbKhbzxM3/m/aYXjJZRHDicDeBdS9H3BCno/pRVhjMI+QuOguwmEnzxPyTcwkbG26ijB9sSc6RElKT7luFbSuAzgApb9/n1gdgAcJGQELtmbRSh659h9O4STn4Z/dydolq9IOw8uMHP7mNEP9p+bxt+MI8VxKWE/QVnsJjp4jdGLUMZBSU46nClrXAfQmjGzIZrE6AOsIKS5Nnpr8AO/MeMshnGS8PX0uT/826ZG5qP6Zw9/sZ6h//xz/bjQhV/rIAq6hjoGUsrsJa3VeTPg6hxNOJc31O5uEZwlnJ1hoHUArMfdmHwo8bK1k4MihnHvPZdT2ztZ9ev2addx4zGUsf2uxR3VXADWEee5xhMV1sTprLZZtvm5X0wDrCauHC7GBrufuKwjznpZc4Plo76yEVwjbWddFikEkXz0IiwTPTPg6G4CvAL9O+DodmYKtEf8r8AmnWIpezA5ABeHwiVHWisYesSefuP6LVFbFbhPb19TQxJ/P/QWv/+sFj+peB3bi/XN7PTb/u5YOQdIdg2bCYSF35PC3iyl8aHARMKyLvzkxxziSpo6BFIPzgEkU3inP1a2br1Wf8HXauhr4luHxb9P+FGJZip2d7Tyceo57n3YoH7v6M/+/vXsPzrI68Dj+DZcEkiDhWgSMUArowlJRB2u1iG1xqOsFquKutLp1pezWllZb163j2mlru+t2RWrLrHVFratYrCKoW121Iiy10lUCEuRmuF/kkvsVyJt3/zhkhkaT903OOc95nze/z8wZZ5zkvOd98/Ce33OecyEnJ+wGc8lkkhfvfJx1S1e7qvKbwKI0f9ZHMEgA8zHrgdOxGvhcF19rFTAtxc/8Bri+i/VHQcFAMs0UzJ1usefX2UD0pwpegXnsYWMMsMNBW2Iv6t4zD/PBOzmZ6dy/nsoVP70p2EhAS3MLL931a5ed/yHMxWm7hrCrwWAD8G1Mx5yu7wE/61oz+S6wIMXP7MHv8ai+KBhISIOBJcB0z69Thdmk6AXPr9NqIGZvGZsv/Zvwv7NiLIS4fb4duN9VZWddNplZD8yNfE5AU20jz3/nYVfD/q2+DTzossI2Tg0GZ2OG7nMxB228DrxN55cV9cPcAQzt5O8dwUzOS7U6pIHsmpinYCBR6YlZNnsXfr/rk5ih+Xsw17dvpZgbmq56GJjnqC2xFiIA9MV86aWza1xaBo4aynWLvsHpE890VWWHDmzcxbO3/oerCX+tdgPj8bvVpy/XAUtJ/3rqzByDI3Ruk6G4UjAQX67E3PEWeX6d14EbMP9mfXoIuw58EzDRUVtiLdQDdBfPcf5Mz149ueBr05l220xyC/zMfzlW38SbDyxn7WOv0dLc4rr6WZglaXE1HzOcn2rDkARmpCPdeQ62s37jTsFAXBgDPIf/dfB7MTcEaz2+xlexG8JPYm4qKtw0J75CzqBbjlmb7VThkP58dt4Mzr/hUmdB4Hj9Md55aiVv/epl6o5a7WfUnhfw8FkEMA0zA7m9L5n1mM6/M5MmnD4yyiIKBtJZ2bJUcDT2k/iuwvFNaByFDADFmA5hgI/K+xYV8JdXfYZJX76QEed8stOrBZLJJPtKynjv+T9SumItjdXe9vavxHSYvg/4iEoPzGYh04HWZzK7MLtB/gno7NBJEbCN8LuQxYWCgaSSDUsF92M3mfw+7JYTZoWwa+jMXvDLfLejYFA/Rl14NiMnj2Hwp4YxoHgo+QMKySs0e9Acq2uiobKOyj2HObr9IPtKytj19hbqy9PZCt/atZihOWnfbMxywNDXa5wpGMip4r5UcCl2G/qsoevLl8WhhZhnMt2xhNpNK47mA82E/5tlW0mgLZG7q8HAq/i/xipxf6rgfEdtO4aZC1AGvIcZqVwEfAu4DI08epeLmegV+osw6rLy5HuX9F2KeWwU+m/XHYqCQffQE7gX82jO5/XUgttTBc/13N5T270Bc6N6Jbr+vRgAbCT8l15UZStmQwvpvBzMud4/BFZghhYThP+bdpeiYJCdrsTcqfu+fl7DzV11L8weIlFf/9XAYszZNrF/JJlJb2AE5rznM0M3xLPdmIsnc481jJ+oz0qQj2rBzMzWHIP4inKp4LWYScFdlY9ZahhyPf8OzC6ojxHP/VsyzjjMjPHQdzm+yh4cHIYkaeuLGSr8CmanMo0YRF80YhAvfYHH8X9dNAH/0IX25WOWBn8YQRvTLftPtknXtAMjyM7HAe/TtfPsxT0Fg/Dl1GDwL5hgcC76Es0Uf4/ppH1fB09gOvV0XIMZOQ197bZXdmAepYilAWTXxMBV6Jl/HCgYhC+Jk5+5gkF4U4imw12PORekPWcAr0TQDldlOf6XV2a9XOAB/M9O9V0eRLP9407BIHxRMAgj9FLBOUQzOdF1qcDscyOWZmI+zNB/0M6WKsye2JK9FAzCFwUD/0IsFczF7JMS+vqyfT8LyeAbwExaBdCRMzB30nFJVMuBW4EDoRsiQWhVQngtmJ0PS4HNp/x3M1qV0FVRniqYR/bs1LcGM7pRGbohbcUlALT6K0wQyNSZ9GXAP5LeMbfS/SgYhKdgYCeqpYLZphSYgVkxkDHiFgDAfIl+HbgDs2IgExzGDJH9CjgeuC0SPwoG4SkYpK8vZnj+ptANiZndmO2Ft4VuSKs4BoBWeZgL8A46nkHq01ZgAebUK31JiGsKBuEpGLQvqlMFs8luzE6mGTESEOcA0CoHuBhzxvV1QH/Pr1eLGQL7L+BNOn+8rYgtBYPwFAyMqE4VzCalwFQyYE5ANgSAU/UBvgB8/mSZhJsvxC2YpTD/g+n0fZxvLWJLwSC87hgMBgNLgOmhGxIjazB9VdBHxtkWANoajNl2dBxwFjAeGAr0w8xkLcQsOanB/OOsxAzR7MVM6HsXWIdZ0icSVwoG4WV7MOiJOaDrLrK/X3FlIXBbyAboDyXSfSkYhJdtweAKzONR30sF0zZ0YB7TzhvEBROKGD+qgFGn5zN4QC4FfczJxPVNCY5WHmfXwQa27KrjT5uqefPdcg5XeD/fJwl8GbNsPAgFABFpS8EgvNZg0PZ0xTgEgzHAs8A5oRow8LTeXH/ZcL5y+UjOP7vz08KSSfi/96tY8sp+lr56gIqaEx5aCZhR509jRp0jpwAgIulSMAgvLsEgyFLB4UP6cPuc0dx8VTEFfXs6qbO+McHiFXtY8NRODh5tclJnG8uBWT4qTkUBQERs5QJj+WgwGI95NizROMhHg0EJUB+wTTcCD+F5a+ZePXOYd82Z/HDeOPrl9/LyGg1NCe5/cgf/9kQZx084X/x1JfCS60pTUQAQEV80YhBeJowYeF0qOLa4gCd/PJlzxp3mo/qPKNlazZy7Syjb53Qx2A5gIhGP4igAiEjUFAzCizoYeFkqePUlw1h8zyRvd/3tqalv5uYfbeDF1YdcVvsd4OcuK0xFAUBEMoWCQXg+g0EhZtt0J48DbplZzIN3TKBnjzDdWKIlyTfvK+XRF5zN39uPmUDpfflBKwUAEcl0mmOQGWznGMzDzAewdsvMYhbdOdFFVVaSSbj1vo0sXuEsBMwDHnZVWSoKACISVxoxCC/dEYMczB4Hf2H7gldfMoynfzo52J1/W4mWJNd/f52rxwEfYDauS7qoLJXM+ARFRNxRMAivbTA4DtxjW+nY4gL++NhFkT/zT6WmvpnP/O0aVxMDpwL/66KiVBQARKS7UDCIsd69cliz+KLIZvt3VsnWaj53y1ucaLa+eX8EmOugSSkpAIhId6c5BjHwva+O4SffGB+6GR268xebWbhkp2011cDpRLAkUAFAROTjacQgQwwf0ofSpZc4293Pl9qGZibMXsWhcuuJ/FcA/+2gSR3KrAcpIiKZoxFzGui6Nv9fIwYRu33O6Izv/AH65ffitr8ZzT/9cottVZcSQQDQCICIiBsaMfBgUP9ctj9/aSwCAEBdY4KxM9+wPUBoPeYoe680AiAi4kZ7IwYKBhZmTz89Np0/QGHfnsyePpyHntttU80kzO6JR9206uNpBEBEJAwFgzT84dGLunSkb0hrS6uYOvct22ouA15z0Jx2aQRARCQMzTFIYciAXM47K16dP8CUCUUMHZjH4QqryYDjUAAQEelWjmM20NmEOUWvVbcLBp8/fzA5MRynzsmBqZMH8uzvD9pU433NowKAiEg8tBcMsvZRwpQJRaGb0GUXTCxSABAREa+y9lHC+FEFoZvQZeOKC22rGOaiHR1RABARyU6xHzEYMzK+AeBTZ+TbVtHPRTs6ogAgItK9xGbEoKhf7xAv64SDtisAiIhIJDJu8mFhjNb/t9WvwLp7VQAQEZGgMi4YiBsKACIi0hXpzDFYjAkKXVLb0Myg/l3+9aBq65utq3DRjo5k1IQPERGJvdY5Bk8Ch2wqqqq17kSDqaq1OgsAFABERCTGjtj88o799a7aEbkP9jbYVqEAICIisXXY5pe37opvANi2p862ig9dtKMjCgAiIuLLAZtfXrupylU7Ivf2Ruu2b3XRjo4oAIiIiC8bbX555TtHSSZdNSU6ySSsXlduW40CgIiIxNYGm18+UnmcdzbHbxRg7aZKjlQdt61GAUBERGLLKgAAPPm7/S7aEaklL1u3uQUocdCUDikAiIiILxXAdpsKnnntAPWNCUfN8a+uMcFvX7c6BRBMcLJ+hpCKAoCIiPj0ss0vV9ScYPGKPa7a4t3Dy3ZTUWO9B8DvXbQlFQUAERHx6Xe2FSx4aid1MRgFqG1oZuHTO11UtdJFJakoAIiIiE+rAKsF/QePNvGTxVZPEiLx40e2c6j8mG01VcAbDpqTkgKAiIj41AQ8b1vJL5bupGRrtYPm+LFuSzWLntnloqrfYj4z7xQARETEt0dsKzjRnGTO3SXU2B+y41xtQzM3/mA9zQknmxY84aKSdCgAiIiIb6uBLbaVlO1r4OYfbSDRkjm7AzUnktz0g/Vs3+Nk2+IPgD+4qCgdOrNZRESi0AuYYVvJtt31fFh+jMsv+gQ5OQ5aZSGZhFv/tZRn7Jf9tfo+8K6rylJRABARkShsAL4GnGZbUcnWGnYfbOTyi4fSo0eYFJBoSfKtn23i0Rf2uqpyH/B3QGTLHRQAREQkCs3ACeBLLip7b3sNGz+oZcZnh5KXG+3T7Oq6ZubcXcLSV63OOmrrn4G3XFaYSuABFBER6UbyMDsDnuGqwjEj83nq3slMHt/fVZUdWrelmjl3l7Bjf4PLasuAiUQ0+7+VRgBERCQqCWAPMNtVhZU1J3j8xX2UV5/gwkkDvI0G1DcmuO/XZcy99z2O2h/009aNwGbXlaaiEQAREYnaMmCW60o/MSiP22/4JLfMKqawr5v727rGBP+5bDcLluzkcIX1Jj8fZxlwjY+KU1EAEBGRqA0H3ge8jNsPPK03s6cP54YZI5gyoajTqwWSSXOk79OvHGDpqweorLXe2789FcCnMRMAI6cAICIiIVwP/Mb3iwwpyuWS8wZxwcQiBrC43AAAAedJREFUxp9ZyOgR+Qzq35t++b0As4lPefUJdu5vYMuuOtaWVrF6XTlH3A/zt5UErgZe9P1CIiIimWYBpiPsjuXfHXx+IiIisdQbs0tg6M446rLq5HsXERHptgYDmwjfKUdVNgIDnHxyIiIiMTcC2EH4ztl32YvDPRBERESywRjMbPjQnbSvsgsY6+rDEhERySbDgfWE76xdl1JgpMPPSUREJOsUASsJ32m7KqtOvicRERFJIQ/4JeE7b5vSAtyPZvuLiIh02tXAUcJ35p0tVcC1Hj4PERGRbmMk8BLhO/V0y3Poeb+IiIgzX8ScHxC6g2+vlAGXe3v3IiIi3Vge8F1gP+E7/NayF5gP9PH4vkVERAQTBOYC2wnX8W8Hvg7ken6vIiIi0kYP4GLg58AR/Hf6VcATmMcRsT9NN/ZvQEREBDMqMB34AjANmIQJCDZagA3AG6eUJss6M4YCgIiIZKOBwPnAOGD8yf8OAwoxh/EUnPy5OsydfS1wCNgGbAG2AiVAeaStFhERERERERERERERERERERERERERERERERERERERERERERERERERERERERERERERERERERERERERERERERERERERERERERERERERERERERERERERERERERERERERERERAP4fPCyOKgPjNuQAAAAASUVORK5CYII=;" vertex="1" parent="1">
          <mxGeometry x="1599.5" y="630" width="131" height="131" as="geometry" />
        </mxCell>
        <mxCell id="UumZl4tDRyMTFsn0wA4o-43" value="" style="shape=image;verticalLabelPosition=bottom;labelBackgroundColor=default;verticalAlign=top;aspect=fixed;imageAspect=0;image=data:image/png,iVBORw0KGgoAAAANSUhEUgAAAgAAAAIACAYAAAD0eNT6AAAAAXNSR0IArs4c6QAAIABJREFUeAHsnQl8G1e1//vgsfQB5fEea4E/ZXnAa3lA63iRZjQz2nd5lZOW0gellD6gCzwgLQ9ogEIXuqVbmqRN2jRNs+9x9njftVrWZnmX7diOHWdfbd8/d6QrjWTJlrwkTjj9fO5nRtLMvXe+zqfnN+ece+4NN8B/QAAIAAEgAASAABAAAkAACAABIAAEgAAQAAJAAAgAASAABIAAEAACQAAIAAEgAASAABAAAkAACAABIAAEgAAQAAJAAAgAASAABIAAEAACQAAIAAEgAASAABAAAkAACAABIAAEgAAQAAJAAAgAASAABIAAEAACQAAIAAEgAASAABAAAkAACAABIAAEgAAQAAJAAAgAASAABIAAEAACQAAIAAEgAASAABAAAkAACAABIAAEgAAQAAJAAAgAASAABIAAEAACQAAIAAEgAASAABAAAkAACAABIAAEgAAQAAJAAAgAASAABIAAEAACQAAIAAEgAASAABAAAkAACAABIAAEgAAQAAJAAAgAASAABIAAEAACQAAIAAEgAASAABAAAkAACAABIAAEgAAQAAJAAAgAASAABIAAEAACQAAIAAEgAASAABAAAkAACAABIAAEgAAQAAJAAAgAASAABIAAEAACQAAIAAEgAASAABAAAkAACAABIAAEgAAQAAJAAAgAASAABIAAEAACQAAIAAEgAASAABAAAkAACAABIAAEgAAQAAJAAAgAASAABIAAEAACQAAIAAEgAASAABAAAkAACAABIAAEgAAQAAJAAAgAASAABIAAEAACQAAIAAEgAASAABAAAkAACAABIAAEgAAQAAJAAAgAASAABIAAEAACQAAIAAEgAASAABAAAkAACAABIAAEgAAQAAJAAAgAASAABIAAEAACQAAIAAEgAASAABAAAkAACAABIAAEgAAQAAJAAAgAASAABIAAEAACQAAIAAEgAASAABAAAtcIgWAweOPAwMD/nDhx4hPXyJRhmkAACAABIAAEgMB0CfT19X0y2Nu7uK+vr+/o0X40MDDw/en2BfcBASAABIAAEAAC85xAZ2fnl7u6gkuDweDZnp5e1Nvbh44ePYr6+we2zvOpw/SAABAAAkAACACBdAkEAoE72ts713R2dl7u6upC3d1BFOzpQb29vaivDwuA/nP9/f0fSbdfuB4IAAEgAASAABCYZwQQQv/U0tKiCAQCu1pb21Bbezvq6OhEnZ1YAHSjYLAH9fACAHsB+DBAwTx7BJgOEAACQAAIAAEgkCoBt9v9QY/Hc4/f72/2+1tQSyCAeAHQ1o7aOzp4AdDVhQVAEPFhgL5IGOCdVMeA64AAEAACQAAIAIF5QiAQCNzkcrkebna7gx6PF3m9PuTz+1FLSwAFWltRW1sbam/vQB2dnShJGOCE240+OE8eB6YBBIAAEAACQAAITEbAZrN9yel0vuBsajrtcjWj5mY3cns8IQHg8yN/SwsKBFp5L0A7CQPweQATwwCDg4O6ycaC34AAEAACQAAIAIGrTKC+3vF1q9W62mazX7I7nMjpbEJNTS7kwgLA7UEerxf5sABIEAbo6Ohq6OrqWhIMBsfjwgDrrvJjwfBAAAgAASAABIBAIgINDQ231dc3rmlstFy2WK3IZrMju92BHE5nSABgL4DbjUgYwB8NA7jb2tqWtLW1fZ30GwwGq3v41QB9ZDXA2WPHjn2M/A5HIAAEgAAQAAJA4CoTqKur+3ZNTd2aurr60fr6BtTQaEEWixVZbTZkwwIAewGamlBsGMDr9nr9S/x+/zcTTT8YDD6YYDXAPYmuhe+AABAAAkAACACBK0igrKxaVFFVvaequma8pqYW1dbVI14ANDSiRiwArLaQF4CEAVyuU263e1lzc/N3pppmR0fHZ4PB4GhcGGD/VPfB70AACAABIAAEgMAcESgvL/+vsrKKjeUVlaiysgpVVVWjaiwAautQXX09qscCAHsBwmEAh8PhdTQ1LW5qakqrrn8wGDwUCQPwVQH7x4aGhj4/R48F3QIBIAAEgAAQAAKJCBw5cuS2w4ePbDlSWjZeWlaOyssrUAURANU1qAYLAOIFaLSct1qta+x2uzhRX6l8FwwGf4TDAKGqgJGiQL9M5V64BggAASAABIAAEJghgZKSw1/df+DQOwcPHh47dPgIOnKkFGEBUIYFAPYCVFWjKiwAQmGAgfr6xt/W19f/+wyHvcF37NjHgsHgqbgwgGum/cL9QAAIAAEgAASAwCQESkpKvrBn7/6l+/btv7D/wEF04OAhdOjQYXQYC4DSMlSGvQAkDFBd3VFTU/ewxWL5l0m6TPun7u7gK3FhALxD4LS9CmlPAG4AAkAACAABIPCPQqCkpOSmnbtLntq9p+R8Sck+tHfffrR//wFeABzEAgB7AUrLeC9ARUVFZ2Vl5b2lpaX/PBd8urq6bg0Ge8bJ5kDhvQHenouxoE8gAASAABAAAv+QBDZu3Pj+HTt2PbBj566BXbv2oN17StCekr1o7979aB8WAAcOooMHD6NwGKCvtLz8Z7i+/1zDCgaDR+LCAOdOnDiRVkLhXM8R+gcCQAAIAAEgcE0S2Lx5u3rr1u3N27bvQDt27EI7d+1Gu3fv4QVAyd59aB/2AoTCAOcOHTr0p/3791+xLXqDwWBhfBhgcHDwoWsSNEwaCAABIAAEgMB8ILB58+bbNm3asnfzlq1o69btCAuA7Tt2op07d6NdWADsKUHhMMD4vn0H1h08ePD/Xel5I4TeHwwG3ZEwQD+/RXDzlZ4HjAcEgAAQAAJA4JonsHr1tn9dv37Dqxs2brq8cdMWhAXAlq3b0LZtIQGwY+cuJAgD+Pft2ye9mg8dDAYLcBigL7pFMBocHKSv5pxgbCAABIAAEAAC1xSBdevW3bnuvfVH31u/AW3YsAlt3LQZbdq8BW3Zsg1t3bYdbcdhgJ18GODi7t0lfyotLf3w1X5AhNA/9fT0NPT29qG+UFEgNDAwuPlqzwvGBwJAAAgAASAw7wmsevfdr7zzztq9a99dh95dtx5hAbB+w0a0cWNIACQJA/SVlJRs3LNv38P79+/PwIb4aj1od3efKi4MMDowMPDVqzUfGBcIAAEgAASAwLwmsHz58g+8/fY7v317zTvn1rzzLlq7FguA99C69zag9es3og0bN6FNU4cByGqAgYMHD+46cOjQH44cOaLbv3//p6/kw/f29u4LhQH6UX//AA4DLL2S48NYQAAIAAEgAASuCQJvvvkmvWr1W82r33obvfX2O2jNO2vRO2vfRe++iwVAyAsQDQNsxWGAE6EwwE4SBkC7d4eWA4ZWAxzgVwMc5IsCHeGLApWVlXWVlZfvLK+sfLKqququ6urq75aUlHxoLgB1dXV9pbe376wgDHB6ZGTkX+diLOgTCAABIAAEgMA1R+D55zfeuHLlm0vfeHPV+Jur3kKrV2MBsAa9vSYkAHAYYF3iMIBj8+adt23dseOB7dt3btu5a/epyGqAvcmLAvFVAcsro3sD1NRerqmtb62rq99X12B5tbGx8RdWq9VosTjvsFgsn8M1B6YLta+v76G+vqPoaGg1ABoYGPrNdPuC+4AAEAACQAAIXDcEli174/blK1a4V6x8E618YxV6c9VqtAoLgLewAMBegEgY4CIfBtgQHwbYGqm0t3y55QM7d5awe/bs/WtJyV7r3n37xyNFgQ5FigLxVQH5zYHCewNUR/cGCG0R3NiILGSLYLsdORzOMaez6WiTy+Vwudx73G73ao/H94TX2/Kg3+9f2NbWpmttbZW2trZmtLW1fb21tfeLXV1dn8BLAnEeQl9f33ZcFbB/gA8DBBFCH7hu/oDwIEAACAABIAAE0iGA36qXLVv+6LLXl198fflKtGLFG2jlG2+iN97EAuAttBoLgFAYYO/atWupdevWyda9t370PZwHEFkNEFkO+HCisXHMf+/eA3eHNgc61IOrAkb2BiivEOwNEN4ciN8iuAE14C2CLXiLYBuy2ezI7nAgp7MJNTW5kKu5GbndHuTxeJHX50N+fwtqaQmg1tZW1NbWjto7OlBnZyfq6upG3cEg6unpudDb23f6aHQ1ABoaGvrvRPOF74AAEAACQAAIXNcEXnhh2S2vvvpaxauvvY5eW7Ycvb58BVqOBcBKLACwF4APAwyuXrOmQAjivfc2PJ5kNcDotm278oTXJjovLS295dCh0rtLS8uXlZWVu8orKsciWwTj3QHJFsFYADRaQl4ALADsDuRwOpETCwBXM2p2u0MCwOtDPr+fFwCBQCtqbWtD7e0dqKMDC4Au1N0dRMEeskVwNAwwOHisBXsHEs0RvgMCQAAIAAEgcF0SePHFl+556eVXT778ymvo1deW8QJg2etYAKxEOAzwBh8GeKtx1apVX4wHsGTJkve9+97GQ3g5YILVAGe3bduVFX/PZJ8rKys/UVFRoa+sqnqyurq6sqa29nxtXX2CMIADhwFCXgAsAJrdyO3xIC8WAD4/8re0IF4AtLahtvZ2XgB0dmIB0I2CwR4ULQoUCQNgL8Ddk80NfgMCQAAIAAEgcF0QWLJk9YdfeGHpWy8ufRktfekVhAXAK68uQ6+99jrCAoAPA6zkwwBVa9euvSnZQ69bt+4z723YGMQCABcF2rw5FAYIrwYY2r1797eS3TvV93g1QG1tLVVf3/jrhobG9Y0Wi99itY2lFAYITBYG6EW4KFAoDDCABgYH0bFjx7zgBZjqLwK/AwEgAASAwDVN4Lnnnvvic8+92PD8C0vRi0tf4gXASy+/il55FXsBYsIA7tWrV0+5TG79+vWZ6zdsPB8tChSqChjeHOjonj17vj5bwKqqqj5msThom83xoMPpfKOpyVXrcjWPJAsDtJEwAJ8HMDEM0B9eDTA4eAyLgDtna57QDxAAAkAACACBeUXg2WefZZ559vn+Z597AWEB8MKLL6GlS19GWADEhQFOLV++POVKeRs2bLg7QRggvDnQru6SkpKU+5oOMJ/Pd7Pb7ZZ7vd6f+3y+pX6/f3sg0GprbW0fShgG6CV7A0TDAMeODbkRQu+bzvhwDxAAAkAACACBeUvgqaee+dnTzzx76W/PPo+wAHju+Rd5AZAwDLBsxb3pPsiGTZv+liAMQIoC9f69LPCt6fY5G9f39fX9S1dX161dXV10V1eXsaen555gsO/h3t4+R1wYAA0PDy+cjTGhDyAABIAAEAACV53ASy+99KG/PvX0G08+9Qx6+pln0TN/ew49+9zzvABIEgaonU7dfpwUuGHDlveEmwOFwwBo5y5+i+Dje/bsyb7aQFpb+z8d7OnZTPYGEIYBhoeH2xBCH7zac4TxgQAQAAJAAAjMiAC64YZ/Wvbgz+598bHHerEAeOrpv/ECgHgBImGAl6JhgJeXLaOmO+jGjRs/uGnT5pL4LYJ34i2Cd+9Bu/eUnNi7d698uv3P9L6uri5zd3f3IL8aIHEYAK8I+PlMx4H7gQAQAAJAAAjMCwIHOGrBVo1q75sP3N/77JNPIiIAhGGAl0KrAapmOmGcvb9585adW7aSLYIn7A1wae/evT+a6Tjp3B8IBL7Q3tGxAS8HxEWBgnxRoF7U28evBhjDmwOFVwNgATA4PDycdOVDOuPCtUAACAABIAAErjqBjWbz+/eLF/zffmrBuS35hrNvPvwQevHpp/lkwMhqgJdePfbqq69ve+W15b997bWVOdOtu493EdyyZdsavBwwLgyA9uzZi/DmQHv37n8Shw3mEkwgELgp0Nr6l7a2trN8UaAJqwH6fD09Pd/t7+93DgwMosFjx7AAQMePH39iLucFfQMBIAAEgAAQuOIEDoi/+91D4ozmg6I70AFxBtpp1KB37/8RWvH4H9DL4ZoAkaJAy1YMLl+x4ulVq1Z9ZToT3bJtx2Pbtu8Y275jJ9q5k88DwGEAVFIS2Rxoz6FDh/59On1Pdo/FYvmA3+//mb+lZZAUBWonRYH4qoDd48Fg7wrypn/06NGsgYGB0UG+JsAQTgY8OzQ09PnJxoDfgAAQAAJAAAhccwRKtF/70EEq42+HxBljh8QZiLSDbA7aWWBAG+//EVrzf4+hlS8uJUWBxla+sWrj6tWrb0n3Ybds367Yvn1nzw6cB7BrNy8A9pTsRXv37kPhzYE6Dx8+nFbVwGRzKC0t/We32/09j9fr56sC4r0B+KJAbZG9ATo6upq6urom5CH09w++GA0DDKORkZE3k40D3wMBIAAEgAAQuKYJHBLfLjoozggcojLQ4Zi2AB2hQu2AkkG7FhWizQ//HL37l79ceGvlyieWL1/+L4kefOPGjTdu3Ljx8+u3bv3Wli1bmM2bt+Vt3b79h9u27fjrjh27LoRXA0TCAPv27Uf7DxxEBw4eunjo0KH/nW5IwO12f9TpdD3scjV3RooCCTYHCoQ2B+psb2+/J9la/8HBwY8ODAz6SRhgePj46IkTJ+5I9JzwHRAAAkAACACBa57AwYyMjx+i7thMBAAx/EfoBYi0UnoBIu2INAftKzBc2P3D7we2PLbYu/6ll/1r177b++669ef/vkEQCu0NsBlt2rQF4dUAW7eG8gAmCQOgAwcOoYOHDqPDh49UlZeX/0eqUOtcrs/Y7c4nHA7nsLOpKbQ50MS9AQYDgbZHAoHAh6bqd3Bw8LuDg4Pnjx3jwwA4F6AumWCYqi/4HQgAASAABIDANUHgCL3g/iPUgovE6OMjMfqRo2QBKpNkTmilcjE6UJyHSn52P9rxx8fR1mXL0KaNm+L3BuCLAsWGAfbzYQDsBTh48DDCWwQfOVJ29siRsl/iOH4icLhGQUNDA9tota6xWm3nQ3sDkM2BXKHNgfAWwV6v0+/33xcMBm9M1E+y7wYHB392jE8GHMYCAJ04ceK+ZNfC90AACAABIAAErgsCR+iM7CP0gs4Jxl+yYKhMkjkSb/zLmUwU3yqYTFTBZKFyFYMO3W1G+3/xINrz5BNo5xtvoJ3btvNFgXbv3oNwHgBeDSAIA6BD2AtwpBSVlpahsrJyb2VlpYGAraqqurmmpu6xuvr6lnqyRbDVingBwG8R3ISamlyjLlfzFpfLy5H7pnMcHBrahFcDDA8fx7kAx06dOjXriYrTmRfcAwSAABAAAkBgzgjsE4n+rZResJd/65csQKWhN/7eciZTjG644X3VYvGn8XmFJOu+cibzb+VMZnk5k3mBGP4KNguRVslmIWGrkIlQWbEJHf75/ejgnx5H+19/He3bvh3t338A5wGQMAA6UlqGSsvKUXl5BaqsrDpQVVWzs7q65nJNbR2qi2wRbEEWixVZbTZktzsbHQ7HLx0Ox6xk7uPVAceGhnzDw9gLMIKOnzixfM6AQ8dAAAgAASAABOYLAVwz4IhkwfNxb/wXy+jMnyaaY41IdGM5kyUr57KeqGCzfEKjz59zWaiSy0JVfMtGVVy0VXPZqDJPjSp+fA8q++2vUdkLz6LSd9ei0oOHUFl5BaqoqESVVdWoqroG1dTUoloiABoa+ywWy+/tdnvKOQOJ5p7su+Hh4VuHhoZP4zDAyMjI2MmTJzOTXQvfAwEgAASAABC4rgiU0Zk/LJNkXsBCgLj6y9jMlZaMjITxefLwFZKcOyqYzL9Vcln9SQ2/NBtVJ2g10myEW7VMjKoLdaj6pz9C1Ut+i6pfewVVb9mCaquqUV19A2poaBxrbLRss1qthmT5AmQ+0z0ODw+bh4ePj4+MjOBcACtC6J+n2xfcBwSAABAAAkDgmiJQIVlAlTOZA0QA4GMFk7W/Ljt7ynK51WyWqIrLHo9545/E6NdIc1CNLNpqZTloQlOIUO1CE6p/6Ceo/i9LUMObK5B1z67jjsb61x0OBz3bcIeHh5/FYYATJ07g9tvZ7h/6AwJAAAgAASAwbwlU0plfKWeyAji5j298nD+zqZTL/sJUk67ict7CAmCyt32h0cfnE4w+/k6eg+omNBGqk4davYpGDd8rQJaf//h4g0H2ZIMip7hOnv3tgFY75fK/yZ4Bv/UfP368lPcCnDx54fTp07dNdj38BgSAABAAAkDguiLAJ/+xWY1xCX6d5Uz2pDH4KiV1c7U0+5xQAGAXf6006zfVsuzvV8uz/7damvNcjUy0pkYm2l8ry2mqleX018pyxqc0+nIRqlckbw0KEWpQiEYbtGyv7ef3nXU88bsTzW8uH/GW7D7eand0dnZ2urq6ui3BYPBwMBjc39fXt7Gvv39tf3//8oGBgeXHjh1bPjw8vPz48ePbwmEAdPLUqQYIBVxX/7ThYYAAEAACQGAqAvtV3/5IJZtdEpPkh+P80qzvTHZvtTTrOSwASHw/9MYv+ttk97jNt36wUZ75lVp5jqJOLrq/Xp7zVJ1CtLFOJqqqV4jaEhn+sMHHRj/UlCLUwDcxalCGWqNSjEiz5CqR/b7vIdcfHkW+5a+itu2bUVdjA+rr60MDAwNocPAYOsYvBwytBsBhgJMnT6JTp049Otnc4TcgAASAABAAAtcdAfett36wks18Lya5j80ermYzk2bJV6vEn66R5pwXuvprZTk9aMkN094NEPfZoBTJG+TihxoUOSsaFCJrg1J0aTKDTwx/zFElRo3hZlGJEW5WgxQ13X838j6+GLWueAV17dmB+h02dHzwGBEAOBRw63X3x4UHAgJAAAgAASAwGQG8TLCKy1obl9w3UinNzkh2X4005634+H6dPFua7PrpfI+XIzaoROJGhegRi5La2qgUH09k7Imhn/pIIYsqpo07inTHm+//fsD90P07rUrxD2xKaoHFmJFwb4TpPAPcAwSAABAAAkBgXhPAIqBamr0Gr+MXxPeHaxjR7YkmXi0XZ8Yk9+GEPlnOikTXztZ32MNgVdEZVhX1a4tKXGFRiUcnGv2ogbeqKBRpagpZU29jVjXValFT220q6q82DX2nTU1/B4cxZutZoB8gAASAABAAAvOGADaw+M2eCIBwjH+oTp6d0D1eK8upj0nsU4iOX0kjadNKPtWoon5kUVF90zT0vCiwqSmUYrtsU9Mem4beZFeJH7epxEUWleibpRwH9QTmzb9imAgQAAJAAAhMiwAWAdXS7HUh4x9Zw9+Fs//jO6xXiO4JLeWLLt+rU4hz46+bq89WtehrVg21f7I3+xQNO7JpqPRbVDhctKkph00tXmfXUI/ZNJTJrsm5Za6eG/oFAkAACAABIDAnBPBbPF7CR5L8sKu/Tp5tr9PGFgsq5bgP18lFI3jtfn10Cd+aOZmUoFM8rlVDL7GqqfNC4x829pesanqF0PDbNdQGm4ZeateIl9s04nX4Dd6moQ7aNJTFpqE6rBr6lF1Do3SbTUOjaEsoIIZtGvEhq4b6m11N32VV5PwnDrUIHgVOgQAQAAJAAAjMLwKlHPdR3sVPCvngGL9CtD++bHC9XLw2bgnf0FwaOatGpLaqqYDQwEfONXS1UyX+FhYI0Td6bNglP5iKLn4ui1ryOZuOWhB6g6d/atPQf3Zo6DV2DV1t19L96QoEfH0CgXDGpqFqrCrxq1a1+IcONXXbTFZPTPVc8DsQAAJAAAgAgbQJWLiMT9bKcrzCOH+tXPQWuuGGfyKd1SnEhUQAkPX69WpKQn6frWODjvusXU1tiBh77H4nbns1NWJTUw8IDaldQ5+MGGw1/cRszMPNcR/FyYB2DW226+gldi29ya6lPXYtfTkyVoqehJAwiDzDSd5ToKb+gsWHS579mdmYL/QBBIAAEAACQGDaBGo40dfq5DnDpEQvf1SK/kQ6dKq+/ZEGhegcMf64QE+jUvw0+X02jja1uNCmpo5FDD5v+EMue5tash6Lg/hx7BpJgDfKWhrZtJL18b/P5mccMnGqJXfYtZIfO3T0604t3ejQ0hcdWhrZSZtCGMQJApyU2GlTU+utauoRi1pyx1x6VWaTBfQFBIAAEAAC1xGBcPW+y4I4P2pQ5kTc6g0K8Q5SsCe8Tt8zG49vUWR83Kam3o4a/mic3qahu21aSptsHIeGrsYGmDfCGtqS7Lq5+h6LAoeGoh0a+ndOHX3QoaXPRuaTgiiIEQShZMOTNhW1x6amF9tVInF8KGaungP6BQJAAAgAgX9wArhCH3H142ODQnS+ThUqFFSvpO4Lv/lHyvLiDP2ZILNraM6moToTuNbHHRr6DYtC8fHJ+ndo6W3E4Dq01InJrr0Sv2FBYNdKqL+HC/7PoaUPOLT0GTK/qbwECcQA9hCctWqow9bQckQGliJeib8ijAEEgAAQ+AclUK8QvRl19YtQvVLcaeG4T+LsdmGFvnBxngeng4lP4NPSz9o19NgE46+l+xwaiTqVfh1aZrlTJ0Gk4ZoBqdx3pa7Bb/AODfWoQ0tfJkKAHHlBkCRkEPWGxNYusKqpk1a1eJtVQ/3EqWK+fKWeA8YBAkAACACBfwACuERug1LULHT3NyjF+3B8mi/TG669HxYA29JFgr0Gdg3tiDH8YTe+Q0fvTseIO3T0n4nxx8cmAytKdz5zdb3dQHNNWkmpUytBTvJ8SY7JxEASr0Ck2qFFTfltKnppo5LSQWnjufpLQr9AAAgAgX8gAo0q8bcalOJzwjf+BpXoV1aVqCS2LC81kk7iml0rybNrqBMR4x81iBedOvph4cqDVHC7dPRDTdjwh5tLR38/lfvm8hqXgeacOkm5UJjEnIcEQaNDS20m3gDhMbkYCK8miBYmigiBcJ2E8zh/AFdNTEdEzSUL6BsIAAEgAASuQQIWJfUAEQBho3/RqhbvCJ2H6++rKdSoFmVN9Xh46Z5DQz9p19Dj2MAJDZ5DS/fjRLqp+kj0u1MvWdSklyDSnAZmSaLrrsR3zQb6O016yV4iRoRHIgAcOvqAUyOR4/k4dJJV2DuAWTi1kt/iJYcODb3XoaWP4+9mIATwZkijFiVValGJH2xQMV+8Es8PYwABIAAEgMB1RKAxYvBDW+5aVNQYX49fsOGORUU9OtkOBYLfAAAgAElEQVQjO1Wqj9g19NYEhh9X5bO4ZmCgnFpG5tJLkEvPkLZ2srnMxW92DXeLS8++49JLxvBciBiJHHWS8SadZFuTno7ZdbFJJ3ETYeDSM/9J5oa9IE4N9Q2Hjv6+U0uvcGhpX8RjIsgZiOQJJPMIRHZEFI9bVOJ6i0r06EyTNskc4QgEgAAQAALXOQGbkrrZohKfiLz1Cww/djuHC/YcTIbBYRB93qalrXFv/Pxbb5NOsrvGLLox2b2pfO/Uc98SGH/UpGfqUrlvNq4JaLNvchnYZ1x65qJwDtFzXgzsdemoBfHj4dUNTTrJGBEAU7ns3Trusw4dVWzX0K/Y1bRHKAjihYCwbDJ/HhUCCP8dG1XiGouaeqBJT38ifl7wGQgAASAABIBAhIBVRd8f/9YvMP64Ut+ZROvVHTr6604t3RVv/LHbu0lHb0h0T2TQFE+c+eJPNxsYJGhDKd467ctwOMOlZ+5tNjD9gnH5ObgMxBMhKXUbuKRhjSY9rRCECEaF1Q1TmZhNJ/6SQ0P9xK6mt9k19KlEyYIxQiBOBISFwPlGJbXRqhIZYHlhKtThGiAABIDAPxgB7JK2qsRlxKBEyvSGS/Tit1Gnjs4WYnFomdsdWnpAaPz5bHidBOHYdzqJg8J+489xP80GZkxoiOfyzdalZ8TNBtYiHC/u3Osy0ob4ecZ/dhmYJZEQgZ7uj/89nc98hUItI7NrqGdsGrqJ9wiEvTPkb0aOFl4IkHAO7w0gNR36GxWi5+vk2d9OZ2y4FggAASAABK5zAo0a6htWNXUp1vhHK/bZtdSvCAK7nhHjojzE+BPDj93dTVpm62wZfzKe28AMug0MIq3ZyGaS32briEWFx8SucBvZcbeRRZEWHXfIbZD8PFWvhksvKSWhgmY9XTFb88T9OLXcF+xa8Y9tGmqLTU2dxH8zIgD4YyJvQKi0MxED1Q0qamGqzzKbc4e+gAAQAAJAYB4SsGmol0i8WRiD5s+1kh14yniXPWL8hYYfG3+HTlI905h/IixuI9scMchGFjUb2TsTXTfd77xG5i6Pke33GFmEm3Ast5G93GxkXrDncf+aav8dHPdhl4E5HxUAzPJU7033uoBW+yGrijbaVdQ7oSJCYTGQSATg/ACBEGhQinsbVOLfVavEn053XLgeCAABIAAEriMCFiP3SZuaGok3/uE3/WG8g55TKxnCn+ONv0snafHmy/99LnC4jewRbJSJgfaY2N/PxjjePO4WTy6732NiEd+EY4TOa9067rvpjuXRMYwwbOAyMA+n28d0rsfVF+1qca5NTb1rVVOnsDdgkpAALwZw6ecGpehCo0L0dr1yYjLjdOYB9wABIAAEgMA1SAC7+iMCYOJ6/pPxhj+c6HYxfgncbD66x8itFxh/bKzfnkn/OOfBZ+Ie8JrYU14Ti4QtLAaOu01czLbE6YyH4/8xAsDEKtO5fzauxZ4Yq4bOt6ro9ywq6kxolUcoN6BxoicAiwC8LwSqV4hqapU5pnQLNs3GnKEPIAAEgAAQuIoEsEvZrqF7SHxfeCRL2sgxkuWupxfP5ZS9uexL5C09bKyrpzueRyf7ktfEHfSaOJS4sZtcJvlnpts/vs9tYOoi+Qp41cAM+5vJXPC9WAw0qsRFVpV4s0UlvhheIRAfDhCKACwEbPVyUR4IgZnSh/uBABAAAtcQAYdG8osYw49L2wo25IkYfpz0p5eUp7vELV0UPhP3u+hbOjbc7EC6feDrfSbpvb5c9qQvl0MJ2jFfnrR4Ov0K7/EbuU+6jexYNI+ACQh/v9rneNOnRhX1C4tS5J7CE4BFAKqX5zgaFDkFIASu9l8OxgcCQAAIXAECuLKfQ0sfSxTrjxj/cEW8UHU8pqpJzyx2m7gZbR2c7NG8udxPyNs6MdwBrfamZNfHf99mVnzcb5KuI/fGH/0mbpfPpLw5/r7pfHabuLtJuCIsAlZNp58rcY9VRWc0qsTLG5Xi0yQ5kM8JCG0THRIAobAAqpOLmusVontme4XHlXhOGAMIAAEgAATSIODQSv6QJN4fKYVLstzJsdnAjDcbmPpmPbPYY2D+I43hJr3Un8vmxxttj0F2x6Q3hX/057ISXy7b5c/l0MTGnvSZuO+l0k+q13hN3NqYhEIDd1+q916t66pM1McaVKL7G5Xi+lBSoJjPBwjnBESEQJ1chGplIleNXKS5WnOFcYEAEAACQGCOCbjVon9z6iTnses/8tYfcvmjuNr8wip9kfNQDJxtcpu4JS6TZEbFZ3wmKSUUANiQT+WuR2bz+/15siX+POmoP0+KErT6QJ7sq7OJERfs8ZnYERyuIDkLfiP3zdkcY677ssqzv92gpF5pUIovYwGQSARgIVCnyNlToxJdU8821+ygfyAABIDAdUPAoZesjRj/qMufbMrDH4XZ7vicN/xGJmYtfdglHvAY2KfdudLsdOPJ2JsQeXvP45Aft1zpb5OBDpgln2rJ4w605ElRgjbekid92nJ/xgeS3T/d7z0mqZ6EKsI5C73pPut0x57pfW6O+2iDgipoVIpXNSrFg+HlgRMEQD02/nzLQXXynEs1ctGLlTTsOTBT/nA/EAACQGBeEWjSSlheACQy/rH1+fk3/5DxjxbSIbFw/hh+Kw4bxqA3V/qSz8RK8Zv6VA/Nx/B5wx99k2/JlyaMrQfy5aKWPGkwxvDnS1FLqB0L5MlUU4033d/9udxq7KkgIsBn5FZOt68rcR/eRtiiEv9Po4raa1GJz6eUFKggAgAfeRGAamU5Q3Xy7J/BfgNX4q8GYwABIAAErgAB/PbaZJD4cE17Eufnj3HGnyx5i2a+xxTt4d3hsVn8HPKSTHwTN+gzcW/4c6U6vAQx2WO15EkvxBj1PG5Ced2WAtmDLfnSi4F8KUrQLO0Fsi8l63+m37vN5g/6crnjwlCFJ5fNn2m/s31/o5z+ilUt/o1VQzUmKhssFAFT5QMQT0CtPAeLANzc9bIs2WzPGfoDAkAACACBq0DAZZA8JjT+iV3+yd/6Jxh+U8IleKEEvTzuhC+PfbclT1rYZzT+i/BxI2/10bf5PvI7Nr6BAukbCYw+EQKrOn7AfZhcPxdHn0lq4nMTiLDJ5S74TNTH5mKsdPu0qkVfs2moR20aykL2epi4d4BgA6HYcsGkPoC7XiGq4JcG8ssDiScg7AWIioDxWlnOijptdsqrNNJ9HrgeCAABIAAErgABp4b6BhEAMcZfz652G5idbiN7hrz5R1z+se7+qEs8ahwj6/D52D6J64eT9cJv+uda8rmtgTzu7o487l9b8qXWOAM/jpcr4nh/a76sIpAvQ6S15stQawHfLrblyx64Aphu8OdJt4dyE0KrDby53MErMW6yMVwq5osOLb3YrqVskcqOGhpv7YwSiYAJJYOV4ouNKuqgRSV+CHsN+JUCClF7RADEhQIEXgDeG1AtzemG1QLJ/jrwPRAAAkDgGiHg0jOeGOPPJ/uxP8TTx5nvboNU7jGxz3gMbBPJfg+9+Qvi4XHGfxLDH0rcC7/ph40+duufjQqAsLHPk9/dWiDrCBt7YvRDx0LZ8UCRgrsSiD0Fks+15EkvR1cacKjFxF0R4SF8PotC8XGHlr7XqaGPOLT0GCnmFCsAkoiA0OZBgxYV9TauGhj/Bt+oFC2LWxVQVq8QnSVhAJwPIBQBNbIchFu1LHt1KffdlDdSEj4PnAMBIAAEgMBVJuA2Sv4iFAB8zN/EPpZoWoEC7gseI/Mjr4nb5DNxI8KYOD6PzeYPJfXFxPZjDT9x4Uff7kNv9sTYjyc0/gWy1naz9BuJ5jcX3wVyucXkGcIi4BKuCDgXY8X3ibf0dWppY5OO3kCWbeKlm8T4k2OsCKAingCrmnLZNNSTdpVInKzIT6OKUjYoxeOC/QJ8eOOhKiV1c71cvLJOLhoVJASSfABeAPBCQJrdWynLMcbPHT4DASAABIDAPCfg1tHZRABEMv0N3ItTTRtnhfvzOdqXyz3hy+Us/lx2jHeThzP6idHkj5MY/iRGnhcBbQUyFNMKZVX+O6+M8cXPj5YseV9LvqyFX2VAlh3mSndPxWamv/OhGQP7TJNBMoCTNMlyzUjJZm2sCLBraRQWARftGsl+q5r6uV2Tc8tU88CegEaluAtXCgxXCRxvUIkZ4X0NUuq2OrlodzIvQI00G1XjJst+x6LI+LjwXjgHAkAACACBeUwAG/JmA3M6YvyNOOmPW5/ulFvzVZ/25XF3+/KkONFvMCIAEmbtR+L45G0/cowz+KitUEba5dZC6a/nMts//pkDuTIjCU2ElxqiQP7sVhckY+JNfVxG9vsuI1Pu0jPjodwMfj+GUHVGwX4NvBCIioCzDi212a6m78JhAtJfKsdGpeiNuDLBy5PdVyfPltbKclzhFQG8JyDkAchBEREgzW6rkYmykvUB3wMBIAAEgMA8I+A2SA6SZD989BiZsplMEb85+wvkmS0F0t8HCqTVgXzpaMiQJjb8EaMfNfZhoy9H7YUTW1uh3NpRJFuMQxIzmedU9wbyZWWh5MPw0sMC6Rm3mfvoVPel87s3l/kvj4F5pdnAjBBPjAvvMqgnLSwCwlUbw16AE7iQk0NDFViMGTErKlId26IW6xtV4nEiABqV4l47x00az8chiVpZzuJaWc5ZLARILoBAAGBvwKUqLvtX10qRpFR5wXVAAAgAgeuSgNvI/oEIAJzt7zay3tl80C49/YlAobQ4kC9/szVfdpK4/RMb/okGPyICiuSoXdA6iuRj7UWyQx2FsjvxcsHZnHNbgTyTzDMiAgqkb8zGGNjr4jaxZreRKSPcsQeGCAB8jAoAhuzPcNKlY95u0jA6nJw5k3nYtJJPWVTifn7r4PCyQFwpMNU+61VZX66V5ewRCoAYEcBloyouezdUEUyVKFwHBIAAELhKBNxGRhZ68w8X+TGxQ3MxldYC2Q9aC2SXExn+iJEXvvGHjX1HkRyl0I52Fsn/1Fmg/txszL21QLqeCAB8xCIAi4KZ9O3WcZ/1mNjfe0xsD1lWGREAWHhNFAFnXXpmg8vA5ndws1frwKqmdmDjzwsAfFRSW6fzXDUykblGltMfTgYM5QKEcwKqeBGQ1Vohz57RXhHTmRfcAwSAABAAAikSCGglnyIGKbzU71KKt6Z8WVuh7NHWAtk4b/wFrv4Jhj89o486i+SRFhYJ59uL5K/OJFcgUCi9ra1ANornKhAB1pQfNu5Cv5HN9BrZd70m9iIpniTcVTAiAkIC4GIzX4OBuWu2ww14WlYVfb+VXxYYKQ50wqakpr1dcoVE8qkauWh7jAdAynsAsBcAtzOVbNadcUjgIxAAAkAACMwXAl4jO8CLABOLsJGarTdOnA/QWiB7aeJbP+/qH20rkL/Hi4Ap3vI7zQqUZrvUaVa81n6n/DPpMm4rlG2LJB8SEZAv+3E6/eAYeItJqveZuDKyXJLsI4D5kpoKRHi5jWyD28T9fC6XGNqVzH9Y1dQZXCkwUhxITc1KTYNaLue+Gmn2aX5FAPYChIx/WARkoQpp5l8hLyCdf0FwLRAAAkDgChHwGNlSbJTIGyrO6p/p0Lj+f1uhbGO88Q+/9V9qL1QUt5nl2xK49y/h79I0+MmuP9VZpPhdquWCOwql2e2F8vG2QjlZfYCXIg6n+jaOn9mXL73Xn8e648oH8xUSQyIgxNljYrvdBvavf3fz/+dMWU91P847sKqpOlImmBcAanElWnLD+6a6N9XfazjR16ql2bVEBIQ9AKiKy0KVXBaqYjI3WzKml7SY6hzgOiAABIAAEEiTgMfIvhoVABwK5Mm+mmYXMZfjXf5a86WlsS7/SILfhY4iRS6O13cWyS8LBUBnkeJy90LZV4NmxX91mZUPd5oVezrNigtdZgVK2IoVqEvYElyHhUSHWdHSaVZNuZlNR5H8sDAsEfIESP8Y83AJPgS02pv8edLHWvKkfXgJZKhoUKg4EvEA4KPXxJ33mri1PiMjm03jm2BKMV/Z1fQTuEwwEQBWFXXBohJ9M+aiWfiAhUYVl/23amn2eFQAZPMCoJLNQpVsVmMVNf2QwyxMEboAAkAACAABIQGPkVlM3v7xW2pLHvdd4e/pnPtMyptbC2TOJMb/fGeRTIv76yiSPxZj/ENu/nfjxwp8T3tT90L5oq5i+c6uYsXlGIMvNP7JzqOiYLyzWLEK9xc/Bv7cbpaa8Hz4lQbRZMSzkxUfcpvV/xbIl/4xkC8dERYMEpYOxp4Aby7r9uVxj+DrE409l9/Z1LTCpqbGhALApqF/N5dj1siyzFVc9mkiArAHICwAUAWb1VnKZcy6+JjL54G+gQAQAALXLQGvkftBSACEavy3mGQxFeFSffCOQu6bf8/270xi/M+0FSnluC8cD+4olLfGufrH2wvlk2aNd5i5zwaLlb/pLlZ2dRcr0eQtzjuABUJIDLR1muUi4TPhHQo7iuSdRJBERECR7CXhdeQcb1QUyJc92ZovO0WKBeFjnAg4589n38YVE8l9V/rokmd/xqahj5KNgrAHwKam6/Gb+lzPpUKefWsVl+0LiYBQGEAgAoYqpTnZcz0H6B8IAAEgAASmIOA3sloiAHhXdZ5MNcUtE34O5MtFrQWyodiYf8Ttf6q9ICoquoqU8jjjj2P4KZfZRRz3z90LVYu6Fypd3QuVKKYlFAZxYsCsuNxZrPgVeYgus+JJYvzJsb1IfiF+NUFngeRzbfnS59oKZGfICoFInYCoAGgN5Ep/gXc6JP1fjSMOMeDSwLhMMBEANjV1tlFDXbG9FHC54So2ewfJAxAIAOwJOFPFLuC9QVeDD4wJBIAAEAACeOc/E3M7yVLHAsCfx6b1P+ZAoczYWiA7i42i8O0/HE8f6ShQ5AhBdxTJ34tP8usyK9J+U0Zm8/u7i1X3BouVweBCJRK2iCiIEQQCIYBDDkWKdV1mVUanWXGRzxUQrkYolEf2ROjJl/97e6H8mbZC2VkicIgAwMdAvmy8NU96EJcPxisfhM96tc5tGupRslFQRACoxA9e6flgIVLNZb4YFwbAAgBVMFmXytgs85WeE4wHBIAAEAACYQI+I/NloQDw5nOGVOG0FUrvxQV+khj/oVazNEPYFzamOLFPKAC6zIpK4TXpnmMXfk+x6rHgQuUJoQgg57wYiAiBWBHQhb0BgmWGYQ/AyYBZ+ymfifpYh1n+h/ZC+QksZuKXB4Y8AdLXce2AdOc8l9fb9YzYrqEvxwgALXXgai7Fq2CzflHJZo1hLwBv/EMCAJUzmZfLmczvzSUP6BsIAAEgAASSEPAbZJ/HAiCSsW6SmpJcGvN1S57sd7jAD3kbjr79867/gUQx/Y5CxS+EBhfH5TvNCn1Mx9P8cNSs/VRPsXITMfzCY6wIUEZXD4STBIVzai+S/6XTLP9lZ5H8WCQfgBcAYRFQIOtvK5A+hsscT3Oqc3Zbk57+hFNLdwl2CcRx/xGnNntO905I5YEq2SxzJZt1Pk4AYBEwWsZm/jCVPuAaIAAEgAAQmEUCeN2/UAD4c9n8ybrHrvdAgew1YvgTvP33deYrEq5v7zQr3MTYho2/c7bfTIOL1Hf1LFIOCwUAORcmDkZWFAg8APzcihTHSS4APgpEQHtbkfSnQbPoxsn4XK3fMEeHlt7mwFsER7cJRnYtNW/esCu5bLqCzRoJhwCw8SdtrFSSdd/VYgfjAgEgAAT+IQngt0ahAPDmSQuTgcDFbgL50g04+S2xAJB2txUq/yPR/V3FSkpo/LEA6C5Wzkmp2IE75Z/pWaTe0ZMoNyBJOIDMDR9jBIBZ5movUtxzJbLnE3FL9TuHVvIgNv6khUMA06r1n+qY07munFlwewWbNRQSAREBgIXAWKkk8+7p9An3AAEgAASAwDQI4Fi3UAD4TGzCxCzs8m7N5yoSbe8bcv9L2zvNqi8nm0KXWb6aGFl+Sd5CRRv2JiS7fibf939f9ZHeheqVPYtUaDIRkNwLEN6EqFD25Gx7KGbyXMnudWiZ251ayQVi/HkvgIbuq5dn/Xuye67m99Vc5ncr2KxjFVEPAO8JKJNkXj4iWZBUgF7NOcPYQAAIAIHrjoCnQPI5b64gB8AozY1/yEAB94WWfGlzdN37BA9AS2uu6ovx95HPuDpgp1lxVigAuouVs1KLnoxBjsG71Fm9i1QtvPHHAiCRCIj3AiTIBQh7AUY7i2R/ttyf8QHS/3w7YgHn1En8Tq0k8vbv0NLjdg2lm29zFc6nnBH9VwWTOSAIA6AySSZuF49IsmYlL0Q4HpwDASAABIBAHAFvvvzrkQRALARMnEZ4ScAova0lX9odNf7SGPd/a4HMg9fIC++JP+8wK/5HaPy7zIqjqdboj+8r2WfsTehbpPpd352qS72LVAi3qAhIsEwwLAKSeQFiwgBF8vpkoY1k87lS3zv0krVOnQTFCAAd/fqVGn8m41RRmbeVC0RAWABgEXDuMJMpnknfcC8QAAJAAAhMQcCbJ80QCgBvHseRW3Alu5Y86XFc5S6JAHCmsnlQp1lhjREAxcrFZIzZOPZ/X/XlvkWaqr47VaiXtMQCoA0nBApXBaQoAFB7ofx0W5GiYDbmO1t9NOmYn/DGP1YA+N0c99HZGmOu+6mQZNxRzmSexJ4AgQBAZZIFw+XMHQmTSed6TtA/EAACQOAfggA2+EIBEMhn+VK5/jwuryVPeg5vcJNEAFi8+fIpY8xdZikuthPZsa/LrDiRrCb/dIAfvUt9T99d6pN9d6rRJAKgM7hQ9b3gQlXrDAQAFgHj7QXyP82Hgj8uHbWgSSe5ECcAztt14mnv5TAd/rNxTxmbLS1nMi8IBUCpZAEqoxd0HRaJPj8bY0AfQAAIAAEgEEfAa2TvjBEAJub2lnzuAX+edJQ3/gkFgLw21XK3HUWKZZ1FAgFQrPxr3BSm9bHrLv0neu9UbwgZ/pDxjwiAaAjgcs+d6ucGzdxHg4IaAdP0AGABwBcEai2S7ZhNEZMuALda9G9NOklHE37zJ00rQXYN/dN0+5ov11dIFhSWSTJHiQjAAqCU5kWAs4qiPjZf5gnzAAJAAAhcNwS8udyjwiRAv0m6zp+HSwKHtrZNIALKceJZKgBwNn5HkfwkjqeHvQDn2u+UfyaVeye75uhdamnfnapubPBJi7j+cQiAd/8rG3oXKW7H/QQXKh4ktQB4D4AgCbC7WL61y6wYCdclIPOMXQqI6wGEdwkkFQHbC2S2dtPMn2Wy50z0Gy6v26SX7MbGP0YA6JiNia6/lr4rpxfcHy8AsAg4Qi/YvXGOVoxcS3xgrkAACACBWSXgMXHLYpYB4v0A+D0BEgqAMrc59fhyZ6HiXpJMxwuAIvkrM5k8zsbvvUu1pPdO1ViMwRfE/XsXqc4EF6kXkyWG3YuUC4ILlReIAIh5+1+oWIPngwVNV7FycadZcTw8z1gBEN0iOKYkcFuBtL3VzH1tJs+U7r0uPf1/TfqQ8RcIgDaLQvHxdPuaj9eXMplPYRFAPABhAYAO05nPzsf5wpyAABAAAtcsAZ+R3ZNYAIS8AMQDEMjnStLN3O8oklcLBMDlyeoETAXwqFl7a89ClZ1k+Cc5bg2aZZGYMQ5TBBcq2xMZ/+5iZX388+Dlih1F8qc6iuQXybwFlQBRG9kToCBmGWRvaz73ranmPxu/u7WMzKWXjMYJgAs4H2A2+p8PfaAbbnhfmSRzV7wAOEIvQKXUgh/NhznCHIAAEAAC1wUBr4nzTSUAAnmybW6z+YPpPDDeJAcbT2JIO4vk76RzP7kWF+LpXaj4ec8i1bnosj7hEj/+vKt3kTJmDwN8X3ChYhsx/rGuf9VRoVAgY5EjXvLXXiTfjeceKwBkIQ9ArADAOwIem+tNgRwG2eddBmaAN/5hDwCO/zt0zE/IvK+XY0l29k1ldIabvP1j44/bYWrBxSN0Rvb18pzwHEAACACBq0bAqVJ9xGtiRycTAP486YbpFMJpK1K8IBAA4635qrTfkjvM3GeDC5UlxIjjqn49i0jjDf9ozyLV8zjJLx5iz0LFI+Q+odu/u1h5sXORLKU15u1mqam9UN4XSv6LbAbEb3ssLIWMSyMH8qVH2/LlX4+fx2x8tmRkfMClZ6pcegYJBYBDJ1k1G/3Pxz4OizO+WipZMESM/xGKFwDoMJXRhgXCfJwzzAkIAAEgcM0Q8BpYkdfEIiwAEosA6RoSS0/nobBrvb1QPsQnzmEvgFm+M5378bXdZqWpe6FykBjxBMfG3oXqOxL1G1ykyg4uVF7E98QafwXqXKhMa9MZvIVxW4H8PZL8h8seJzD+fJ2ElnxpEG+vnGhOM/muWSd5Dht/F37zj8b/LR0c9+GZ9Dvf7sXZ/hWS7FsPMxmqUknmD8okC/YkEADoCJWxdr7NHeYDBIAAELimCHhM7P9MIgBWTne9e1uh7E6SNY+9AJ1Fqb1xY3h45UBwoWK5cOc+bMSjAkBxKrhQ+XAyYRI0q/8tuFDZGWv4lai7WIE6ixWvTvcP1F4kM7cVyE5MIQBQS5404Ddyn5zuOPH3NRslhS49Mx4jALSSIY9O/KX4a+f752qx+NNVXHZOOZP5vQpJ5u/L2MzV5UzmgXIm010myTyVZAUA7/4XeACwFwAdpO7Ime/PC/MDAkAACMxbAh4TuyIkAEJeAFIPwJvLvTKTTXDaCmVHcMJcWASUpwqge6E8s7NY4SfV+WJEAL90T7Gt53vapHvb4zl3Fyt3xt6nQLi/zmJF2XRCGcK544z/QIHMQTwAYdc/efvHxp+0SrxzovDe6Zx7dfTXXQbmZMj4R9z/oy4dq5xOf1finlIu45PVskymUpp9fxWX/bcqNntLJZflqGSzTlWyWYjfBRAfmSyyFTDZCChSCTBRAmC8ADgkzvjllXgeGAMIAAEgcF0S8BhZj4cPAUTDAN489rmZGH9sJNsKZeMhlzn/9q+dCh5+m+8sVv6206y4xO8UiHyzaLMAACAASURBVDfnKY627mJFd/dCxYRNiuL77S5W/Cpk/KP38v0sVHQeNWs/FX/9dD4HzaIbAwWyVa2huH+kRDKulkgEAK6h0JLLrZ0JR4sx41+aDYyTGH/i/ndpmf+dzrxn+55aLueWGrlIUyvP+WWtNGdFDZddUS3NPlYtzUbVXDaqirQsVMllIWz8YwVAzFbAEeOfaAkgHwagFgwfpjM8R6g7Dh6hFvzlYEbGdbHscbb/LtAfEAACQGBKAm4d91mPkR2PCgBeBIx7c9lyf670D/586Xem7CTBBYF82ZOh7YFxxrzcPpUR7FjE3dJpVlQKywXj87AQGO1aKH8xlcJD3Yvkkq5ixWWhcAj3cbazMFQQKMF0p/1VIF/6i0C+dAzvkRBv/ENFlDgsAv5vugM0G5m3mg047k8ajv8zb063v+neVyMS3VivpBbUynLuq5flvFQnzy6vk2WP1MpyUA1p2OgLWtT4Zycx/tgDECMA+sskmdVlzIK3y+kFj5dKMu4rozONOOO/nMn8Yon2azP2pkz3+eE+IAAEgMB1R6DZyN7pMbKIb3FegGgogHW35EofSrX4D3axtxbIjmIXOR8rL5Ivmgxce6H87o4i+Qm83E5YLjgsBqxdZlXGZPeT33B1wS6zojfiPYhu7zveYZYvJNfN9rEV75dQID0zUQCEiin5crlRn4mVpjtus4H9cazxZ3DVvzK3+da0lmKmO26dNvumOjUlbVSIft2gzHmvXiHy1CtEo3VyEQq1HFQrz0HY+E9DABytYLMOl7OZyyvYrN/g0r+VdNZ3SrlbJ6zgSHfecD0QAAJAAAikQQDH/ycKgGgogIgAfGzJ5Y778qS/iS+cEz9ca4Esn8THWwtkgWSJerhAT1uR/D1SI0B47CySn+4oUjyS7N74MfnwgVlxJN6DwH8uVvw5/vrZ/uwr5Ba05EkHsPufvPnjSooCfkextyXVcT0GyR3NBuZ8rACQtKay8VKqY+DrcIihUZlDNShFDzcqxe80KsS+BqV4rEEhQrjVkyYw/nXY+E8tAIar2OzyKmnWa5XSzJ9WSDPZennWlJtGpTN3uBYIAAEgAARmQMBtZDvcxAOAjxEvQGxCIDFkofLAXCveIjjZsIF8WUlUAMgTFqgJFCm49kJ5t3CVQFQAKHa0LlJ9MVn/ib7vMiueTGj8zfKt013FkGicyb7zmaTf8OdJu5MIAOQ1sYdTmUuTnv5Es4FpjzX+zAmXnpnxtrgOHf11i4r6b6uKet2iopwWlXi0USVGjcpQa1CKUYMyzvgryJs/PsYa/1pZzqUaWY61WpazskaW/Ugtl6OokGR8bjJO8BsQAAJAAAhcZQL4LRMb/3gBEBUBE+sCYCEQEgHsmC9P+vv42H6bWfH/AvnSURwTb82X98VnweNKgm1F0qfbCmVjOEEwIgD48rrynk6zLD9dLF2FMmNnkXw8KiAilQedqYYt0h0z2fXePO4Wfx4XiHv7j9RY8JrYSbPWMc9mA7OTN/7R2P+l6WT847d7m07M2FTUozY1tcOqpgatagpZVRSyqMSRRow/Pk4mAOrlogt1clFjnTz79Tpp9v110uyMuQ5HJOMM3wMBIAAEgMAMCLj1zBNuA8MLgHREAC8A+I2C8D4BsndKOe6fyTT8BbIl2PiHk+J+Tb7Hx5Z8xX+2FshsfHIgzg8ojLTR9kL50lSS/IT94fOuAvlXOooUxycaf9kgTiyMv/5KfPYUSD7ny+W8xGuCd1kMFVnCXhX2nMfA/EeyebgNzKPY+Ave/sddesndya4Xfo83ArKrJXq7ln7aoaFrbRrqkk1NIdx4wx8+WgQCYOLbv5h3/TcoROfrlKL6eoX4tXpZzn01CtHtuBKhcDw4BwJAAAgAgWuUQLOB8WBD4zbyIuCc28gOpJoPIBQBvjzpuzgGj1tLnrQLJ8MF8qUjxKDjt9pAgfSnrQWyc9HQQChBEG+n21Ygz5wOQpyL0GGWW4XGn6/ZXyS/2F4kl0ynz9m6x2dS3uzP5QJYBAiMPx9i8RjZSrydb/xYzXpW6jYwowLjj5oN7G/iryOfLUbuk3atJM+plbzg0FI2u5YetWtohJuNbyHjHyMABMYfewEEb/+BeqV4TYNK/NNGheh2oagj48ERCAABIAAErgMC7lzJreRNM+wF2IONksvELfCYmD97jOxQNBSQOCkwGg7gwwJP+vNkWrIGviVf9gTG1G6Sf6YlT7on5BWIKZ97OlAo/+VMDE17oWyFMIQQOS+Qz4vd4twGxf/zmrgOUmQJ84wILCP7U+E/I5+JurnZwPTzxp+4/g3MUuE1AW32TU49Y3LqmKVOHe1yaOlxh5ZGpBHjHxIACYy/Grv+cROdsarEZRaV6K+NSspk00pmpTaCcK5wDgSAABAAAvOUQLOBeZIIAP6oZxYLp4rf3t1G9rceE3uSGLBEewUIRMC4P0/ayhe/yZOebc1XfTqQKzO25EsHSEggciyQ7cS5AsLx0j3vKJD9IGLwo9UGcc2BF9Ptay6vb9HTX/Ga2B7e+AsEgNvIDpOMfiyCmg1MBfl74DX/zXpmY41ZdCP2Crj0zBNNOqbWqZNcxjv/8U0riRh+LABijT/2AMS4/lutKuodq5L+Gbzdz+VfG/oGAkAACMxzAtjguPRMHzE4+NhkYEWJpo3L0HpMbFOKIgD58zhcCe/NllxuWUuedJz3CISL5ATypT0tedLCROOk8117ofzbbYWys4IcApJPsH8mHoV05pDOtd5c5r88JnaEvP1HEi8NzCu4H5eReZb8LcIFf0Zdeqa8SS85J9j0J2T4sQCIN/6xAmDMpqbsVrX4RbtKkudUiT+dzlzhWiAABIAAELiOCTQbWCOpLBc2PGcmS/DC2eReE7sxJRHAJweyJ0NL4SJlcccCedzLAa12xtu3tpkVH28rkLVEEgnDxYbaCmT+Lj39ifn6Z3PrWYnHyOI8i1DSZSjR73Kzgflds4EZx38H8jfBR+F2v03krT98JC7/8BHH/S02Df2cU0sb8RLC+coA5gUEgAAQAAJXmUCTXrJdaGzcRmb3VFPC1f28JnZvNC+AJLfFFLvhC9+ElgniFQK4Se3+PFnWVP2n8jtOJmwtlG0RJhKGz0fazdJvpNLH1bzGbWLNvAAIZ/mTt/5440/q/WPDH2/8nVr6skNH1zt11DM44x9X7buazwRjAwEgAASAwDVCwGaibm7SSy7jN0wiApoMzPdSmb5TpfqIx8jWR0VA8uRAXy53piWX+9VsuuRbC+T/izffiRMAo4FCqTqV+V+Na/CmQR4jl+c2smvcRnYEJ1wKDX8Kxv+SUyupadLRTzp1tIasrLgazwJjAgEgAASAwDVMoEnLPMW/WerxpjK8CDiTarEcj0mq9xjZXj6WHVcxcGKCINs70213hZgD+XJRIF96KZJIGK41ECiQPSK8bj6c8yETA2v0hIz+qTi3f4wAICIsdAz9TZp0krYmLbO8SU+b8dr++fBMMAcgAASAABC4hgngN3inTjJMXMvhOPPaqR7Jnsf9q9vILieGjCSzkcz2+NwAXPiGL4JjYs1T9Z3K7/xSwnxpT7zxb8mXvpXK/VfiGhx79+Qy93iN7EaPkT2DGRFeKbj9j+Gs/yY9fb9HJ/7SlZgvjAEEgAAQAAL/QAScOuZhsowsIgK0lHYyBC69RN9sZPqEFQOxQYuIgND+AaNeI/cDb2S1QKSEcMVkfafyGw4h+PO5I5H6AnmRxMJKXFY4lT7m6hq8uY/PxD3gMbEHPSb2MmESb/gTuP3PN+uZQ016ZrHTILkjUVGguZoz9AsEgAAQAAL/YASwIXXq6HYiAPCxSSfxJzM+2PXsMkhWCePVIREQLR0cFgLjbhNzL8aJiwt5TexZoUfAb5B+Zyao/bnck+HaAnh5Id/8edJOXGdgJv1O916PTvYlj5F7xGNiKz0mdoz3gggEUbzxJ/zcBqap2SB5zq3jNDhEMN3x4T4gAASAABAAAmkRcGgkd5PlYxERoJX8T6JOXEZG5dIx3TguTQyY8BjnDXhI2IfbxP5VGBrwmNjXhL+nc+4zSU3+PG48tJogsqrgtD9/ZqIinTnga7358q97c7lHvSa20Wtix8nzkTf+RO5+t4E53mxg3/v7rn73eNQS2B0vXehwPRAAAkAACMycwEaz+f0OLe0jAgAfcS4AzgkQ9o7fTJ0GZmmTXjIem5w2UQjwIkDP/lZ4Pz7H1e08RvYUbxxx5TsT2xe/Y2D8PYk+ewpkX/LlckN8LgHZgTCXG/flSYsTXT/b37mN0ts8Rm6x18RUEY/GlIbfyLS5DcxSj55TwC55s/0Xgf6AABAAAkAgbQI2DfUju6BmPC8EdPSfhR059Ky0SSfpiF0hEF0qyAsCwRI2l4H9q/B+4bnHxCwTvh1786QZwt+nOu/guA97czkbMf6Ro4n73VT3Tvd3LFJwvQJfLveU18QGJjP6gjf+i24Djv8zD7u0sq9Od2y4DwgAASAABIDArBPAb6J2Dd1JasWHvQCn8E5yeDDsBXDoJS87dZLxcF4AX3wmVgjEVqlzGSUvTTZRl4HjSCwcG0uvgXl8suvjf/MZuZVkWWFkRUEut346noT4voWf8e6FHpOM8RrZpT4T2z3B6Atq9xNBg3dMdBvZVc1GaSGsyRfShHMgAASAABCYVwSsavpnxPiToyP89u/QULRdS7eGQwLRWvPhCnSxIiDsDdBJVk1liHFiYdhQ8kvhmo2sJVUo4dUEiBhjLAR8Js5uMRpnJXGOr2hoZFReE7vca2L78TgR134Cgx9+27c1m5g/u3Ol2cmSJlN9PrgOCAABIAAEgMCcE7AoMj5uU1MD/M5w4X3i7Wp6xKakbsa14x1aeizsEeB3lsObzEQSBIUiAJ/zhYPoDTifIJWJNxvYTXyegIFfNTAeSGHLWZ9J8m2PiT0nNMheEzvozeNuSWXMZNfgkILPxJg8JvZtj4k9LuyfvNkLj958+WjggbvdbiPzE6eW+0KyfuF7IAAEgAAQAALzkoBVQz1vU4f3hcfbw2ooZNdI9tg1tC/iDYjPDQglCE4QAk6dZNdkGwbFA2jWSx4Rrhxo1ksmLdeL3ekeI+sTGmKPkb3kNXBcfN+pfMbVDd1GpthjYjd4TOzpuH5j6xjgMEWxdrzn2T+jk9XlaOz8eYQQGkplHLgGCAABIAAEgMC8ImBRib5pVVOXrEQA4GNEBMTuHz8hQRCLAKE3QC85hN+i03lAj45hhALAbZA8Ntn9HiO7juQNCI4PTnZP/G98NT4Dc4/XwO7wGNnziYy+oG/kW6Qf733hSXSqvhqNX7qEjb7wv3GEUFrPHD8f+AwEgAAQAAJA4IoTaFRRe7HxF7ZYb0CcCNDQfBhAGBLgcwO0TK2b4z6a7gP4TNTNMSsHjMzGZH1gV7sgXBDKGzCxbye7Xvg9v+wQr7U3srvcRvai0MAnOvfdZUQ9z/8lZPQvTzD6QgGAz6EsrxA2nAMBIAAEgMD8JtCopEwWlRhZVBSy4hYSAtPwBlA2vA/AdJ4WJwq69MyZaD0BSWuiftw67rvNBua80FvgMjC1Aa32Q4mux9+5cpkvuo3sQ24jW+42sqOJDL3biHMPGISFhf/uXNT36nPojN2CxkdH4438ZJ9zks0BvgcCQAAIAAEgMK8IVJmoj1lU4u6QAIiKAIuKetSqplzEIxDrDcC5AXEeAS3ttqWQuDfZwzfpJQ68t31YBIwH4vaux5+bDUyL0PjjfQew9yC+X7eJ+1qznlncbGDqmw3MeMw9gvoE5HvfPfmod9kL6HSTDY2PjU1m5Cf7rSB+HvAZCAABIAAEgMC8JNCoFL3cqBSjRt4DgAUA32px9r5NTf2RCAB8jIiASH5ARAS04pUCM31Al06yObzjYGjrYZPk28I+XXpmbdRDwNcauOTUsxJyjdtI3cYbfT1TRQz7ZEfffxfyRv9Ukx2NXr6ExsbG0Pj4ON8ms/KT/PYzMhc4AgEgAASAABCYtwQaVCJxo1I8xguAqAg416ihvoEn3aAUf1cQEiChgagQCCUJdts1M1t2RwA16SRPR3YdxEsJBTsPOvX0T7E4EHgIsKfgRy4dt6DZwDzZrGf8ceKAeBJijt4fFKGela+gk81OdOniRXTp0iV0+fJlNDo6ygsAIgImMfLkp4vkRHB8gjwLHIEAEAACQAAIzEsCOGbeoBS5G7DhFzaF6BHhhC0qUXtcboBQCPQ7w2JBeM90z506+qGYugJayY9xX3gL3Cad5IKw0FCTXnLKqZd0RkXBBHEQMfzuRQbUtfRpNGxtROfPnUMXLlxAFy9eRBcvXooRAEQEYC9Agv8GEEK7EEKL/37MQAiJE1zz5nSfHe4DAkAACAABIHBFCDQocv7coBChBiVuYr41KsRH4ivXWdTi52LyA8IrBWxqatiqiXXRz3TiTp2kME4A/BFvM+zUSVonlB1OWHiIFCCSIFeBErU/9TgarCxFZ06eRGfPnkPnzp1D58+f5wXAhQtYAEQ9AJdHRyNegLAA6EEIrUUI3Y8Q+mb8syGEbkQIXY4TAXvjr4PPQAAIAAEgAATmDYEGmUhcrxCN1mMBQJpSNJgojm9RUHRUAESSBE81qkVZs/1ATi2VQ5YV4roCTVrmTadeskkoCuLPhSEDl0mGWn//K9S3bxc6OXQMnT59Gp05cwadOXsWnT17NiIAzl+4EPECkBDA5cuX+0ZHRzeOjY1hg39bKs+GEHLFCYCGVO6Da4AAEAACQAAIXHECVRT1sXq5qA0bf9IaFKLxeoVYn2gy2CPQqKKOCkTA2QaliE107Uy/c6mYLxIBED6eJp/5QkPCYkO6aBli70P3oeCmd9HxniA6cfIkOnnyFDp16lRUAJyJEwAhL0DbxYsX11y6dOn+8+fPf3k6c0cIvR0nAFqm0w/cAwSAABAAAkBgzgnUycWr6+QihBsRAPUK0fPJBsbr8xuVopLwSoGLVrVIk+zamX5v14gzE1UZJCJAeGz+fgFqX/4SGnA3o+PHj6ORkRF04sQJdOIEFgAnIwLg9OkzvBfg7Nmz4+fOnVt/7ty5hWfPnv3cTOeK70cI/SJOAAzORr/QBxAAAkAACACBWSVQIxPl18lzUKiFRYBcZMFbACcaqE6e/ZkGpXhHOElwtEFBFSe6bibfOVXMlx1aerFDQ3sn1BbAtQYEew84TTLkf/w3KHigBB0bHERDQ8NoeHg4IgBGRrAAOBERAKdOnY54AXAI4OzZc6Pnzp0rP3fu3K+m+9YvfFaEkCFOAFwS/g7nQAAIAAEgAASuOoFqmfhLtbKc4dqIAMBCQDRSw4m+lmhyDYqc4gaFaCiUKCgea1CK70503XS+w0bfrqEes6kpB9lvIGYHQmGRIS2DPL/6GerYthn19/SgwcFBdOzYMXTs2FCMADh+fGR8ZOREOxEAE8IAE/MAxi9cuFB+6dKlHyCE0i5djJ8bIfSfcQIAf/zIdJjAPUAACAABIAAEZp1AiVb7oVpZTkOtLAdFmjzncp08Wxk/WKWe/kS9QrSOhAf4/ABlzgPx16X7GScYWtXUI1Y1VZe0uFCkwBCFHHeaUMtrL6KeJic62t+P+vsH0MDAAC8ABiMCYIj3AAwfP46OHx/hSwefOHEiY+TkyaUnT54aIHkAp3Ei4JkzkUTAc+fPR1YDhFcCnLp06dJShNAX03kuvPkPQii+bODn0+kDrgUCQAAIAAEgMGcEaqSiV2pkOQg3IgDqpNk/jR8QC4I6uShYL8wPkOf8Jv66VD/zCYTqHIVFTW20qKhLyeoJEEFg10pQ8y8eQG3bt6Ce7iDq6+tDfUePoqNHsQDo5wXAwOAgGhzEHoBjaGhoCA0N4zAAnwMQs3kQQugDp06dMp06c2b36dNnxmIEwLlYASBYDnhxdHR0VTpCACHUHecFSGkFQaoM4TogAASAABAAAtMiUCXNKa6RZiO+hUVAjSznZWFnNSLRjfXynKfq5DljMfkBspzHhdeleo7f9i1K8WKLStwhWD1Aygzzmw4JxYDjnkLke/UF1OF0oGCwB/X09KLe3l7UiwVAX1QA9A9gLwAWAOEwABYA0TyAxcnmd/78+S+dPn36z2fPnu2bsh5AqCrgubGxsb8ghG5K1if5HiFUGycAKPIbHIEAEAACQAAIXBUClfKsr1dLs09WS7MRblgEVHM5/5+984Bu7Kr2fmiPFkp4EEuWIQECfARSJ1NSZyYFyAshoQQIgVAeBBJ6f8ADBh4Zjz0uM+69V7lLlqxqyZYlq9myumRZbpJ7793741zpytca2ZbrOMmZte667bT70yzf/91nn70FknPn3koOqPn8mdPNj56xE5aBzf4BV8gyweyJr/3HzjyueeJBpuaJB1Y2RRf83DW5BqDlqbNg+NNvoL2uFnq6u6Gntxd6e11eAeAGNxIAfaQAQCJgoNUzDUARABQ/gLGxsWumM/zHjawCs7OzLy4sLJhQQKCFhc3xAJaXV/zDArsAYNtVDwDA9RMAAZdT+o8Fn2MCmAAmgAlgAodCQPv4iffJzp22kC9/794qOXc3ka4Xef4rHjt9UfHomVVyWoDcKx87nYKW/wUzMO3jD35E/cT9/1Q/fr/bE1WQElmQGmLYe9z6gxfAnJ0GTpMZurq6obu7G7p7eqCnhxQALnC7SStA/9jAwECc2+2+G41lcHBo0ucHQEwDIAsA4QewNjk5eVMw40VlAOBNc4uLX1xYWGjyhQVe9gsLvLZGJgdCcYHTtnLuA4BCPwHwjWDHgcthApgAJoAJYAIHSgBl8ms6d5rbdO40oE2OtvOn+2WPnfwY6kjxyP13KM6f1vlNC5D+Afn+4YADDU792AMnlY8/UKJ6/P4VisMgNbLgRojhZx4Hw//9FewSMXQ4neDs7ITOzq6tBMBar9vd5HL1v9Tf3/8uat+Dg4NmJAAC+AEYqeV2c7y4uPj40tKSjuIHQIQEDpAXQA8At/q3DQAJfgLgO/5l8DkmgAlgApgAJnAkBGRnT0XLzp2CJmI7DU1nT4+hlz4SBvLzp/4gP39qkbQM+PkHVFKnB/wHi4RB8/kzX1I+dn9DgGBC1MBChBBo+f7zYMzLBLvJDA5HB3R0dHgEgJMUAF3QhSwA3T3Q29vb09PT84+urq5rXrLkOAYHB4WB/ADGxsZSyTJ72QPAm5eXl7+7vLzcizIDUrMD+qUHHgSAM9Q+AOBffgLgh9T7+BgTwAQwAUwAEzgSAk2PnPqu7OwpIDYkAM6empOdO/1Q87kzt8rPnZISFgGvTwApAoj9udMCtFww0CDRdcX5+19sfuyMZSOQEBFHgIgoSEQVJFcOfP5haP39L8BUXQk2ux3s9nZob3eAw+EABxIAHU5wEgKgEzq7upa6u7vZPT09z/37RerzSwg0BnRtcHCwkuoHQFkO+OJWdXZzHQDetbS0dGllZWWVtAAESA88CwCPkO0GEADXrK4gy+I9JoAJYAKYACZwKATQi77x7KklnwA4e2pedu7k47Lzp19qOndqhpwSIPcUAdCgffrEJnM7GiCKBKh47P5/Nj96ZoT0DyCdBTcHFDoD6q88CbroS2BWKsFqtYHVZgObbUMAtCMBQFgBCAFgcHZ1/dLtdv/nbkAMDg5WbYoH4PUDGB4eDhjMaDdtU8suLy+fWVtbM62u+vwA/D7yYQoATqM6/44FcMnv5qZ0ytR28TEmgAlgApgAJnDgBGQPnfpk4yOnRhrPngLvNi87e/o7jWdPcUhrwKZpAa9/gOzsaRVKEEQdEPIVkD96Kl1x/tQiGT+AGkOAKgbUP/oO6PKzwaQ3gNlsAYvFCharlRABpACwtxNWgKmOjo6Uzs7OPWcR7O8frPbFAyCWAxLxAFzUsR/UMQC8fXV1NTmABYB83w+heAEAEE1e8O73HDfhoMaO28EEMAFMABN4gxBofPieDzU8crK94ZGT0PjIKbQtNp49nd141iMIKBYBQCKAIgQMqsdO+b7CZY+f+Ij8/Omr2/gIeIIJfe4hUP/h16DjcsFgNIHRZAKTyUwIALPFQhUA6za7vdFut7/o79C3l59mYGCAhQSAnx9A/l7aCrbO6urqd9fX1+eRL0CAfyoASPW7/tdg28blMAFMABPABDCBPROQnLv9xoZHTmrQy5+yDRNCYMMaQFgF/ISADZn4UccoT4Ds/Om0pnOnl7fyEUDOgs1fewo0sZdBp1CAXm8AvcEIBqMRjEaPADCZLUAIAIu132azXbJarZ/c84MFqDgwMCC7Jizw8PB/Byh6oJcA4O719fUBvxc9ebpIHnj3/3egnePGMAFMABPABDABfwLIq1/68Mka6cMnAW0UAeA79hcCXhHQi176DY+c/LDs7OmrsnOnFnwrBrxTA1QhoPj+t0CTnQGtLS2g07VBW5se2ggBYACDwScA1oxms9BsNj+n1Wrf5j/WgzjvHxiwe8ICe/ICoOWAQ0NDxNLGg2h/uzYA4JMAgAID7fTv0nbt4HuYACaACWACmMC+CKBAPdJH7sskX/7Uvb8QaCSnBgiLwMm+xvMnz8rOnk6UnT216LMKbJ4aAPnnHoHmP/8BNFwutLS0QktrK7S26igCQE9YAUgBYDQaX97XAwVRub9/YIyaF2B4eLg3iGoHVgQAPgYA3TsogKgD6xA3hAlgApgAJoAJ+BOof/C+SMlD94HkYbR5LADbiQAkChofObnW+MgpceNZ5CPgcRb0CQDv0sGmLz0BzZdeBXVDA2g0WtBqW0CLBEDLhgDQIQtA24YA8E4DDJjN5g/4j/Ogzs1m83/09w+sDwwMEImBPH4AI3kH1X6w7XhTAKNVAFv9iwi2LVwOE8AEMAFMABPYFYH6h0/+rR69/Knbw/cR0wBUEYCO/a0BXiHgcRak+AjIvvEMKK7GglKuAJVaDWq1hhAAGkIAtPgEQKuuDXRtbaDX6zX+fgBGozlrVw+yi8Iul+sT3AhKkQAAIABJREFUKDsgEgCkH8Dw8PD3d9HEgRUFgGcAIKBX4L/zDbx6YB3hhjABTAATwAQwAZKA+IETP0cvf3LbJAK8FgF/EbCdEJC9+E2QZ6ZDs6IZmpUqUKpUoFJ5BIBaowWN1mMF8EwD6KBVR0wDqJVK5Xvb9IYBvWHDD8BoMq+bzebHyLEe5L6/v//z/umBBwcHP3qQfeymrX8vAczcwgTwz920g8tiApgAJoAJYAI7EhA/eOKH4gdPrIsfvA/q0baVECCmBbaxCJw/A42/fAWaystBLleAQtEMimalRwAoPQJApdbMqjUeK4BvGsDjB7DW1tZGrOXX6fWvICuAzw/AsxywQ6vVXhNUaMeH26GA2+1+2S89cPcOVQ7lNgDcDgAV21gA/nYoHeNGMQFMABPABN6YBMQP3fe8+METq+IHT4Bn84qA3QiBxx6Ehj/8GhpYLJA1yaGpSU4IADkpAJqVoFQqm1QqzfNqtfYf5DSATwAQfgBtGeQvgLz99XpjOxIAm5YDmiy5ZJmD2rv7+6Op6YGHhoayD6rtYNpBiYDW1tZy1tfXV7f48icv/yWY9nAZTAATwAQwAUxgRwLi+088J3rgxIroAfLlT91faw24xj/giYdA+offQENtLTQ0yqBR1gQyWRMhAJrkCpArmufk8uZ0uVxNpN1FDncqlbqfFACEH4CW8AMYb21t/RB1wHq9/mvUaQAUEMhkNoPJZH2JWm6/x66+Pr5HAHj9AAYGvrvfNoOpDwAhq6urcWtra0vbRAUkX/5o/8dg2sVlMAFMABPABDCBbQkIKC9/JADIbcMSQIqBAELg8+dA8tc/g4THA6m0AaQNjf4CwCGXN/9GJpPdRB2EUqn8TmA/gJYfU8uRx3qDoXpjGsAjAMxmy4LFYrmXLLPfvdvdN9jX1wekH0B/f/8t+21zu/oA8P6lpaVXV1ZWZlFiIDI5kF9EQOQIuER9+wPA77ZrF9/DBDABTAATwAR2JCC4/57nhfffuyp84ASgjXz5U/cBhcAXPwfiiHAQC4VQL5GCRCKlCoC1xsam2qampidRGtxAg1CpVK1IAKjUGqD4AdQDwJsClTebzTSDwTh6TVhgs9VpMBg2iYtA9Xe61tk5FOJ29wESAF4/AOdOdfZ6/9/Jfd6xuLj4+6WlpbHl5WUiNXCA9MDoxV/z7+0eAEDhgKn/cDKgvcLH9TABTAATwARuuEF45t6vC+6/d0V4/73g23YSAk89DqJLr4JIIASRuB7E9RKor5eQAmCsoaHxskwm2zZynkKhfkxJrAbwCgDPcsA5rVb78e1+F73e9E2qHwBKDOQJC2xrdLlc79yu7k73enr6nnC73eBGAqCPmALI3KnObu8jMbSwsPDiwsJiz+LiIiwtLQESAMvLK4QIoFgA2ABwgmwfAJqob38AOPSASGTfeI8JYAKYACbwOiPAP3PvC4L7710V3H8vkJtPBCBB4C8EnnkSBNGRIOALQSgUgVAk9ggAMRIA0pb6+oYfKBSKoF7CCoWy0bMcUO1bDqjRtAT1VWs0Gos38gJ4kgMR2QEttmoAeMtef6be3t7fuZAAIKwA/Wga4Nt7bStQvdnZ2c/Nz8+3zc8vwMLCApACYGkJCQCPFWB1dZWzvAwn/esDALKMUP+94F8Gn2MCmAAmgAlgAjsS4J259+v8M/eu8M/cCwK0UUQAOqYKAcEzT67xIy4Bj8cHPl8IAoEQBB4BsCgS1ReIRKL7d+yQUkAuVz3a7LccUK3WKLaaKqBUJQ71ev27jUaTjpodcCM9sDXNv3yw5y6XK29DAPSB2+0OC7buduXm5ubumZ2dFczNzcHc/DzMz8/7BMDi0hJhBVhaWuItLy+f2aodAOBR3/4A8KWtyuLrmAAmgAlgAphAQAJ1p+55nn/mnlX+mXsACQBy8xcC/Ke/sFgXHQVcbh3U8fjA4wuAjzaBsFcoFP9FJBIRWf4CdrLNRYVC2eCJB4CWAxLxAJDp//9tU+WaWxaL5Raj2TwcKD2w1WqP3sqP4JqGKBd6XS69y0VaAPraKbf2dDgxMXHL9PR03szMzNrs7CzMIgEwN7dZACwu8lZWVh7YqYMAAuDcTnXwfUwAE8AEMAFMwEeAf/qer/FO37PCO30P8AgBgETAZiHA//z56brwV4FTywUOtw64dTwkANbr6vjiujrhVyQSyVt9De7yoKmp6fzmeAAqUKrVr+yyGaK4wWB5xGQyL1HSA4PVagObzQ52uz01WIsCagwtSeztdS15BIAbOQLu2ZIwOTl50+Tk5OWpqemF6elpmJmZAUIAzPoEwPr8/Dxrfn6ZCHQUzLMDgMjPAnBgKx+C6R+XwQQwAUwAE3gNE+CdvuerdeTLHwkAciOFwLkHJjj/+Nsym10LtbVcqOUQAmC6ro6XUFsr/PR+Hx19lcvkChUhAFBIYM80AGcvX+vkWIxG41dMZvMKcgZE0wBIAFhtHhFgs7UXBitWuru77+ntdYHL5QI0DeBy7X7+v6ur6x2Tk5O/m5ycHJ+cnIKpqSkgBcDMzCwSAWtzc3MVaEqAHH+wewCQ+gmATwRbF5fDBDABTAATeAMTqDt511fqTt29XHf6HiA3UgDUPXRyuPZ//zJSU10DLHYtsNkcqK3lWDgczk9ramrec1DYGuXybxIBgTbCAg8plco9TSNQx2QymZ43my2rG34ApBWgHezt7YJgsgd2d/f+oLe3F3qRACCmAdyfpPax3TGyNIyPj397fHy8e2JiAiYmJmFyctInAKanZ9ZmZmaKZ2ZmPrtdO9vdC7AKYN/ctusP38MEMAFMABN4HRBAL3/uqbuXuafuhjpi84qAMydG2T9/xVZdXgnVNSyoYbGBxSIEAGs/X+WBkHG53LfLmhSdZFhglBegubn56UBl93LNZLJ+12yxrFqsHisAmgaw2e1IAEB7uwP9u327dnt7exMoAmAs2OcfGxt7YmxsTDc2Ngbj4+MwvlkArExNT+dNT0/vyr8h0DgBoM3PAhDUaotAbeFrmAAmgAlgAm8AAuxTd32Ze9Lz8kcCwCMC7lqoO/9wZGVZ+WJVVQ1UVdf4CQD2sweNpkEm+y01L0CTQply0H1YLJZnLRbrnG8aAAkAOyEAwOFwTHV0dHxjqz57enrkPcgCQEwD9PG2KkdeHx4evnt4eJg/MjIKo6OjgATAGBIA48gCMLE8OTmZMTk5uW1MA7KtYPYA0EMRAMvB1MFlMAFMABPABN6gBDin7voi5+TdS5yTdwMXbafuBs7pu4Xs03d/orKy8q7KymqorKreEAA1bGQFWGIymTceJLLGxsYPNcqaxil5AWx8vf7dB9kH2ZbFYjljtdqGST8AjwBoh3aHAxyODujo6MhzOBzvJcujPYod0N3TM9vT4xEAbrd7y1S7KDXw0NBQ/tDw8Nrw8AiMjIwQAmB0bAxGR8cXx8fHk5D3P7X9gzgGgGmKABg6iDZxG5gAJoAJYAKvQwLce+98lHPyrgXOybsACQDOybvHau+76yW44QYizG5FRc0jFZVVGwKgmuW1ArA0B42jsVGW1dgoIxIDyZrky3K5/JpANwfZp9lsvs1qtRk8qwEIPwA0DUAKAOhwOrs7Ozt96+i7u7s/3d3dAx4B0AvdbvdT/uMZHh6mDQwMxg8ODi4NDg3B0NAwUATA/Ojo2NXR0VGGf72DOAeAt61vTg6gP4h2cRuYACaACWACrzMCnBN3nq69767p2vvugtqTd61zTt2Vxz5x4oPUxywvr37aJwCqaqCanAZgs4up5fZ73NDQ8EBDQ+M6EgBEdkC5/EjS2Gq12nfZ7fZswg/ANw3QAY4OZAVwgtPZCZ2dXayenp7bu7u7X/AIgB5A0wADAwO+TIRdXV3vd7v7X+3vH5gdGBiAwcFBGBwkBcDwzMjIyOWhoaFDdcgDgJs3v/9BsN/fBdfHBDABTAATeJ0R4Jy44w72fXehr32oPXFXO7IEBHrEssrKrxACoLIaNvkB1LD/L1D5vVxjMplvkUobdA0b2QFl6Npe2tprHVt7+/ft9vZpZAEgpgEoAsDZ2QmdXV1rXV3d3RQB0In66u/vf5fL5fqju69vfFN6YI8AmBkcHLzY39+/SVTtdYw71QOAT/kJgLyd6uD7mAAmgAlgAm8gAuy77/4E+8RdA+wTd82z77v7Ave2296+1eOXVVY+QwoAqh9AdTXrh1vV2e31eqn0Fyg9sFcATDU0NHx0t20cRHmr1Xqr3W6v3/ADQBYAJxACoLMLurq6obu7G7p70DRAT3lvb+/LLperfyMsMJEXAPoHkBVgKOKoXvzks/87CuAZPwEQSd7De0wAE8AEMIE3OIHqk5/9MOvEnd2sE3dI2Cfu2HHZWVll5RcrKqrANw2ApgCqWVDFYn3vIFCKxeJbJBLpNBIAUmQBkMlePIh299oGWtbncDhedjg6JjqQFQAJAM80AHR1dUEXEgAeP4A1ynJAb2Kgvrn+/v7owcHBm/fa/37qra6u/hcSABQR8Nv9tIfrYgKYACaACbxOCFTeeefNrHvvbGDfd+eLpJPfTo9WWVn5hfKKyg0B4F0OWMVi/fdOdXe6j1629fUSnkQiBQkhAGSlO9U5qvudnZ0hjo6O3I4O57pHABDTAF4rAGEBIPwAPMsB3fNutzu2a3iYdlTjC9TP6urqD9fW1qgCAGcCDAQKX8MEMAFM4I1EgHnixPuq773j1/5OfjsxYDKrTvkEAOEH4FkOWFPD/tFOdXe6LxZLvldfL4F6jwBwyWSym3aqc1T3Ozo6bu7o6LjS0eFcQgIg8DRA71JPjyuut7c39KjGtV0/K2trF/wEwGPblcf3MAFMABPABN4ABPh33rmn9fQVFRW3EAKgogo2xQOoZv15P9gkEglNLK4fFyMBIJWuicUNAZ0Q99PHXuqazeYbbQ7HH9sdjilPPACnZxoAOQJe4wfQu+5yua6iBEF76eug66yurmb6CYDPHHQfuD1MABPABDCBNwgBJpP5TlIAbPYDqMndDwKRSMwSiesBCQCJpOHyfto6iLpoOaDNZvuj3W4f84YFpsYDQH4A0x4BsMkPALx+AKre3t4Di+a31+dZXV3lkwLA6wfwvr22hethApgAJoAJYAI3VFRUjvimAVBEQE88gOa9ohEKhT8SicTgFQBtKP7/Xtvabz2bzfYeq9X6P1arbciXF8AXD8Cx7ujoqOvo6Hiys7Pzz52e5YDID2CZshzQGxbYNeV2u7+z3/Hsp/7KyooZCQCvCBjdT1u4LiaACWACmAAmcENZeaXEJwA2wgJPBZtCl4pQLBZ/XCgUzQg9AmChvr7+upipDQbDTWaz+W9ms2XMPz0wigfgcDjibTbbp8ixO53OctIPoLOz+3c9PT1/7O7pWSTDApPpgd3uPoHL5bouKXhXV1enVld9AuDAIzWSLPAeE8AEMAFM4A1CoLy8Ip6cBqD6AVRWss7uBgEK7iMQCJsEQhEQAkBU/4vd1D+Isnq9/maj0fyq0WSaMpnMYDZbgJIe2G2z2f7gdDo3mc7RaoUOp7OfXA7odPbeh8bS29v72Z4eVyuaBiAEAJEeuA/6+voW/h0N8O8Oh+PILBsA8N6V1VVYXV0lLABra2vHZkXFQfxuuA1MABPABDCBLQiglxTatri9r8tlZRU/Li+vhE3xAKpqoKaGHbGbhvl84V/4AiEQAkAo4h3WeAONyWAw/L+2NkOqwWBcMBhNYDSZgBQAZovFaLVav7eVM19nZ+edlHgAE1TLh1arfVtPT88/el2uZRchANxIAEBfPwoKNOAcGBh4ESURCjSmg7y2tLT0mZWVFaoACD/I9nFbmAAmgAlgAseQQF5e3rsP82XKZDJvRwLANw2w4QdgDbZfPp//CI8vWPEKgBEej0c/CpRtbW3ndW1t7LY2/bpebwC9wQgGoxGMRiQALBKLxfJfOz1De0fH78m8AE6nM2AOBJfLdafL5W52u93gRgKgjxAAKF8ADAwOWgcGhr8OAG8+rGdeXV190k8AvHRYfeF2MQFMABPABI4BgaSkzE8hAXDYQykrq+jzCYANPwCoqan5wk598/n8m+t4/D4eXwBIAAiFwq/uVGc/95HpvbW19TstLbrWVp0OdLo2aGvTQxshAAyrBoOJaTQaCTN+MP20t3eoPQKACA38ra3qoBd8b1/fT93u/kkyL0A/EgADZGKgIcPg8PB/u1yud27Vxl6vLy8v/5gUAGgaYGVl5fG9toXrYQKYACaACRxjAmg+PSUl5YnU1NR3HcUwy8or80k/gM3LAdn12/V/4cKFN9fV1fHreHwgBABfULZd+f3cU6lUH9VotJe02pZhbUsrtLS2QmurTwDMtbW1JRgMho/tpo+Ojo7bKPEA5v39AwK1hQID9ff3l3mnAbwCYBCGfOmBh0dHRkYiJiYmbglUfy/XlpaWXkUCYGXF4wcAALt6zr30ietgApgAJoAJHDGB7OzsdySmpHzjKDPmlZeXf90zDUDJC+BND1xTU/PgVgi4XO5fuHU8IAQATzAqEokONCUu+upWqVRfVKk0HLVas6bRaEGrbQFCALQQAmBYp9P/XavV7ikjn93u+AcSACg9sMPhLNjqOQNdd7sHzvf397f50gNvCAAYGRmBkdHR1dHRMfHY2NiPpqen/zNQG8FeW15ezl8mBADhB7ACAG8Lti4uhwlgApgAJvAaIBAbG/v+xMTkX6emph7pH3giIFB55SR1GoCSHtiG7vvj43K5ZznculVCANTxoa5O8G3/Mns9R1/7CoXyb0qlqkupUoNKrQa1WgNIAGgIAdDSodXqXkEBfvbaB3L2a293uMn0wE6nc9ehdZEDYH9//48HBgeHBweHCCvA8PAwDCMBMDIKo6OjMDY2BmPj48vj45PcycnJH05MTNy62zEvLy83LC8vI9M/2my7rY/LYwKYACaACRxjAvHx8aGJickRcXFxR7a8jIqjvLwigyoAqOmBWSz2VWpZNO9fy+X2cbh1gAQAl8tjU+/v5VipVL5XplD8QK5QNigUzevNzUpoVqpAqVKBSuURAGpNi1qr1T53ENYRu93+5fb2dkACoKOjo2s/TnxdXRPvHxoaihgaGpobQgJgGAmAEUIAjCIBMDYO4+PjMDExAROTkzA5OeWYmppKnpmZ+drCwsJHduK1tLTURQqA1dXV8p3K4/uYACaACWACrxECCQkJn4xPSGInJibeeL2GzGRWPhTYD4AF1TWs9ZqaWuILH83719ZyBLUcLhACgMub4XK5YXsZN1pm19TU9KRMJi+SNcnnm+QKkMsVoFA0g4IUAErVmlqtrmnWaM7tpY+t6tjtdvlGWGDn37cqt5vrIyMj9KGh4YShoZEl7zQAjI4iATC2IQAmkACYhKmpKZienobp6RmYmZkZmZ2d5c/Pz1+anV341vz8/P1zc3PESgpkZVhaWlomBcDKysqF3YwJl8UEMAFMABM4pgRiEhI+Exef2I5EwPUeYnl5hdxnBfAuB6yqrkECAGrY7GU2m/19Npvzv+xaDhACgFMHXC73j7sZN5utfVd9Q8NXpNLG/IaGxvHGRhk0yppA1iSHpiY5IQDkHgEwrlAoL6PpgN20H0xZm832qM1uB7snLPCa1dq1a7P8dv0MDAzcOjw8nDMyMrpCFQDj4xOEFYAUAFNTSABMIwEAs7OzMDs7B3NzczA/Pw8LCwuwsLC4sLi4aF9aWgIkAJaXCR+A57brG9/DBDABTAATeA0QiE5I+OTVuPj++Pj4Lx2H4ZaXVz/tEwBEeuAa8AmAGjawWGxgsWvXCAFQywUOh2tnMpk7ZsuTSCQfFIul35FIJJX1UumcRNoAUmkjNDQ0QgMpAGRNhABokisMCoXypf3M7+/E0mqziVFuACQAHA5H1U7l93p/YGDi1tHR0bixsbG5sXE0DbAhACanpnxWACQAZggBMOsTAPOEAFiAxcVFQAJgiRAAy+j403sdD66HCWACmAAmcAwIxMbG3nrlarzralxC0jEYDjEEFDSnvKJSj6ICUsMCV1ezUGRAqPEIAGCzOVBby0Ff/08GGrtIJPpPgUDwZYFAdFUoEhtE4vp1sTc7YL1ECh4B0ADSDQEw39TUlN/YqNhV+OFAfe90zWq1PmC12YAiAO7fqc5+709PT39wbGzswvj4+AjFD8AnAKaRAJhBFgCPAJibn/dZAXwCwGMFWASAt+53PLg+JoAJYAKYwHUiEJ6UdFPMlTjzlavxg8jz/zoNI2C3lZWVj24KC4ymAKoJP4BNAoDN4bBQA2w2+10cjuA+Lpf3ozo+P5HH5+v5fMGagAwLjBIDicSwSQBIpCCVNiALgFba2PiyRCI5MgYWm41jtXoEgM3WLg0I4ZAuAsDbx8fHn5+YmJRMTk6u+/kBbAiAuc0CYHFxibACLC8v6w9paLhZTAATwAQwgcMmcOHChf+IiY2TxF6Jg9i4uBcOu7+9tF9eWVnqCwhURZkGQBYAVi2aBgB2Lcdey+H2cwg/AM9qAG88AOB7owJ68gJ4BIA3PTDU10tG6uulcfX1srv2Mrb91LFYLGcsFus6KQDsdntAC8Z++gi27vT09KcmJycjpqamnTv4AfimAZaXlwuDbR+XwwQwAUwAEzhmBKJiriTHxF6FmCtX5TvFqb9eQ6+urv5wRWX1ApoGoMQDIKYBvH4ASABArccPwLMaAAUEquMDj4wKiCwAAhEIieyAon6RqD5RLBY/ehBL+PbCBbE2my3NlPTAbceF/+zs7F0zMzMXZmZnW2ZnZ1dIR8Br/ABWVv60l2fHdTABTAATwASuM4HLMTHfj465AoQAiLn65es8nE3dM5nM25jMipfKyitLyysqh4P1A6AsB4Q6MiogsgDwRV18vjBWKBQ+hJYObursOpyYzeYXNqcHtm4Z9/86DM/XJQC8e2Fh4ezcwkIduRqA9ANYXFz8vK8gPsAEMAFMABN4bRCIioq6PSr6ygISALGxVzqu15cwSSs/v4JeVFr67ZLS0qwSZlk3k1kOzLJyKCuv8GQGrKCEBd7KD4BcDogCAnHrXNw6PpPH4/1EIBB8guznOOzRigKTyexCAsBssYLFajUfRRrf3T77xMTE+2dnZ381Pz9vm7vGD2BxHQA+sNs2cXlMABPABDCB60gAhfa9HB3TEhUdC9ExsRAVe/XnRz2cwsLCmwoKir9cWFwcX1RUYikqLoXiklIoKWVCaWkZlDLLNgRAgPTAvuWAm/0AUDyA7r0GAjoqBkaj8YLJZAaPALCA2Wx75qj6DqafycnJ+6anpzNnZmbmtogHgPwA2oNpC5fBBDABTAATOEYEIqNi/nY5KgaiotEWuxoVFbWn5DW7eSSUSTAnp+BzeXkFEXn5hZr8gsLVgsIiKCwshsKiEigqLvEIgBImlFAFQFkFlFEFACU9MBEQiLoc0OsHUFtb99+7GdtRljUajR82Gk1zSACYzEgEmJuOsv+t+kIJfaampr45OTmlIlcDEPEAKMsB0RTA/DwKCERsu0pWtFW/+DomgAlgApjAERGIjIz8eOTl6AUkAAgREBWrOIyukZUhMzP3oaycvL9l5+Q25OTmLeXm5kNuXgHk5RdAfkEhFBQUQQEhAIo9AoCwAiABwPRYAJjlY8yyilpmeUUbGRb42ngArE3LAVE8gFoOdwzlBziM59pvm0ajkWU0msBoMoHHCmB+aL9t7qc+MvOPj4//YWJiotebF8AvHoAnKiByBPSLB/DL/fSL62ICmAAmgAkcMYGIyCh25OVoQBsSANHRsX89iCEgx7qMjIx70tMzf5uRmcXNzMyZyczKgazsXMjOyYWcnDzIoQqA/ELIJwRAERQWFUNRUcl6UXGJtaikNKuYyfxvJpN5O/KKR1nyyssrelF64E3xAIj0wJR4AKxaYHuWAxJhgWtr647dF6rBYPiWwWAEw4YAqDkI9ntpY3h4+LbR0fH4sbGxGZQYaBwlBqLkBZjayAuA4gHoZ+fm6sjVAMgCgPID7KVfXAcTwAQwAUzgOhC4GBn5YERkFESizSsAYmJi7tvrUJKSMj+Vmpr6clpaellqesZoWnompGdkQkZmFmRkZoNHAOQQAiDbJwDyCQtAXn7hXH5+kbSwsPjVgoKSL+bmVgbMUV9aXv4s4QhInQbw5AVoq6pmqYhpgGv9AMATD4D74l6f7aDr6fX6m/V644ieEABGMBrNq2az+TMH3c9O7Q0NDT0wMjJSNTIyukZJDxwgLPD00tTUVPH09DRhoZibm0ukCIBlALgmJfNOfeP7mAAmgAlgAteJwKXIy+KIyMtAiACPAFhFgYCCHU5cXHpYYmLKi4lJKbnJyamu5JQ0SElFWzqkpmVAWnoGIQDSM0gBkA1Z2TmQTVgB8npzcvKKc/LyfpGXl3cf+rIPpl9mWZmgjPAD8K4GqPSEBa6oqHmqooJzSzWLNbYpLDDpB+DJDjjH4XDuCKafwy7T1qYvadMbQG8wAGEFMJgSDrtPsn1kSRkcHHx6aGhItlN64MnJSdfU1NT/zs7O0sj6aD83NycjBcD8/GIL9R4+xgQwAUwAEzjGBMLDo++5FHEZ0EYRAJ3bDTkhIeE/4+ISvxYXl5SUkJBkS0hMgoTEZEhMSoGk5FRITkGbnwAgrABZyxmZ2aqsrOwrmZk5X09PL9hTet6SkpJPMpnl60yqAPAsB5SR466pqXmKSA/slxeAEg/AzuVy30uWvx57nU73bFubHtr0etDrCQEwqNPpDj3csNls/o+BgYHvDgwMmgYHB2FoaAiGhoZheHgEUHpgZAHwZAccXx8bGxNNTEx8JVBsfyQg/r0ccJLwA5gjMgMem3wR1+P3xH1iApgAJvCaInDpUkRG+KXITQIgMjJaQH2IxMTEG2Nj45+MjY2/fOVqXOuVq/FrV+MSIC4+EeITEiEhgSoAUiCZEAGEABhJTU1npaVl/CklI+MR5PFPbXevxyUl5fErWdQdAAAgAElEQVSl1HgAxDRAFZRVVz9MbbOaxfozkRjIzw9gIyxwHT+YLIHUNg/quLW19UM6XVu/DgmANo8AMBqN3zmo9gO1MzIy8h632/2bvr5+V3//AAwMDAASAIM+ATBMCICR0dHJ0dHxuNHR0f8XqB3y2sTExK3EckDkCOhJD/w8eQ/vMQFMABPABI4xgZiYmHdeDI+YoQoAZAWIuBydERV15ZGoqJh/REXHyqJjriyjqIAoL8AVtF2NB58AIEQAIQDWEpNSTElJyemJyWnfQ34Ah/HoxcXFoaWlZQu+eABlFYAcAcsrqjiB+qupYWdS8gIECAssKD3qCIDoy7mlRVfbqmsDXVsbKQCk6HqgZ9jvtc7OzpDeXverbrd73N3XB319/dDf308IgAEkAAaRBWAIhoeHDUMjIz8ZHh6+MZg+Z2ZmvuqXHpgRTD1cBhPABDABTOA6E7h4MeLZi+ER4BMAm6cBIIqICYCCAnnCAseSIsAjAGbi4hPEV+MT/xkfn/TkUWULLClhxvuWA6KIgJ5pgNXy8vI7A+FMTdW+rYbNFnoTAxECwDcNQOQF4AGXJ0gOVPewrmm1ul+2tOqgVacDnY4QAMttbW0H7vjncrlu6+npTe7tdS24XC5wud3gdm8IgP4BZAUYXBocHCwZHh5+ZLfPOz09fZlMDzw7O4sDAO0WIC6PCWACmMD1InDxUkQaVQBs9gPwLAf0RAVEAuBKV8yVq4VXrsT9LC4u7p4LFy4E5ax3kM9WUFARVlzCXPAJAO80QHl5xbZzz3w+/92s2tomNpvjSQ7kcQQELpcHXF9eAH7SUVgCNBrNPdqW1sWW1lZobfUIAF1bW8RBcnI6nfd1d3czu7t7Vnt6eqG3txd6kQBwkQKgD/r6+90DAwN/HRkZoe+17+npGRkKCoSmAebm5tL32g6uhwlgApgAJnDEBC6GR1pJAeCzAniWAi5FRkY3R0bFxERHX/lqRER86BEPLWB3hcWlCZvDAqO8ABXjRUXsHSMWIoc/NpujJrIDIgEQID2wQCAoPUyfALPZfKNGq7VrW1qhpcUjANra2qwKheJAls51dnZ+rrOzU9TZ1QVdXd3Q3d0DPT090IMEQC8hANbdbrfY1d//1UBOfQGhb3ERRQicnp6eJwXA7Ozst7coii9jApgAJoAJHCcCly5det/F8Ih1JABIEUBaACIioh87TmNFY8nPZ95WVFyySAgASljgsrKKoPMV1NbW3sSu5ai2Tw8sENTUNL3nMJ5fo9HmarQtoNW2kAJgRavXn95PX2jZZHu783mn06lzOjvB2dkJnZ0bAqAbCYCe3qneXld8d3f3p/fTF7Xu1NTUqenpaSDCAs/OogBAH6bex8eYACaACWACx5TAvyIi7iNf/lQBgETA5cuXj1UKYISwoKi4lsgLUFwKJYQAIMICm1Fo4d0gRtMBHA6H7+8HUMfjAw+lBxYIQSAQ2kUi0e27aXenshqN5mdqjRY0Wq1PALS06F7dqd5W9x0Ox9vtdvuLDofD7nB0QEeHE5xOp58A6Lb19PT8saur68CXFk5OTv4FCYDpmRkkApxbjRNfxwQwAUwAEzhmBC5ejPjKNQLAuxwwMjL6e8dpuEVFRU8TYYFRYqCN7IDrxWVl5/YyTolE8g4Oh1vFIdIDU/0ABMAnRYBQNCWor//SXtr3r6NWq8+q1JpltUYDGo1HAGhbWg3oJe5fdqdzu93+Qbvd/ne73T5ib2+H9nYHeARAB3QgAeDsXO7s7Crt6uo6u1Nb+7k/OTkpJQTANOEDkLWftnBdTAATwAQwgSMkcPFixPf9BYDPD+Dy5V8d4VC27So7O/sdBYVFTm9eAPClBy5hZmxbcYebTCbzLVxuXRwhAkhHQN4mAQBCoWhdLBaH78cvQC6X36JSqYdVag2o1R4BoNG2LCNnwB2GuOm21Wq91Wq1xlmttlmbzQ42ux3s9g0B4Ojo6Pu3BeDv3d3de3bq29ThNidomeDU1NTS1NQ0IBEwOzt7bEIrbzNsfAsTwAQwAUwAEQgPj3iFKgA2TQNERv3juFDKLyz8e4D0wINMJvMDBzFGDof3U24db6Wujg+8TdMAIiQAQCgSg0gsbq2vr9/1Mj2tVvuuZpWqValSg0qlJgQAmgZQa7W/C3bsJpPpLpPZXGg2W1YsFitYrTaw2myARIBXAEgcDsdzWq12V1MhwfYfqNzU1NRTk5NTZHbA9bm5uUMXHYHGga9hApgAJoAJ7IHAq+GR39tKAERERBbtockDr5KXl/fZ/PzCRf/0wCUlJd88yM44HN4XeDzehM8PgE/4AYCAFACiehCL6xdE9fW/QZaDYPpGQX2am5UlzUoVKJUqnwBQabTVwQT8MZlM5w0GU53RZFr3pAe2ABIAFishAqZttvYkh8Oxa1ESzNh3KjMxMXGVFABTU1OtO5XH9zEBTAATwASOEYHw8MtfDiQA0DRAeMRl/fUeKjK75+Xnt+Zfmx44YMS//Y6Xy+V+vI7HbyMcATf8ADwWAMIKUA/iegnUS6Sa+vr6Ezv1p1AoLiualdCsVPoEgEqt6ZQZDDdtVReJC53B8JzBYFD7pQcGs9kCZgvx76cOh+O65jCYnJy0TE5OkhaAi1s9D76OCWACmAAmcAwJvPpq5L3XCgBfVMDF6xHoh4opJy/vX3n5BbBZAJRMFBcXH9pyM+QcyOfzM3yrAZAFQCgCEVUA1EtAKpWu1Usb80QiUcBUxXK5/BW5ohkIAdDsEwCLSqUyoHCw2WzvadHpXtK1tdnJvAAb6YFNayaThW2xWB4PxnJAZXgYx2NjY2ETExNAEQCb8i8cRp+4TUwAE8AEMIEDJBAREfGei+ERa9eKAE9ioItRUdsmgjnAoVzTVF5e3uncvPyVvLwCyCMsAIXg8QMoeeGawodwgScQ/JAvEM4IBFQ/AGIaAOo9VgCQSBtAKm0YkkobX6amMJbL5d9skivWCAGgaIZmwgqApgA0P/Yfqkql/2hLiy6mpVU3RQkLTGQG1BsMAwaD6Z9tbW3HKr7+2NjYD0gBMDk5NYkCAvk/Fz7HBDABTAATOOYELoZH6LcSAJcuXf7R9Rh+IpN5Y05unj03Nx9yCQFQAPkFhVBQUMw8yvHweLzbBAJhs58fADkNABKJFAkAkDY0QoNMZm1sbHymsbHxMVmTfKlJrgC5XAEK0gqgUkVTx67RaB7UaFrKtdqWVRQRkMgL4A0L3Naml+n1+m+ilL3UOsfleGJiohwJgImJSWQFKD8u48LjwAQwAUwAE9gFgYsXL8UFEgAeP4DIml00dSBFkYk7OzeXmZOTBzmEAMgHzzRAwUBRUdGO4X4PZBCURtCXvUAg+ptQKF7ZPA0gJQQAYQVAAqBBBo2NMmiUNa3KmuTQ1CTfEABKJRMA3qzX69+tVKpfUqk1OnI5IIoI6A0LPKvT6VJbWowBExpRhnRdDwcHB989Pj4+N74hAH54XQeEO8cEMAFMABPYG4FXX4047y8A0Lk3HsDshQsX3rG3lvdWKzMn57fZ2bmQTRUAeQXreXmF/7W3Fg+mllgsPiUUie0isdcRkDoNQAiARlIAAFUAyOXNMoVCcU9zsypOqVRNEssB1Z7lgCggkEbbYtNqtb/UarXvO5iRHm4rY2NjXxsbH4fxcWQBmADkD3C4PeLWMQFMABPABA6FAPI6vxh+ye0vAsiAQJeiop48lI4DNJqVlXU2KydnJcsnAPIgNy8f8vLyYwIUP/JLKISwUCxJFovr1/38AKABiQCPBQBksibCAoCmAZoUzXqFonmd9ANQqojlgKsajaZKo9E8cRyc+nYDcmRsrGRsDAmAcSQADLupi8tiApgAJoAJHDMC4eERf91SAERcLj6K4ebm5jIys7IHs7JywCMAciEnNw+9/NX7icJ3GGOvr6+P8C4H3OwHgARAo4wQAIQVwN8PQKlaVSqV4Vqt9iOHMa7DbtPlcr1zdHRsZmxsjBQA/zzsPnH7mAAmgAlgAodI4PLlyzdfDI+YoYoAwgfAkxdgKTIyknaI3d+Ql5f37szMLHVmZjZkEgIgB7JzciEnJ28iLy/vo4fZd7BtC4XC9wmF4p+JRGLTxjSAvx/AFtMApCMgsRxQLdBqta/JqHmjo6PPjo6OIbM/KQB2Fco4WNa4HCaACWACmMARErh4MTKcKgDQMTkNEBEZFXVYQ0FTEOkZWayMjCzIoAqA7FzIys392mH1G2y7PB7vXj5fmCYQiGY3wgKj5YASv+WAjSOBpgHQSgDqckAUEVCpUg+pVKpvvebM/yOjBaOjo4QAGBsf7wqWIS6HCWACmAAmcIwJXLgQ+/6L4REDVBFACoBLEZfnYmJiDmUtemp6ZkJ6eiak+wRANhDTAFl5V68Xrtra2pvq6upeqavja3wBgVCKYDIsMHIE9DgDdkskDeENDQ13SCQNFwIJAGI5oMKzHNDPDwDlBZCoVK13Xa/n3E2/KGvhyMjIJBIAo2PICjBxLPwydvMMuCwmgAlgApjAFgTCwyNeuFYAeIICRURElW5Rbc+X09IyfpeWngFpPgGQBZlZ2ZCRldOYmpp6pMFlkCWitrbu81xuXTGXy1vgktkBUUhgvgAEpAAQi4dFIlFifX39g9QveKm0oZmIB7DZD2D9mngAlLwARHZAjWZdo9FUtLS0HOvlfyMjI18cGRmBESQARokpABz9b8//83FFTAATwASOIYGL4RFFpAig+AFARGQURERFPXtQQ05OS/tmalr6WmoaKQAyISMzCzIzs93p6ekhB9XPTu2wWKzPsNmci+xajquWwwUOpw643DrwCQBPeuAZvkCUzxeLn6RG/CPblslkN0mkDauEAGig+AHIFC/J5fIfyeUKl39YYM9ywE3pgdc1LS0irVb3LBIjZNvHZT80NFRICIARQgAMAsCxG+NxYYXHgQlgApjAa5LAhQsXbrwYHmmlioBLEZc9AiAyajQ6OnrfcfiTUlOfTUlNW05NTYdNAiAjazE9PfvMYYOrqqq6tbqa9T81NWw9i8UGFrsW2LUcqK1FAoALHI8AWKqr49XU1fG/yWaz37XdmOrrG77uDQtMXQ7YTabnRfkF5HLlb+Xy5pGNaYCN9MDeeACAggKhqICtrbr+1ta2+NZWwyMogNB2fR/FveHh4RuHh4dnh4dHYGSE8AFIO4p+cR+YACaACWACR0zg1Vcvf/ZieMQcEgEUPwBCBFy+HN2GcgjsdUhJSWlPJqekLqWkpEGKTwBkAPIDSMvMPrTQwxUVFfSqqpqfVVRVy6uqa9arq1lQU8OGGlIAsJEA4CzWcji1HA7v+zwe7wPBPmO9pIEnkRB5ATxhgYlpgMaX/esrlcr3Njc3/2+zUt1HTQ+sJgICaX0CgAgLrNOBTtcGbW2G/rY2Q7zBYDgbyPrg38dhnA8NDb0wNDwMHgEwglYAHFlsiMN4HtwmJoAJYAKYwDYEwsMjn0eJgvynASIvR0NkZLTowoXUbb+KAzWdkJDyWFJyykJyciok+wRAOqSlEQLgwJ3+mEzmR8oqKn5VUVEpq6ioWquorILKqmqoqq4BJACqa1hIAMzXsGsr2WzuC2ipX6Bxb3dN0NDwiXqJdH1TXoAGmZvL5b59q3rIMtDcrP6GSqWSef0AAFkBfGGBWwkrACEAdG16aNPrieRABoNxxmg08Yxm85+MRuMDpIVhq34O6vrQ0BB3aAgJgGFAjoAAcCxzFBzU8+J2MAFMABN4wxMID498KfxS5DppBUB+AJGX0RYNly/HSC9duhT0CzMuKenhxKSU2aTkFEjyCYA0SE0jBADnoOa9mUzmp0pLy/5YymSqmWXl62XlFVBeXgnlFZXgEwBVNTNV1aySmpqa51B0v/380OL6+hgUFRAJAEpegJeCbVOj0dyj0WiSNRrtqIbIC+CbBoBWXRvo2pAVwCMAKOmBwWQyg9lsmTVbLEKz2Rpus9meczgcH6c6JgY7hu3KDQ4O3jw4OLRCCoDh0dHs7crje5gAJoAJYAKvEwKvhkf+mioAPCIgGi5HxUBUVIwtOjr6kzs9akJCyhMJiUmziUnJkJi0WQCkpKYb4uIK3rtTG1vdz87OfkdRUdEXikpK4opLSjtKSphQUloGpcwyYJaVQ1lZBRAioKJyoqKqKq+ykvVMdrbkQPIbSCSSG8Xi+nG/sMDmvZjq0de8RtP6pFarzW1paZ3aPA1ACgADGAxGMBpNhAAwmQkRABaLFaxWG1htNrDZ7JPt7e2S9nZHrN3h+KHD4bi/q6vr/Vvx2+n6wMDAzwYHh2BoaIiwAAwNjX1upzr4PiaACWACmMDrhEB4xOW/IEdA0hmQsABExXhEQHTsTFRs7JYZ4eLjk56NT0haTEhMgsREqgBIhZSUtMGEjIxbdoupsLDwlryCgp8UFBSzCwqL5wqLiqGouASKi0uhmBAATI8AYJa7SssqUpiVlV84jHDCQqH4gjceANQjCwCxyb642+fxL4+cBlta9E+3tuqSdLq2TmQBoEwDEALAaPKIALPZQggAi9UjAmw2O9jt7WBvb4f2dgc4HB3Q0eGEDqfT7XR2Cjs7u652dXX9uKur66zDMfAh/779zwcGBhWDg4OEABgaGsbe//6A8DkmgAlgAq93Amg64FLE5RXSAkCKgKjoWIiOuQJRMVeFUXFxt1M5XImP/3ZcfOJKfEIiJCQkQYJPAKRAcnLqXGpq6mlq+a2OL0gkb83Lyzubk1MQkZtXYPSkBy6E/IIiKCgsAkIAFJVAUXHpanFxqaK4tPTPTCbz7q3aO4jrEomEJhKJZ6hhgaVSqfgg2vZvQ6/Xf0qn1/9KrzdwDQbjlMFoAqoAMFssQBUANrt9kwBwdHQgAQBOZyd0dnZBV1cXdHV3Q3d3D/T09I729vY2ulyuVLfb/av+/v7P9ff3E6JsaGjo4wMDA+tIAAwODcHg4PCB+2n4Pys+xwQwAUwAEziGBC5divr8pcioqUjCF8A7DYAEgFcExMReXY69GpcZE5N429Wr8T+5GpewFhefCPFo8wmAZEhKSllJTk7b9ks5IyPjtszs7B9lZecys3NyJzalB84vgLx8nwAYLCwqKigqKv12UVHRB48Km0AgShGKxEARAEsiUeMmAXQYY0G+Emaz+W6j0fxzs9lcajJZ3IQAoE4DIAFgJy0ADiAEQAcpADqhEwmALlIA9EBPby/09rrA5XKD2+0Gd18f9PX1z/T3D/QODAzAABIAg0gADAYl2A7juXGbmAAmgAlgAteZwKVLMXdEREb1blgAYoC0AsTEXoXYK2iLW71yNX79alwCxMWjbbMASEhKvWbKID09PSw9PfPF9IysnPSMrB5PXoBsyMrOgezN6YHn8vIKeHkFBb/NLSq686Cd3oLBKxKJbhcKRSs+AUCEBpb8K5i6h1HGbrczzGbbMxaL7V9Wm41vs9nHPAKgHdodG9MATmQF6CStAEgAdEN3D2EF8AoAF7iQAHATAgD6+/uhHwmAAUIAdFwP1ofBC7eJCWACmAAmsEcCKHtg5OXoOuQISDgD+iwAV8AjAuLgytV4uBqHNqoAIPwA/o66TU5OvjklJeUbyalpKSmpGe2egECeeACevACesMBZWTmzWdm54uzs3AtZeXmPxsXFbbm8bo+Ps6tq6AuczxcqfHkBRERegA6FQvHOXTV0yIWtVuutdrv9WbvdccHh6Kjp6HD2bDMNAL3ICuAirQBIAPRBHxIA/R4BMDAwgFP/HvJvhpvHBDABTOA1QQB9DUZExfz2clTMEmkBQL4AGwKAFAGkACD8AOwJiclXE5NSjEnJKeuB4gGkpWeOZGRk1aRnZv4WRQU86pwAO8EXCAS/4ZN5AYRiEInE6yKR5PGd6h2H+y6X6wNOp/Oxzs7u33Z2d+d3dXWbPX4A104DEAKgjxQAA8ga8Onj8Ax4DJgAJoAJYALHhEBUVNSJqJjYdlIE+ATAFaoASAjkB4DiAUwlp6Q1JaemX01JSX8xLS3tM8fZzCwSiT7G4wtmCQEgEAFKDywS1Scck58i6GE4HI73dnZ2vtTV1W3ZSgB4/QCIaYCBgYGWoBvHBTEBTAATwATeOARQaODo6Jir0TFXVgkBQPgCUATApmmAZGI5YEJSStxxftn7/3pobX8djyfbnB5Y6NhvICH/fg7z3OFwfMbpdCY7OztnPasBgvQD6O//9WGOC7eNCWACmAAm8BonEBMTcyom9orOZwXYwg+AXA6YmJwmSE5OZrwWHpvL412q4/GBEAB8IUoPvMoXix847mNHWfvs9o4vOxwd4o5tlwP2TLtcLmYAP4ClgYGd4wUcdw54fJgAJoAJYAKHTODChQtvjbkS9/vYK3FzV65SrADESgDqagAUEZCICjiWnJz29UMe1r6a53B4z3DreOuEAPCkBwY+X3hhX40ecmWbzfYpq90ebre3u8mAQAGWA652dfXwuru7X+jv739XT0/Pc/7LAd3u/opDHipuHhPABDABTOD1RCAqIeGW2KtxBVeuxq+RywEDxAOg5AVIZWXsISrgYTPj8Xi3cbi8CW4dD+rq+MDj8aGOLxAfVO6Cgxy/0+l8n9Vqfclqtcm9YYF98QA2LwfsNHZ0dv6+t7c3lNp/d3dvsUcAuDzxANx94HYPPEUtg48xAUwAE8AEMIGgCFy9evXElbgEcdwmP4CAYYFReuDZ1PTM3x8Xz/+ampr3cDhcPYdbB1wuEgA8qOPxB0QiUUhQD38EhZAQMRqNnzOazQVms2Ue5QUgogJ68gJshAV2OIY6OjquOByOewMNq6ur6x09PT3TpADwxgPoA4C3BiqPr2ECmAAmgAlgAkERiItLeiouPtHkiQjoFxY4xS89cHqGKS0ta9tIgUF1uo9CKDkPu5bLq+VwgRQA3DreCo/HO7+PZg+kKnJINBgMjxsMplSj0TSyOSywVwBYicRAi+3t7WUOh+PpnVIH9/b2fqmnB0UE3IgH0NfXd+lABowbwQQwAUwAE3hjE7hw4cKb4+MTvxGXkKQnHQE3pwdOJ9IDe4ICZUJ6eqY0KyvruoSfZbNrM9m1HCAEAKeOEAF1dfzr5g2PXvo6ne4JnV6f1tamH9HrPZkBDcaN7IAoMZDZYlk1m631Vqv1xwaD4aZg/8d1dfXk9qCogBthgdf7+vo+FWx9XA4TwAQwAUwAE9iRAFr+l5CQ8kxiYrLGPz1waioSARmQlp4J6RmZkJGRtZ6emVWZnpNzYseGD6gAi8X6G4tdC4QAqOUCh7AC8HIPqPmgm2lqanqPRtP61ZYWXVZrq26kVacDna4NUHZAJAD0BjI9sHnVZLJITBbLK0ajcdfTE2az+T+6u7vHqWGBe3t7m4IeKC6ICWACmAAmgAnslkBiYsoXkpLTJMkpRHpg5AfgFQDUsMDZkJmVDVlZ2bysrLyzu+1jN+Wrq9k/rWGx1wkBwOZALWEF4KhQit7dtLPXsgpFy20ajeZXak2LUKPRLmm1LdDS0gotrTpobd0QAG16w6rBYJDo9aZXzGYzba/9oXrd3d1PUbIDeqYBent/sJ82cV1MABPABDABTCAoAikpKXclpaRlpKSmL6SmpUOazwqQBRmZWZCZiURADmShxEDZucrs7LzvHHRegOpq1o+ra1jrNSw2sFi1wGZzgM3h9LLZ7EOLVaDX69+tUCi+0KxSRSuVKptKpQaVWgNqjQY0Gi0gAaAlBEArEgBrOp1eqtMZfrrflz71R+nu7s6jCgDkDDg8PHwjtQw+xgQwAUwAE8AEDpVAamrqB1PT0/+cmpbu9k0DZCIRQAqAHMjOyQVveuDh3Nz8S3l5eR/d76AqK2t+UFVds1ZdwwJSALDYtRMsFu8z+22bWh854zU1NT0sk8kvyOWKRrmieVnRrITmZiUolSpQEgJADWq1RwBotC1rLS0t0paWlp+q1ep9felTx0Eeu1yud3Z2dU1R0wN39/YmkffxHhPABDABTAATOFICaClgWlrml9MyMmvTM7JWt0kPDHl5Bev5+YUN+flFP8zOzn7/bgdaWVn9/cqq6rWq6hogBEANG4mARRaLte/pBqbZ/B9SqfT+xsbG3zc2yuoaZU2zMlkTNDXJoUmuALmiGRSKZkIANJMCQKWeVqs15RqN5gdKpXLXc/q7eX6n0/kV/7DALpfrjt20gctiApgAJoAJYAKHQiA5N5eRnpXzl4ys7I4schogJxdycvMgNzcfcvMKIC+/APILCqGgoGihsLCkvKio6Hkmk/m+nQZUWVn964rKqvXKqmogBEA1C4mANRaLtafohEKh8H1isfhJsVjyr3qptEEikc5LpQ0gbWiEhkYZNDbKAAkAGSkA5ApCACiale1KpTq2uVnzOHLK22ncB3Xf6exkegRAF3inAWQH1TZuBxPABDABTAATOBACaPVAZmbu+azs3JzsnNzJnJw8yCEEQL5HAOQXQn5BERQUFkFhUTEUFZUsFZWU8opKSn5cWFFxC3UQqK2KispXKyqqoKKyCggBUFUD1dUsqGKxfkUtu9UxWtbI5YpuFwgE3xMKRYlCoVgvEonXROJ6ENdLoL5eChKJFCSkAGhoJARAo0cALMvlclFTU/OvZSrVJ7fq4zCv22y29zidnXNIAHR2kQKg+4XD7BO3jQlgApgAJoAJ7ItAdnb2O3Jzc7+cm1vAzM3Ln88jrAAUAVBYDIVFJVBUXALFJaVQUsKE0tIyWwmzPL60vPzpsrKKlPLySiivqPQIgMpqqKqqQVv0VgNjsVgf4XB4X+VyeRF1PIGEx+NP+7IDCj3pgYUiMWwIAAnUbxIAssHGRllWY6P8a0ql8r1b9XNU151O58tOZyd0dnZ6BEBX95DD4Xj7UfWP+8EEMAFMABPABPZFIDMz8z25uQXfzssvZOUXFC4QFoAAAqCklAmlzDJglpVDWVkFlJVX+AmA6hL0VY+sA2w2+xNoGoDFZoejiIBsNnfIFxXQm9FmCpkAACAASURBVBfAlx1QQGQHBAESAaQAENdDfb1kvl4iFUokDf8jlUpPAsCb9/WgB1y5o8NpdDqd4EQCoLMLurp6wg+4C9wcJoAJYAKYACZwNASYTOaN+flFXy0oKM4vLCoeJywAxaVQXMIEnwBglgOTKgA80wBzlZXVKVXVNY3V1axp32oAFBDIFw9gIyywNy8ANT0wEgCrQqFYKRLVvyoWix89qtgBeyHb3t7+SEeHEzqQACCsAF1r3d3d+15NsZex4DqYACaACWACmMCBEkDhc4uLix8rKimNKy4pcRICoLQMSgkBUO6xABDTAP5+AN7VAL54AN6ogCgiIAclBqoDIjsgj7/E4wnkfD4/XCAQ/BeXy73uZv1gATocHaV+6YFrg62Ly2ECmAAmgAlgAq8pAoWF5Z9gMpk/K2WW1TLLymfRNEBAPwDKckAUEMgvLPAwh1MXXsvjnWcyFe98TQHwDtZisdDbHY5lqgBwOp3XNfnSa5EjHjMmgAlgApjAa5AAl8t9e1lZ2WPl5ZWRFRWV2orKqtXKymrPagCKACCCAlHyAnj9AFa4PJ6uro6XzuPxfiIQCO5jMplHtnRvv7jb29v/2e5wgMPRAWgawOl0dhw3/4T9PiOujwlgApgAJoAJBEUA+Q5UVFQ/XllZfam6uqapupq97O8H4MsOiKYAuDxyGoD0A1gRCIRmgVCYJxCJfikUCh9CIiOozo+wUFdX1/vt7e0T7e2kAEAioOMXRzgE3BUmgAlgApgAJnB8CdTW1t5UU1PzpWoW6xKLVdvAYtfO+QTAZj8A4PEEwOcLgI9WAxDLAcUg8qwGWBCLJa1isaRYKpX+VSqVPtfQ0HDH9RQGNpvtX3Z7O5ACwNHRMYniAVB/iQ984APvZdBoz/lvNBrtdgaDcTcjJGTTdMFtt932dlSWRqN9iNoOPsYEMAFMABPABF7zBJBDIYfDua+2lvtzDodbyOHWOQlHwDo+8Hh8jxWAWA7oFw9AjAICUeIBSBugoaFxtaGx0dEga2LJZLIImUzxg6ampjMSrfaDhwnKZrOF2mz2GVIAeKYBnDH+fYaEhNwcSqNdQhuDThti0ENSiGNGyGOhdPpVBp22SqPRbiXrhYaGfIlBp61/mE5/hLyG95gAJoAJYAKYwOuWAPL6r6ure4jHE/ySJxDkEVMAAuGaLx6AqB7EZFRAMiAQGRUQhQVGEQE35QUgwgIvKhRKZ7NS2aRUqZhKpfqqSqX9o0qrfU6r1T6k0Wg+ttf5eqvNVmCz2QEJAHt7O7Q7HKvt7e0f2+4HYtBDdB8JCfGV8QoASSiN9juyXhidXsSg01RYAJBE8B4TwAQwAUzgDUcA5QIQCoXnhGLxz0QiUapIXC8X10smiYiAEikEmRcAmpWe7IBbpAdeaGltdbS26hQ6XRtbp9Pn6vX62LY2w1/1etMrRqPxOyaT6asWi+Vxq9V6v9lsvttqtT5ttdrWPQLA7hEA7e2VO/1AgQRAKI32UwadLkd1Q0ND38Wg07iMUBoTC4CdaOL7mAAmgAlgAm84AkKh8CNSqfRJqbTx99LGxrSGhkZpY6NswJsXgMgOKCezA16THlhDTQ8M2pYWaGlphdZWHbTq2kDX1gZtbXrQ6w2gNxjBYDSC0WgCk8kMZrMFzBYLWCxWsFptgASAze6xAqBgQDv9EAEFQGjINxh0uuDDN9/88dDQkG8yaLSXsQDYiSS+jwlgAm94AmFhYe/8CI32mQ/T6Z8Po9O/wAgJORMWFvaBNzyYNygAlBNAJpOdkMkUzzc1Kf4mb27Oam5urvdMA6iWlSo1ICuAWq0BtUYLGm0LaLVUAaADnY4qAAxgMGwIAJPZIwJIAWC1eUWArb0lGORbCYAwesgPQ2m036MXP/IZwAIgGJq4zGueAINO016z0Wis/T4Yg0Yr8W83jE4PmJkrlB5SSZYNC6Vd3m/fuP7hEzhxww1vY9Bp0Qw6bY5Bp4H/RqfTN2WrQyO6/fbbXzNryw+f4BuvByaT+Ra1Wv1hlUr1sFqt/rZaq/2tRqOJ1Wq1RS0trQ0tLTpba6tulhQAbXqPFYAUAEbThhUACQCLdcMKYLfbXwyG6JYCICzsA+hvUBg9pAq1gwVAMDRxmdc8Af8/3OT5h0NCPrvXh0NONsiLlmxrY0//TaA2GXSanSyDxECgMvjasSLwJkYojU3+ZgH20zfccMObyBEjK0FYKO0CI5SWRF7De0xgKwIKheKder0+rNVkukuv1z9qNBq/rjcaXzaazX8ymSyXTCZLotlszrZarUyr1S6w2Wx8s9kclLhEDn5hYWEMsu9QGu1vDBrtKXTOoNPy0BQAOg4LpSWE0WinyHJ4jwm8LgkE+OPt+ZoLpf1zrw/MoIf8KXC7WADslelxqseg0b4W6PcNo9OmGHTaGoNGU5DjRWusGXSakyhPo2WR1/EeE8AEMAFM4DoTCPSH3HvNutehMWg0feB2sQDYK9PjVC+UTi/c/PuGxN56663v947xLR+76ab3keNl0EPcvrK7EADo6yuUTg8npodotBq0XCs09OYnqJYFsg+8xwQwAUwAE9gDAd8fZ8887jT1PCwk5I7dNklE19qYE/abBggsAEJDb34gNDTkcbSFhd185277xOWPlgCDTlNT/p/03HDDDW/ZagS7FQBISDDotAr04kcBWZAvAYPBCGN4grakh9JpDYH8C7bqH1/HBDABTAAT2IIA5Q85MGg0lteMu+dpgLBQ2j98bdJoCt8xIQoCC4AthoYvH1MCDDrNSv6uoXQab7th7kYAECFb6TRVGJ3+VQbj5vsZdPpLYXT6j9A0wq0f+hAN9YNWGSALExYB21HH9zABTAATCIIA+Yec2IfSmMgRhnJt19MAVIe+sNCQX1DaAgYdC4AgfpJjX4QRSuvw/a40WvF2A96NAED/98Lo9G+j9ogVBqG0fu8KERWDTltg0GjfRfeQxSiMTmvE0wHbkcf3MAFMABPYgYDvDzn6QkcCwOO05VvWtRuTPJ1Ov3ejPXo7+kO9cY6Wih24AHgLmqZAX4xhoSHfCg0NecY7bbGlSXoHHDeEhIR8NIxO/wqajiC/Oneqg5KGMEJCHg1FAUVotK+hCGIMBuM/d6q33X1iJQWN9lRoaMjzoaGhz9Lp9If32+YNN9zwVmJuPTTkS6jdMBrtSTqd/undvkipAgB5VW/3HMEKABSExftSJ5rzCgA22XZYKC2SQaf1kucMGi0LxR4gz/EeE8AEMAFMYJcENr2gQ2lMtFabQaeNb1wP+b9gm/T+kfZNHwQrABg0msjrKY68xZN36g+Zf9EyHQadNrIxzk1r0ccZ9JCY0NDQLZORoNCfZJ/ekJ9vDqPR4lFiEEqbaww6rYwaO5wcG7EOnkb7HoNOawm85JG2ygilNXuXFfmWxJH1A+2R8xwjlPZP9KKjjMEnxggPezpNG0qjvbKbNfVIxDHoIfkMOm2Tj4evj1BaP4MeEnvzzTeHBBoXusag02wkL0YobdlXl06b8V2n05xhNFqmJ7Qq4fmPfs8VSlnUP7pGbGFhH/oE2V9oKO1nYaEhPyfPrxUAIf+D6pH30cs/lEaLI8/xHhPABDABTGCXBCh/nAkLAKqO/ohTrtuCbPJNDDqtm6yHviyDFgC7iAOAXhQMOm2e7GeH/TD6cg40fgad5iLrogh26GVCnvvvQ0NDP0VtA517X/zUl/M2x3T5LR/8IJ3ahv8xiqa3zYs/UNv2IObB38qgh/zLT9QEaou8NoMsA/5jQ+cMOm3Jn8sW5xwGnf6/W9wj+yH26JnJvlAAKPQ7kOdeAdDhyeAWksJAIsW7XhuVQZYa5LNClsd7TAATwAQwgV0S2PSHOpTGRNXR1xX1ejDTAJtf9vQ21M7ma1tPAVD9BrYLBMSgh/yZOi7i2DNPXIC+YNHXOoNOG/QrMxtoNQNVADDo9ItbfMUjUdRMRcpgMD4ZwPKAvnIlRJpRekgagx7S5P1ap77werd6YRNf/nRaz+Zx09sZdFq5R5iEpCBnu2uFD719G0vAm7xf/dQxoOMudN1r7UC8xjb3iwI40X9FfWZ0fOgWADo9nJqXnRQAaJyEYyqN9nXqmJD1YLv/K9Sy+BgTwAQwAUwgAIFNf/y9AgDNFW9+yYX8K0DVTZeoX9BhobQ/opsHKQDCaLRzfi9V5BT2sv8StJCQkHczQmlRm56LTkNxwjeZ4TcJgA2T9hiKWId8CTwe6CF8Bp3+E/JBkZd6GJ3WuantUBo7NDT0I2QZcu8VCtJNZek09f9v70zAbSmqe3/u8H1Gv2ci5HJ6rao+1xvDM2oGHKLBp0meGuchxqgxxtkEjfoeRhyeqMkLCJnEoEYcg4pJREENKsQ4gLOC4gAKAuExCMokIFzGy73nfau7eu/avbu7VvWwh3P/5/vOt3t31/ir2lWrq1attf/++9+pCFN8ZtbIxkcnd4vme/HM/8xslOdbF96kzgf5YYrrUpoS/irRTyieF58iQEh7lZb175Bjd0WY8ucQOgDG0PPFgFSRl78FYJlfJEKAb8FN9D7ETkARHp8gAAIgAAKRBCYmqLEAsCJvs96z8wLJbjFMP3Hh9xDRDgnfpwBgmL7plUcmydFycVXZSuVfLyuMTQgATOtSflFEq0qruGeJ3uCVYd0pwNUqHDp9ilMm4yQHF+kVn5b5u0UYMbJT3K/6zBQOPR0Nw/Qf5XCy3VBaLbjWGHOvcjj/uygaTgpYfH5ZuCrCDyEAiP6B2GkX4VPy8QWAlZWVzZKn6H14ZfjUGtEDi+/4BAEQAAEQiCRQTDzZpy8AJMnDJ57Z1QPqkhYN+HHY3K+2hO1LAJCBfpy+bCUk76wrS3E/Mx4jZmlHb9aTcaYEAKKXFnGrPnfs2PFzlpPrxunRpdu2bbtrVVj/npuw/WV20WTPJrki3OQyfFjp0hp6u0yWbovgL4t0is8JZczc/sKzi2dNn06xcry6ULFiIPGHEACydJmPkBWY/JqOEn8DRXlTTg6Wo4Ai3IiegpxYKZ7hEwRAAARAoAUBb0IbKQG6ZPy3epl0a7cBTLbvnWvh+5rcfQkATpFtNDFV7elXVV3eImUPWbTm0yT5LT9MWQAIHfmbFHIyIWS0XO2nW3UtCm4TnJPkQD+c218v6nfp2to24z+PvbZMZ3v5/ajuTb6crqzc+KsAdasRQwkA2dYT0UliTEq2W/bbb7//5pVxi7gZzny1E31NnnvPcAkCIAACIBBLwJsoygJA5hHLe165DeDcwhZvuHf4E2lvAkB+TDCbIGWpPraOVeFLAsDoeFlVWLnnjucVk/R6jLfE7Az/aCWC1o2hV/v5iJc8j7Pk8VPRfncnGCZWC/x4Vde5noDviTF5V1W4unuW6dvjsiSXVYUbUACQ7Lbk1iT5u6LHIPoYxiRPNESvFIVMOSYqeh5V5cI9EAABEACBCALjwT43BORHLU9c1tr7+s/lWo5mjdPgz/rPexMAmM7x8viMn0fb6wkBgOhzoXQMJ/8yLgPdrH2rlnTlTdaLK6spE5OyM4IjnvRGAoZ3fa019GFL9DxfuKorr6x0eHHF+NJIibEujn+/dAR0XbY+/OdyPbAAkGUnRo9S5j9xboQPMyZ5oa8EWC4TvoMACIAACEQSmJgspvdVN09YcmM+opy8bzrYmOQF/vMeBYBrRuUMmJ7182+6nhAAmE5oCivPRNluVAaufjNuSsMy7RzHpxPLYcXT3aQuQKUwsCdXhuRX1G0TpESP8/IRRcWnlPNq+i6a9X78qnxmIQA0lRHPQAAEQAAEeiDgD/ZVilXufL17M800w0e5pml6Z8950K3bt2/fZ/SwPyXAzRNn9CNcyvplKV+XBIDjys/L38XHvceqcjukHMf/nh3DG7/hn+I/K67lDV8sGFqmK728qlYF5N6tNhfIJrYIxPKgH7d8+qHIq+5z6qRDut/+5bAQAMpE8B0EQAAElpCAP1lUCgDifW08ca372wCZ1zb3LGX+93L1e1wBGFv+G2YFICwAMH/G4yCKdVF/mTObMcepFQA/MdGrMMY8SpQYDdP3vXyrhIEP+HGnfDlErgCkRH/n54cVAJ8urkEABEBgAxHwB/sqAUAM6OTW44ol6fE2gIQv4jub9xNkehMAMlv1ef4pJ/85kUnLL9ErALIPP57Ao3QAnKU/b/KePJIYqoIxZi3l5E/l2F9JkMjSdL4MsmSMMQ/xyik6AC8Kpe8/t0wf8OLvnpcOgF8mXIMACIAACAxAwBvsp04BFNmVzpVnvgGMMXfx9rV3Vmlm9yYAMH15VE6iy4tyhT7FWJBojRuiV4kVPN8KXwsBQJz0jCZx3459sBy5FcNR3PIpgFB8/7k4OJLz8X5Z5BRBEabiFEDQZkIRVz4t01le2pUrHdgC8InhGgRAAASWlIA32NcKAMz8AD9c5riG6KnFvTqXsH0JAOVlaTGzq8GdMr+3KKM1dL1YlCvixQoAU/4RnLnjIr2mz8yqnSc8+G/swlKOuElZxR2u6FU0pSXP3IqC72VvQqegbFdAe2Ihc7AzYTxpWllR8ocAEGohPAcBEACBJSAwmiBlgpo+BTCqgSW6YBRWTOJ6S+JyTnsU0LvoSwCQCXOUd17ON3nZVF7KROr7M0g5+bgfMFYAcCsehb0DeZu/uGrVw89DruU4m2Uan2Jgutp34FNW2vMd4pTT8r/7SoVlAay0YrNe5+HPT0+ufX8OGW+i55XDyPc4ASBz/ZuvfjT0r6p8cA8EQAAEQGBAAqWJtda8qmicF2FTph94y//X+hOaX9S+BABJc8JAjaHbU6IH+XmVr52Hv9Gyu+9K1qU3cgcsRxnL8au++wwyFobeV3YyVIq3VTzWFdzyz0mLitmSPtMtRRg55lfHs0jbmOT3ivDyWd5SEJ2BknOfq0N+DtwKh2c6ma4QoafI0/+MFABGVgkN0xf9dHANAiAAAiAwRwL+RNK0AiAugSfCuiVtw/yeuuL3KQCkRL874dfe0PV13u2cJ7w9XnlPK0/UsSsAUscdO3bczZ/8XPonVBnoEQ+Bk7YDMv2BC0vmbTN0wtArqwgtp4jN+yquztDPVV74nbLKUA5riP7KCyOrOz8WGwHlcLI9YIhemh8rHOs4VCl1FnF9BuXVhyJM8SnbGl45dlmi5wqbbOujRsAo4uITBEAABEBgQALe4Ny4BSBFsEznToQXIaDBbWyfAoDkn7mtdYKHV45zxTmQmM61ht5niS73nq3L98I7oY+xjQAg8Y0x9ys5BZIJ+xanmHeUnON3E/9tE+VgurrOfHC2TVAuN9NthunT4trYLekfZ5m+VUpzT53rYNF3kKOZpfDrbvVGFCOF1/snDT0VAsD4pIfPrLiOEQAM81vKZSi+p0SPLdLEJwiAAAiAwIwJFINx9hnYo83MsvoTsKEfNymY9S0ACJrMGQxTeXIdL/X75WM6h5nvXYW0rQAgaYlr3ZKiXV3+xf0z0gqDOn65jDG/MnncspiMaz9v9h0v+Wl511ss89EThpQm+RTlKz53akwHxwgAwr/q6GLW34gO8cqKSxAAARAAgVkSsLlv+Wuzz3xPuzZ7N5jnYZmulTfT2sDyxk70ID998cpXFT43b0su3eSDVWH8e9uT5B7Z26tsA1RNaNnbdPLauj1sScsZ2CnyjDoqJ/Fln94tnY/2uEtlkS2Ib1ii55Td//p18a9FqdBtX1xUSquYoOXzakt0rDDw4zZdM/P9nS7CTTXpXikWH0V3oCmd4pllOrNo16YtoCJ83g+Sr0wLInx0EQafIAACIAACIKAmkHkiTJIDjTFPFkM5KfMfuPP5m9SJ9BDQWpuKEl3K/CzL/Gy5Xl1dTbokLfvkoriYmuSZ4mNBTgfI9kPTiksoPzHqI6sywsnxeopzrbwlFLeP56JDQUT3kdWOKgNDfeSBNEAABEAABEAABEAABEAABEAABEAABEAABEAABEAABEAABEAABEAABEAABEAABEAABEAABEAABEAABEAABEAABEAABEAABEAABEAABEAABEAABEAABEAABEAABEAABEAABEAABEAABEAABEAABEAABEAABEAABEAABEAABEBgLyAg5nnTNLVrRA/MfMwTPc3m/0+XT7mX+bNPkgPFLGyVe9wlx7SFme8ubnulnsYkT3T1f5qY4M3qblcfLGHEY9+S1xXFH5hA5nPCmDWbJAemzI/xf0tybYx5lPQp8bcgTqqa/F8MXFQkDwIgsJcR2Gytva9lfrk19JHMwY6h22sczvgObUrXyXWW6ezcfS2/LiX6n+IYZ9FZGmO2ZRM88xGW+bOW6UIbV3/xavjD3FEPv0KEJq3joFmySdP0zuJ8KPQvwt8sy7UB89qaTeREr7JMH7VM51mmXfG/J7rGMn9X0jBErzLGPBS+FzZgb0GVQGAeBORtxBC91U77sC9N7LWubDXhdlnmz1iipy7SxCJufS0nh7oBVlOPuDDi4ZDoWEv0sEVZIRCBTDMJiZOfefTHJc9zk/A1nLw78/RY5d2yn3u3WaKTxMFUF4dSS84axQcBEGhJYLMxyTMs0xmayaDXMIZ+3LLMfUXbakzyx5bp9F7rFR7YL0k5OXjey7oQAPrqRhPpSJ96oax8zbhPrYvwOlESfAEBEACBOgLZvjUn35n9QDVaQdhdV7Yh78vKgzH0Mst00RzrLisIV1iiQ+a1EgIBoN9eJu6rZetnbn1q/gJ1v0CRGgiAQP8E9t133583zO+xTHvmNljlb8kzFwBSot9NmX4w53qXtw/Olu2X/lu6OUUIAM18tE+JaD/RlZl7n4IAoG0yhAOBvZOAaOhb5vPnPljNWACQUwnW0PsWQOgpT/7F993W0JtmqSwIAaD7GCCnQiwnly3E7wkCQPcGRQogsFEJiAKaZbphIQarGQoAcozKMp2zQPUuJv3pT0OnyhvlLPogBIBulFPmp1imWxemX0EA6NagiA0CG5XAGvPvWKadPQ5Wsn1wY8f0Bt8CMCb5/QUTeqYn/WmlwYtFaBm6L0IAaE8461dxR0ND7b678+8TAkD7BkVMENioBMQ4jWU5QzxSvgsNRuPnRJeLvoAhekl27ni//ahk5Gfz9u3b95Gz5MaY+2VGgphfLnHcXnuTnsGgAoAxyR+1PG89rj/TLZbpNEP0t6LdLYJUmq7+htR3bW2bkU9rVw+QyTTX/uYjLdHnLNNNrXi7NjJMP2Hmew/ZJyEAtKObJsmvd2jfi6yhYyzzQbJ9sLq6mpROg2y11v6i9Ctmvr8c7zNEr7SG3m+JLmjsUxAA2jUoYoHABiaw2TJ9o3HgmBYMdhvmf5UJouuZ9SRJVt2xqFMs0x2lcgwmAKTMf1KRnz+xN13faomOFwttbQ2tiGa/tckjnN5B222XK0RnY6i+CQEgnqz0B2fIp6n/lJ/tyuwB5Iqem+JzHcew1qYijFtDp07ps0AAGIPCFQiAwMqKvGmUJt3y4FT+fpq8yQ/BzhizXd6kva2DQQSAlOixLSf/m1KivxNLgH3WX05dWObXWaafRraFtM3FQ+kEQACIb2VL9IaoNiT6xFCGlKy198wMd+WrVOsWAkB8gyIGCGxUAvvvv/+dZClZPWDlWuhbhuaRmdoVi4OGbu87L1k2t2J1b3pVoyzolL+fePdt27jv8vjp7dix425tjl+mTF8S2/F+Wn1cQwCIoyhbXZ7wWu4/5e+7LSevXVlZ6fTGrymhrAq4LYLLNeERBgRAYC8gYJmfrZ8Ik0NnjYSZH9BnntkAHdonnRYMbkhN8sw+yxFKSxy9xOpkpIb+KZRu7HMIAHHEsr346f5Tnviz77LtFZd699B9/566lwgpgAAIzI1AZnNfMWClnPxn173+uVXSyzh7C1LU1xOKLhWFPi+JmV3mvgeirMbtEcuNfRYQAkAcTUv0Pa/vVE78+fPkg3EpIzQIgAAI9EhAvO4pzyjvGWqPssfqBJNy+/4Ng/LUCYjzhl7yDxVaFCQt07m6SSUr/0Xbtm27ayhd7XMIAFpSKyvZMrvOcuZtQ+ls6EuLkCAAAns1AXfuXzEhJl9ZdlCZlT+mH0VMpJeIQuIi1NtNLBfry568ua9yQwDQk7RET1O20Uf1qSIkCIAACAxAwDK/SDdg8esGyH6mSVrm1+vqmr1F3zjk0bo2FV9j/k3lao0IdLf2JbxAANC3liH6S00fSzn5U32qCAkCIAACAxCwzEdoBixL9JwBsp9ZkrlmdnKdqq5M62IcaGaFi8jIeSdUrNjQekr0zxFJ1waFAFCLZupByvxeTR8TQ1hTkXEDBEAABGZJwJ0PDk4oyz5gqQUdmfw5efcs2yAyr02W6GuaSUasGyZJ8kuR6U8FhwAwhaT2hjX0YVXbWHvf2kTwAARAAARmQcAyvUM1YBE9fRblGSIPZ5VNa1znClktGKIcfaWZmX6dtpZYI8TxkV3zhQCgJ2g4+Zjm9yTupvWpIiQIgAAIDEDAMP+NasDi5OABsp9JknJ+X1PHLMySbHWICWJlna7oahwIAoC+m1qiYzXtYkzyDH2qGyuk9MftRL+ae0nkl4shpNzyZ3J4aug1YpXUmNVH9rF6tQjkRPlY6iL2F0SvSHyDtDUdvgj1WZQyiH8MGZuMSV6Q9RtDh7l+dKhlfoUo5IrelJx0W5QydyjH1h377Ufyu5F+JD5AenlR1RotSTn5eIfCzzWqNfR5zaBsmX64srIyuIXDPmBIJ1DWad0SPbVLnhAA9PRSQ/+ga5fknfpUlz+kTHr5WMOfiXSQdIVl+qj47Cg5FxsEiijOZic55DRHzb8cJQ5lLqt0YpTLOTqrWp3blW3lJckTqtLKvEjW5O+Xax6TW3YsWVG2tdXVX66qW4d7W/Jj3Mm7rKH/0v3OMoXuXZbpDMt8pDjo6pC/OmpK9Di/naqujTFrTQlKfzdEL7VMJ9d6qiW63HKzPRGxJZOa5H9bTt4owpI4ERvla4mergR52PMYQAAAIABJREFUY59ny0cFGPgi4lz2ulhEHLg4vSZvmL6oa7vmDhIqFASAEKHx89Qk/0vXJvQjcQQ1jrkxr6xdfbAl+kRLnxvliXOnYX5LaODsQtI5ByvnW/rO59flIbZSnJfPUpwp+yLueXJ4VVqW6URNP5LyVsUf8p4h+itF2faID4o+yiHzjvOREnOEu5a/YfqmrD4NadQuZfp/QUb12+pb8pUwujaYRm7Qbk8d5/zkG79OVgzusc8+vyD+e6yht4uAmcVJ09QqM1lPDf11XUaLej/CydFVyzYgR9Ttmi4rGxAA9L3b6WfUDj4TvzWiP9envFwhM/fXhj45Ud8465tNDG8RZ0tdt7aqiHYRALK3q2j33jUCQJI8QcXO0Cer6jHkPct8vqJsp/VQhs3u1NPVivya+kvds9OHsvDaVgAQo3OW6cuR9a0UAOStX1ZMnJfd062hr4uPGfH9I3N5SvSgrI0s04XKDHcOBayHzlKZhGxd6OqW/GNlAgt8M03TfS3TbZr6GWMe2rYqEACiyG1JmX6maRPLdBUR7YhKffEDb3LLljuVDOoGZ8X95Dt982srAKScHDzldlkl8FQLACsrK1uVDtpu62UvWNmvZNLQtGtXvykiQIpzM01encIYut0yv1xZfXWwNgKAbJO1cCEuv5MpAUCEY1HwlwJbokNEkHLXx8uWcP48eVdWodTQ30dAFOt4jXsXakoDB3QQbtTUTd7cBi7OIMk7f++KwbK9IScIAHFNZ5k+oOlzEsYwfX9iTy4uq4UKLYpthvlftXXvKdzVNkkO7AtEGwHAOVPb064+tQLAilafRFYe+qp/KB3ZglHU85ouSo7WJo9o6RJdMQ5Wb8U4mym96X/FCgCiy9GgLxKq15QAIEv9Rb8QAUDc1+fjOH+12JpJid6WtbdoqFqm3YqGzQoikikz/3aos8z7ubOcF4JX+Ecf3B3rEDy0lufkeFrb/CEAxJHTviUVv7dssLCrB8TlslihZX8xwj5F+Depent2g7mh6+W33geRWAEgTff77xGunyvqXS8ArCXJrxV9pOnTOWnro/qhNLZaJlHKrKiHf6/9aqoYnBP7JeE8/Px6ujb0vr70AmIFABFAOtR5SgBYI3pgodMmAkDu8C/5jm/gTmwAjRpce355VMh86eT1i7xvnjL/2ai8TZ02b/gRi2W60PtyoEvb1gsCQDw5y/xVVd8b98ubRIGwrwEovsTtY2RKWnrjVFWTxy0299GhWq2r4XqlKPy2r0UeM1YAaLFfW6p/vQAgJcq114MT3K5ZOJZKmR9Tw36iTm1NqDv2d2jyqAlzlds2aZ+GocO69iGJHyMAtHBQN8G7agsgd/LHR2d9yG0ByMq9nJ5wqzObJgzeuVWAm2rAljMcfyf6nkgbfUDrOw1r6BhVfYie23fes0ov15Al1fJj20ECAkB8azplwBZvMvzVtgNofCl7ibE1Tus9m8wutpy8WYwh7dix425+KdI0vbMx5l6yL+vSVfXt7Hdu6OtdX0hiBIDsqN5YgBuPiVH3mgUAp0+hSJtf7HMc4lqOm4XH03ZO49wkqP+9ZC+gdLK85IkeSKndN8lYZ3NFyncodSkKxrvlCF9XfhECwGa9+/BaQXBqBUDKbzk53NrVA6QPFb5HMsN/RM8TH0BT9TSGXh1u4MpC3CHahWKooCu4PuNrlySXTbGxzMgyqbwEjrQ+ywkEvkMACACqeWyZjmr5e7pNJshZKnfVVCF4W/YRI+p4pc1PPmwNJuwCyMtFjDKYIXqVNu2qcBECwKZMf6Nmss+eGTpMJiGx2SHnz92RyKfJeWzL/N2cW7MA4BR9b1Uw7kPrvgpJdi9/o6TwCk2Ll6ns6CRH+Gnh5GOy9VJb2NIDY8xd3FapUjE1uazrkXetABAwUneTJfpQpsVvVx8sW0LSl4xJfk+U+lLmf3PbT5UCgAhFlpN3Sh7FiRkRuOUEjZwQKGHKvorm6acVna2QlsqfN8p5TZHiqxKf9T3dfhXdWpIeZ13Mzvk5QxHltpj6njL/YZvMIAC0obayIr8D5RLuVFu53+BPRbt8Ufun7CeqxwpDnxI9gXYkV1asTKY1k23p/s4uWwFaAcASPayUb96Ghv7LmOSJKysrQZ2iQiAIMbGGPlKZ1ySP3aJFHkqr7fPAROX6b3KdTLYxeciRtCZBqlTvGxzbmCxGYUX5TfuyJML7KGKLC60AULNVKKsQb9Os2IqxoNDxfLd1c5RlPlp+R2JNsLZKmTIP0+kl8HUDVM395DJD9JJC6qjNbMAH7gSARrHxnAGLMZOk1VsdzH/RpkAQANpQy+PIqphlOrfT70msnuUmqnvTUm5fozxmtsTKdJWmXk7buHPZc2WmyhXIiXFINNXb1i9CAPhQue5y5HgIy3yZVbnJyX6ivkU5RFhsW+9QPM1Lhlg+DKVTfp6vhoTbNNMR6UFRNjcMp7JjcLOYGi6XV/tdIwDIxF203ejT0PXGmEdp8xkknNPo/dyoUIrOVxP2Ytl7mMcbjOwL1ZSp9OPhzw4CcYaJak8CyHHPNsWCANCG2jiOEwLO0PXHxsHwh8Ykf7wIioL6o47urPEYR6crpbfFm4wx29pkpBMASHSlJuxvyMqpnN1vk6cizhabmXxt7Bti8vtrirSig2SmfzWa+ZETtOi6KDX+r5VtguiC10TI9HNyHYLSXFDm296RmkYAsDxl6e82UequKfbMb4s5QrFrrlfCqRMUMrvNmZndzm8BWgpi+EY14Bp6vzbNRQ2ntgho6O1t6gABoA21yTiiedvxqI8/WJ2dMv+BZpl5shT9fMv2s3XHhk/rW/iXiV2ztVe3xxkioBQA/LZYl/PbXbY3QmWS53KOWzGe7WHmu2vSiwnjrPFN1LmiLKfHpClhlSfPdoljqNi0Q+Er377L85ehH7e1oKoUACaYGkPPD5V75s+dr4Cw8kcZXvX3c8QpwiwGLkv0+IpOOgE8e27oTTOH2nOGYtlJVVeiY9tkDQGgDbXqOKJ9a5k0Sl3TfXX6N/WtKU3e6mx7vauyrmno+i5LqE0FtpwcGurvYu+9KY26Zy0EADmCd5+69Pq6z8z3DtVZnndVgqwqr5iQDeVdaJlXxa+652y0KF4um5Ukq9LW3Mv2zhUWO9eYH61JrxymhQDwgXIaC/NdpErNHlCok4yfJ98R7dghKygKb+P8yks7/vdhOtiQdSunLYoxqroSHV+Oq/kOAUBDSR/GDeax9r4bBILkK9JG+hK0D+m21hS6NfyK9rk0xxTBorwEX9H/97RRiosVAEbW1JqL3MtTy/SNinqW+8WZvWTmEhFPcopV4BtiPTUqt5B+NIRORcFHdBaCPNuummqcAY0F+p3ik6co18J+ig9zzfJbEOq44icP5fM7ZX6WrhztTeQuSkPJEpmmrm2tAUIAGKSlN+VbN/rjT8E2JvqQOBMZpLQuUct8hKIcFwytAGyJTgqVQ8aAWBZxAkBy3SzNOFvmF4fqLM9jjsiF+Oj0i+L0PNzRxpvDdRnWO2tuLc9/Gay8Fhfx0X8xKwDCODqDeUWQs8niTtCqlCgqgZYl1pssJ6/te8CQJalwB6N1sX0wL5Z95SsGVTR1tVgB6At5b+k471/iO0DxVq34PYkWMdFLh1IUtEwXhfqaIXplb4BqEtLYLJmwdFaTTvl2jADQRuu9nF/M9+wMN5NYTSyPoaXv/PqYdJvCapzTxJphVo7NV/U9J1TUU0wbB43fiRJkRdzGWxECwEysODYWts3DbGmISI7CKPZxQh2WMkUaa+1925SlKo5aMY7oDVXxl+medgXAtlR4xArA8L0hU6wz9Knw4B7+Lbk0zujzTVAIOOW/0mRTKo+h24fa+/dbQSX0Gvq6H0dzHSMAGGMeokmzzzBiGEbRR87uI0/lG/K3Y/PSrN6IIazYdNuE15hyFsM7sWlHCACnxKa9UOHlSIU4o1B0yuaBI5dqby48GHWtpPPQpciTj+ia17zjq3UAOG6prqgXBICCxPCf4mSrxjiIoi9PTcbXp8xP6avUqaHXKH7nJ/eVX1M62Upk8E2YboxVOI4QAC6KTbupPtpnopSmaIP1RmMvyswywzEhxrllR2WKKyvOPkvwrXtW3lmz1exQHVu4C9YLAMNuc6gbpmtAN0n0o9hEdGxXa4IRSoAzkTS78m2KLycrNIOCHCVqSqfuGQSAOjLD3Xd2zL+taddAmD02P+nS+Yy65tiWCAnDUZlIeZNlCjp9ibUHoBUAnPvYiQLN6MsW5zipWSDs7tRG4/lvZ+zxRzFlG+ivshr8s6G2sMptpDoOyPHeDbUCQBtF1XIdFuq7O3//hVAjK55/OVaz1AehtZ4l/sv9eMt4LfbVFTzXLSwBLl3zyvKjZTpT176lFQDvzUYm765n8jUTzyzdhFumq0NcZNsiptHVAkDuuTEm6d7CWuYjQ/UWr29dMlR5/mtxrFijyDhD98YrmdMp73dSydXQh2NZKgWAK2PTXZrw7hx+t4HL0OdjbUsXgCJ8sn+hiLOsn1o76TK4takjVgDaUOs1zmZnd/+cygEqNICNn5/Y1lqdU0BrfuvM8uGX5/o3fNDwn2EBIHb/VisAzNNiW+48p17YK/pIl2V0y3RckU7tp119cGwv1zmP4s8M33eK/kmigBvq19GOljQCwCwFndh26iv8JmPMky3TDxWQKxvBQYq2IOjMr1amOVGWjpJyX6C6pCOeGCfqVNehiR7WJh8IAG2oDRJni9NtuUTV3hX9oO2Kl3jMbJvnPOMZkzwppiW0AkDs1kJMGTRhNXoibbf85KXLeZlrGj9bKRrqFACDE3JTuYZ4doamTfwwGgHAttha8PNYmmtZenRa+cElu8rBop2mvuwRKo7M0B1tVxkWpQEsk2rLpe0ZcQgAi9LSeTlEP8Yp5N1Q+XupmPgnw/FBsTVyOglDDK7Dpkn09Ji6KgUAcb8a/VISU45QWDeehthd0kZRUeP5r62p5bEb5IWb5OtZEn0v1B7l5xoBYKnO/5cr2Oa7nKeUs7ktzjzvSpPkt2Lz1JxhlYFRjrvEpr1I4TV7odbQ9W3LDAGgLblh4xlj1pTHwsqD285Y5yrijXBSiFiWATxOy1opAOwctmXDqTuvrWFjOklyYDi1yRA2fBz1FjHmMxlL980yXbqE/eg8Xe3GoTQCgOgfjGPsRVcp0WMrPCGVB6ny97NipVmlH21Rjot+I1qU5nKGZMqspr+3OBNd1BECQEFiMT/FQ6Bl2hk1sBr6fExtNMpbUfkHVyl6EjByN8rqqqoEgNxJjDrNoQIaTv4lzDxOgz1z8xw08pZ8sG2dVC8rs+ob+nwGEQAW0vlP24aNjbe2uvrLluh74Q48HgiMSX4/Jh9xjKFKv6WFvJiyDBVWznmr6sh8dNsyQABoS2528bI9+szr5vj3EuwXEW+HcoIkmJ5+QJ0WUIeKO4QAQHTB7Fq2Pid3QiTAMrks5kidWJEMtXMXBchoQXWofhGX7iACgDjaq2/dveDJvvvu+/OW6VuhDuc9j3I5qZ24LNM1MT+SRWoanSELEl/h4oWx1Z+WY+yycqvCIFItAee3Xa9wS3RSbWKlBxAAfMGKzy/hmdfXzZYpqBAqVhO1BVR4/hPb+Ju06ZXDQQDw+tHeLgBI53BL2Fd4k3yjRGuMuVe5U9V9FzsCWterxqz+j7p0Fvm+Vs/BWpu2rQcEgLbkZh9PzP9aJq1y4G6tMxtsAXgDNy+MALBiOXljcOw0dIymJ2arsiHT7kSHaNKqCyMvW8Hyxr2dN84XPeWFFYC6Bu3jvt6ULa2nkQY4DNN/KDvBO/qoyyzTEN8Jqrq10GL16wEBwKex+NdKZyv5wKl8C7FEz9P0tSHdt86CvEoHYIEEAKW7XjE4E7QEaYneEGjj20RHoEs7WE4uC+QhOllLb55dpQSo/O114b00ca2hU8Mdg9atoU/GVEpvJY+u3bFjx8/FpD3vsJbpKCWzw7qUFQJAF3pziStLw2dp+kbK/F5NCUX/RpPe9iS5hya9RQ2zbAKAcNQ5tFl9ZIh50F5LD7pSlunsUD+ao5nlECL1cwgAalR5QK09e8t0YUzSsvStP3bIL45Je55h5Sy4Zboy9GOS58aY+3UpKwSALvTmE9cYepmmb1iir2lKqPQMt76sW2kFg2UUAIxJXhhq65CgJy59Q2nEWlUsmPqfSsdxM3Eo5Zer72sIAJFEnalRjU908fAV9WeZTg51bnkujdbVXnpUwToE1mjrZnXuuPwvRYQA0KGh5hTV6QKE90eVljDTNLW631B/3gfngW4ZBYBt27bdVaFcd6144qtjKlbpGts37yetlf+KfK2h9zXmk+//n1mEX9ZPCAAtWs4yXaToHPJGe5eY5GN0DGTLICbteYTdf//972SZLtaxopd1LSMEgK4E5xJfLGGGDcUw3aAsnWwr3Bjuc/w6ZXoLGWwZBQABqbLdnyRPqIG+xTD9pLltk9fWxI26bTk5tDmfTNlSXvLmamkxqlIVgSEAVEAJ3dJ6PZPVglBapefiQlM1YYqBIjlOVYq/UF8t8+sVPyJ5+7uxBaupukIAmEKyFDd0Cld0q7YyiiNi0To62rxnFW5pBYAkeXh4TKg24GOMeVRjXEO3i2+VPtpAa1Ja7Fr0kd+80oAA0IK89kibRqO1nL3Sdna2ZJoy/1s5/qJ8d0d1NG92622dgZTrCgGgTGQ5vov558aBPV9uFRsYqj/LyTsV6d0oK1SqBBcw0LIKAGLHJLSCmjL9THSHytgtN3vEE1fS5Thtv2fmqxXH/MSIW9s8FiEeBIAWrSAdVDHAaJcsyyXYqhUw8jIsnnlgt/R/uoKRCDI7ux7ZKQBCAChILM+nUxIN6wBEWLUzJnmGpu/JltvykJos6RILACupob8OtY9YDvVr7Dz/NdqNENPtfpyu11ZjsbKD6fKu5esjPgSASIpq971MrRVExPRi6AfiPb+ljQOiyGpHBVdb/csk7OTwqMQbAkMAaICzoI+sXT3A68u1goDYydBWIbMTzxRW1I08qqvNfxbhllkAkCOYNmTIx9CHfY4Koe7ivq2kWqZ3aPrmMm8DQADwe5niWmtprK0/c1eETcpjKMWAec12ol9VFH/wIJb5dZofjQtzcayiZFMFIAA00VnMZ4bor3T9JXlzTA00fuizY7d29YCYdBcl7DILAMJQ4Rr8Bn+LJuQwbQiXtSnR41R9swe7A/PqV0sjAKSG/i8R3WdeoIp8LSdfUXWKjp77jDHblVsNuRBAdPm8hQCl5mwhtKzHOk0q2qDuEwJAHZnp+9bQm5j57tNPZnpHtrtUPgFi+4plfpHqd0r0uS4242dKy8ts6QUAhcXGNeZHuypvtZxc19Ced3QxIe5hLV9uDZ86yE4D7DHGPKQceRm+L40AYImOz4735MffNs8DriV6bkMnHE1ssrxFRDu6ljFl/jNlfnnehq7vwwhGbLlFUherWFFlJTo2Np9QeAgAIULj5+4N7JrUJM+c1wRoDL1a2WduFYdc49KHr7Zv376PZbpJk74hekk4xX5DNJ111+S07AKA83/SeFwzJXqbsGDm325sxwG3clJDf9+Y91hR8Dypk6btegyzqas9mGUTALKJzjB9UzpFjyCDScnbdYSDiNOCCSoDWEPvV3bAQgDZZQ0d1rVjKIu3kibJr1umMyLLeO4QttghAGhbbWoJ9jRmvr8+dveQ1q4+WHn+XzxEHt8mR8vJm5X98jbpO23yaBMnn7yTd7WJW8RZdgFA6qEwtnORhAspDRqTPKng0vfn2to2Y5luUfUjok/Myi6AOKcTvRgxpNWlzkspABSNkTJ9SfZp+lb+KAN1g9VPi3yDnz06TxC7/5bpG8E8x5JoIQh8O8a9ZrnOoe9pmu5rmP/GGro9smzXDrWVAwEg1Grj5zV7sKe4ibCzJbVxTtNXKfNjFBbhin4sx0TVbmL93KIGbzEelCQP9+P3fS1bLiknH89+Ly2FmqJMG0EAkHYNjR1i2TFl/vf6cMllbY5bFxw1n3FKzXRC19WdQJk2u5XhzFvhXi0AeJ3iUsvJ4TEueAOQs8erq6uJNXSMZdrl5TUamKruyepE30uqbiBTWR8sl8kwfdqYzMFGL9smcr4/m/j1rlx9XreuMf+Ohn2bMBAA9NRqBADXVny+KHMmSfJL+hTDIUWvxVmCC2vojwXaU8Ip14eIMEYlxoFuN0Sv7PuFwhizzf1mxlsSEACk0cQK5IXlMcv/ngmLRBf49yav+ztFVNeLpP0s09WT+fpul6euz5Bxsi69tvflZVfmF78cEADGA0U+eGWdJXmzWHJqc75ctNJT5j8UIzs6k6ITjb/LJsmBbRu4KZ7oFERYCfQn3eL6YjG4I8JAjOa97O8bYx5qOXlty5WIIv9bYxW5mnhUPVMLAOJ62dBHZvkvbzJVZZ7XvWYBYNynDdP3DdHfykAs++qx5b3HPvv8gugZWKaPqpdSx7/pncaYX4nN0w8vb2NSB3/QVFyf6YTmTishmRvs/AVieq8bAkDWTKK939Qe7nmdwLi7D10rv7/UXVui5zSVs+LZzZaTN1prf7EuTc190StwbrPPrMhjHQLAeLAoJpryp0iYJ4tCSWqS/yOW9lLmZ4nfcHFUkxp6TWroH/KlOXnzoTuqQOvu9WOHuq5jyBuZZbpEV5bxID4VPl+2P88SfULOusoAL298steWCQnM73GOic61TLdNxQ8zL7fBjdYmj6irV1/3tQJAD/Up1y/4nZnv3Vc9+0hHKwCUWO2xzOfn/YaPzpX4+CCZ4I2h54tnP/k9ZXvvhj7p3u7qBu8gM2OSF/RRV6e/Mz0Jh/vx2fK7cF4qg37qZVtMBCX5DVmmc0rsJusLASBrWvdi09RHat+8ZXWzj/6hTcNy8sHGNq3uT7Lqc5wYNpKVBEVeW3K9Kn6RJToppMgKAaAa+uSPbQZhnBvLTm8Mis6x4rYDtFb2Zs6h4gdyYVc3vxouEgYCgJbUlBLgIvSTUhn4SH1twiEt0VP17rYrheebLNH3cuFHJoLkXU6J7YT8aHByWUXfL9XJSxcCwKjRrKHPR7Fz47ms1I4SmcGFs1pZ+SYeUf5LDNMXZfXRcPLurB8Rfcga+pRbqRpvEynmLQgACkgRjVP/g23Ix03+M/MK5RQDjxu6Xp3TJzqpDyc/2t82BAAtqcUWAGS/XF8TfUi3lNr0ttnq99/qdwIBYNRwLZbXpZ2umNVJp1FBV1ZWnJXJs1q1ecMc0jY9CAADQFU3hiylEx3id5BZXju7BPrTCTNiJcYz3PnyWeLACkAE7ZZbAENPkDfLVkJENaKDytZfT9ta3VhAABi1nRwJtpFKxbJtOUpgxhfihbWjPlS3vuON43uNAJAa+if1xOwBGi5O8p1ZLW039W/nm+CE4erpLVuGud4o+5+i+NVU5qGeYQVAT9YynbggfSYbDOVIr7X2nvoatA+ZHeslunyO9f9y16OwG+EYoN+CkYbE9qTpfvv78Wd9nRk/Y37vHPvQTsv8F13tDiyNHQA5MiLKey00enuTtlxjXyxvEV3B991h5fSBGIaYU4e8QjRelUoufVd9lB4EgBEKzcVWS/TnKo9nYcGvy2/sXNmf7/vobAiAbE05t8Gz2xIgukDGsD7qutEEgKC1P78PGvp8qH1n9dwSPT7k3rjnMXmXbDmLu+I+6rhMAsCovtJZRKu/F414v2PVX++2RJ+TgWoe+06jiisuUqIHiTQd5Uegvt5NA7u45jxRrHAtChMIAIoOMh1kszHmUaKQpLR73tQntM92Zcp0RI/v+8z9dPWa77ijeh/uqCDYVO891tCpxiR/1KfBmo0mAGQ2ARrP+49XIsUzYHOrzvZpfnQ8OdgyXdrzZO/3qytl26Nv2xxLKQD4zSvHqzLlntxk7rdbnDX2IY+v8yXCE8XqkhgE8vNchmvRWHUuND/Qs6B0iVhMG9jaVSvE2XGvGZ/v19oSWDQ7ADWAN8sRJLGNL94sLZMoO/VxDFR+V5fktjX42XJcrib/ud2W42j5MWGSMWRPx4H8WjlGK8eM+3pTK4PJbHME+rphfks53iJ/t8zPDv2epA/5XgIXqT6ZzQmTPCn77Ri6vmMfkpWps6QN3RHq4DHUNiyyrfVAP5ItszZpzyvOFtkfMsY8WYzX5Ect6ITsDZ7pW+5sstgGOM/m30+zRB8yRG9NOTlYzvEugJe03tllNgSInirntN3b3qct0+mW+buOSYT9g36PaPVeWSTYJ4GtYmEzO0ZH9AZZfsyM+uRHt2SylN+S/IvNiG/Jka5ceOCj8wlw9ZFydLXPAg2dVuZIKFva5ddne9OGTs3HisxOSFHfs6yhr8tKRr5/nRwqjJw10sGPAw/NAOl3JrAlTVd/w3mlPMpw8rF8vM2EateHsv4kv5lTneG5oyS8mEiOdX7VubRIYO8mkEnfUW8+/Pq9mxhqDwIgAAIgAAIbhIAz9zveBgnoBhiiV22QqqMaIAACIAACILB3E7BMR8XsXc3zPO7e3VKoPQiAAAiAAAj0S2CTwk/35CqBoWPmrc3dLwKkBgIgAAIgAAJ7IQE51hdrU0CcKW3btu2ueyEuVBkEQAAEQAAENg6B3Dxn8pWY7YCU6Qezsua2cUijJiAAAiAAAiCwYARyX9T0pUgh4GeW+cV9WDtbMBwoDgiAAAiAAAjsPQRECGjpOOYLa8y/ufeQQk1BAARAAARAYIMRcN66TotZCSjCGqZP2yR5QgvrXZuwnbDBOhKqAwIgAAIgsHwExN61s6Y4eQIgYCugEASsmMY09BGxRLjG/Oi1JPk1MZMqVtcyj4bW3tMSPcyY5IVibc7ZqD5j+UihxCAAAiAAAiCwwQiIrWvLJL4F2gkB8fEgAGywPoTqgAAIgAAILDEB8ZkwoPc0X7iAALDE/QRFBwEQAAEQ2IAEMucwTDcPvBoAAWAD9h1UCQRAAARyxNWmAAAC6UlEQVRAYMkJiJa/5cyjlf/W3uc1BIAl7yMoPgiAAAiAwAYlkB0TNPT2gbYEIABs0H6DaoEACIAACGwQAsz8AGvokzbKpXBQmRACwAbpH6gGCIAACIDABicgx/ss03G2H/0ACAAbvL+geiAAAiAAAhuMQGY8iOhpluh4y3RltLKgoR/D1fAG6xSoDgiAAAiAwN5HIE1Ta4keb4kOsZwcbojemhL9szV0jGU+UgwEWeaDUqLHMfPd9z5CqDEIgAAIgAAIgAAIgAAIgAAIgAAIgAAIgAAIgAAIgAAIgAAIgAAIgAAIgAAIgAAIgAAIgAAIgAAIgAAIgAAIgAAIgAAIgAAIgAAIgAAIgAAIgAAIgAAIgAAIgAAIgAAIgAAIgAAIgAAIgAAIgAAIgAAIgAAIgAAIgAAIgAAIgAAIgAAIgAAIgAAIgAAIgAAIgAAIgAAIgAAIgAAIgAAIgAAIgAAIgAAIgAAIgAAIgAAIgAAIgAAIgAAIgAAIgAAIgAAIgAAIgAAIgAAIgAAIgAAIgAAIgAAIgAAIgAAIgAAIgAAIgAAIgAAIgAAIgAAIgAAIgAAIgAAIgAAIgAAIgAAIgAAIgAAIgAAIgAAIgAAIgAAIgAAIgAAIgAAIgAAIgAAIgAAIgAAIgAAIgAAIgAAIgAAIgAAIgAAIgAAIgAAIgAAIgAAIgAAIgAAIgAAIgAAIgAAIgAAIgAAIgAAIgAAIgAAIgAAIgAAIgAAIgAAIgAAIgAAIgAAIgAAIgAAIgAAIgAAIgAAIgAAIgAAIgAAIgAAIgAAIgAAIgAAIgAAIgAAIgAAIgAAIgAAIgAAIgAAIgAAIgAAIgAAIgAAIgAAIgAAIgAAIgAAIgAAIgAAIgAAIgAAIgAAIgAAIgAAIgAAIgAAIgAAIgAAIgAAIgAAIgAAIgAAIgAAIgAAIgAAIgAAIgAAIgAAIgAAIgAAIgAAIgAAIgAAIgAAIgAAIgAAIgAAIgAAIgAAIzIrA/wfOTcNsqP3HzQAAAABJRU5ErkJggg==;" vertex="1" parent="1">
          <mxGeometry x="430" y="50" width="160" height="160" as="geometry" />
        </mxCell>
      </root>
    </mxGraphModel>
  </diagram>
</mxfile>
